<svg width="363" height="21" viewBox="0 0 363 21" fill="none" xmlns="http://www.w3.org/2000/svg">
<path d="M318.552 13.6602H313.19L311.986 17H310.246L315.133 4.20312H316.609L321.505 17H319.773L318.552 13.6602ZM313.7 12.2715H318.051L315.871 6.28613L313.7 12.2715ZM326.787 15.8486C327.367 15.8486 327.874 15.6729 328.308 15.3213C328.741 14.9697 328.981 14.5303 329.028 14.0029H330.566C330.537 14.5479 330.35 15.0664 330.004 15.5586C329.658 16.0508 329.195 16.4434 328.615 16.7363C328.041 17.0293 327.432 17.1758 326.787 17.1758C325.492 17.1758 324.461 16.7451 323.693 15.8838C322.932 15.0166 322.551 13.833 322.551 12.333V12.0605C322.551 11.1348 322.721 10.3115 323.061 9.59082C323.4 8.87012 323.887 8.31055 324.52 7.91211C325.158 7.51367 325.911 7.31445 326.778 7.31445C327.845 7.31445 328.729 7.63379 329.433 8.27246C330.142 8.91113 330.52 9.74023 330.566 10.7598H329.028C328.981 10.1445 328.747 9.64062 328.325 9.24805C327.909 8.84961 327.394 8.65039 326.778 8.65039C325.952 8.65039 325.311 8.94922 324.854 9.54688C324.402 10.1387 324.177 10.9971 324.177 12.1221V12.4297C324.177 13.5254 324.402 14.3691 324.854 14.9609C325.305 15.5527 325.949 15.8486 326.787 15.8486ZM334.601 5.1875V7.49023H336.376V8.74707H334.601V14.6445C334.601 15.0254 334.68 15.3125 334.838 15.5059C334.996 15.6934 335.266 15.7871 335.646 15.7871C335.834 15.7871 336.092 15.752 336.42 15.6816V17C335.992 17.1172 335.576 17.1758 335.172 17.1758C334.445 17.1758 333.897 16.9561 333.528 16.5166C333.159 16.0771 332.975 15.4531 332.975 14.6445V8.74707H331.243V7.49023H332.975V5.1875H334.601ZM337.677 12.1572C337.677 11.2256 337.858 10.3877 338.222 9.64355C338.591 8.89941 339.101 8.3252 339.751 7.9209C340.407 7.5166 341.154 7.31445 341.992 7.31445C343.287 7.31445 344.333 7.7627 345.13 8.65918C345.933 9.55566 346.334 10.748 346.334 12.2363V12.3506C346.334 13.2764 346.155 14.1084 345.798 14.8467C345.446 15.5791 344.939 16.1504 344.277 16.5605C343.621 16.9707 342.865 17.1758 342.01 17.1758C340.721 17.1758 339.675 16.7275 338.872 15.8311C338.075 14.9346 337.677 13.748 337.677 12.2715V12.1572ZM339.312 12.3506C339.312 13.4053 339.555 14.252 340.041 14.8906C340.533 15.5293 341.189 15.8486 342.01 15.8486C342.836 15.8486 343.492 15.5264 343.979 14.8818C344.465 14.2314 344.708 13.3232 344.708 12.1572C344.708 11.1143 344.459 10.2705 343.961 9.62598C343.469 8.97559 342.812 8.65039 341.992 8.65039C341.189 8.65039 340.542 8.96973 340.05 9.6084C339.558 10.2471 339.312 11.1611 339.312 12.3506ZM352.97 8.94922C352.724 8.9082 352.457 8.8877 352.17 8.8877C351.104 8.8877 350.38 9.3418 349.999 10.25V17H348.373V7.49023H349.955L349.981 8.58887C350.515 7.73926 351.271 7.31445 352.249 7.31445C352.565 7.31445 352.806 7.35547 352.97 7.4375V8.94922ZM360.01 14.4775C360.01 14.0381 359.843 13.6982 359.509 13.458C359.181 13.2119 358.604 13.001 357.777 12.8252C356.957 12.6494 356.304 12.4385 355.817 12.1924C355.337 11.9463 354.979 11.6533 354.745 11.3135C354.517 10.9736 354.402 10.5693 354.402 10.1006C354.402 9.32129 354.73 8.66211 355.387 8.12305C356.049 7.58398 356.893 7.31445 357.918 7.31445C358.996 7.31445 359.869 7.59277 360.537 8.14941C361.211 8.70605 361.548 9.41797 361.548 10.2852H359.913C359.913 9.83984 359.723 9.45605 359.342 9.13379C358.967 8.81152 358.492 8.65039 357.918 8.65039C357.326 8.65039 356.863 8.7793 356.529 9.03711C356.195 9.29492 356.028 9.63184 356.028 10.0479C356.028 10.4404 356.184 10.7363 356.494 10.9355C356.805 11.1348 357.364 11.3252 358.173 11.5068C358.987 11.6885 359.646 11.9053 360.15 12.1572C360.654 12.4092 361.026 12.7139 361.267 13.0713C361.513 13.4229 361.636 13.8535 361.636 14.3633C361.636 15.2129 361.296 15.8955 360.616 16.4111C359.937 16.9209 359.055 17.1758 357.971 17.1758C357.209 17.1758 356.535 17.041 355.949 16.7715C355.363 16.502 354.903 16.127 354.569 15.6465C354.241 15.1602 354.077 14.6357 354.077 14.0732H355.703C355.732 14.6182 355.949 15.0518 356.354 15.374C356.764 15.6904 357.303 15.8486 357.971 15.8486C358.586 15.8486 359.078 15.7256 359.447 15.4795C359.822 15.2275 360.01 14.8936 360.01 14.4775Z" fill="white" fill-opacity="0.8"/>
<path d="M210.934 15.3213C210.5 15.9424 209.894 16.4082 209.114 16.7188C208.341 17.0234 207.438 17.1758 206.407 17.1758C205.364 17.1758 204.438 16.9326 203.63 16.4463C202.821 15.9541 202.194 15.2568 201.749 14.3545C201.31 13.4521 201.084 12.4062 201.072 11.2168V10.1006C201.072 8.17285 201.521 6.67871 202.417 5.61816C203.319 4.55762 204.585 4.02734 206.214 4.02734C207.55 4.02734 208.625 4.37012 209.439 5.05566C210.254 5.73535 210.752 6.70215 210.934 7.95605H209.246C208.93 6.2627 207.922 5.41602 206.223 5.41602C205.092 5.41602 204.233 5.81445 203.647 6.61133C203.067 7.40234 202.774 8.55078 202.769 10.0566V11.1025C202.769 12.5381 203.097 13.6807 203.753 14.5303C204.409 15.374 205.297 15.7959 206.416 15.7959C207.049 15.7959 207.603 15.7256 208.077 15.585C208.552 15.4443 208.944 15.207 209.255 14.873V11.999H206.293V10.6279H210.934V15.3213ZM219.371 17C219.277 16.8125 219.201 16.4785 219.143 15.998C218.387 16.7832 217.484 17.1758 216.436 17.1758C215.498 17.1758 214.728 16.9121 214.124 16.3848C213.526 15.8516 213.228 15.1777 213.228 14.3633C213.228 13.373 213.603 12.6055 214.353 12.0605C215.108 11.5098 216.169 11.2344 217.534 11.2344H219.116V10.4873C219.116 9.91895 218.946 9.46777 218.606 9.13379C218.267 8.79395 217.766 8.62402 217.104 8.62402C216.523 8.62402 216.037 8.77051 215.645 9.06348C215.252 9.35645 215.056 9.71094 215.056 10.127H213.421C213.421 9.65234 213.588 9.19531 213.922 8.75586C214.262 8.31055 214.719 7.95898 215.293 7.70117C215.873 7.44336 216.509 7.31445 217.2 7.31445C218.296 7.31445 219.154 7.58984 219.775 8.14062C220.396 8.68555 220.719 9.43848 220.742 10.3994V14.7764C220.742 15.6494 220.854 16.3438 221.076 16.8594V17H219.371ZM216.673 15.7607C217.183 15.7607 217.666 15.6289 218.123 15.3652C218.58 15.1016 218.911 14.7588 219.116 14.3369V12.3857H217.842C215.85 12.3857 214.854 12.9688 214.854 14.1348C214.854 14.6445 215.023 15.043 215.363 15.3301C215.703 15.6172 216.14 15.7607 216.673 15.7607ZM224.82 7.49023L224.864 8.54492C225.562 7.72461 226.502 7.31445 227.686 7.31445C229.016 7.31445 229.921 7.82422 230.401 8.84375C230.718 8.38672 231.128 8.01758 231.632 7.73633C232.142 7.45508 232.742 7.31445 233.434 7.31445C235.52 7.31445 236.58 8.41895 236.615 10.6279V17H234.989V10.7246C234.989 10.0449 234.834 9.53809 234.523 9.2041C234.213 8.86426 233.691 8.69434 232.959 8.69434C232.355 8.69434 231.854 8.87598 231.456 9.23926C231.058 9.59668 230.826 10.0801 230.762 10.6895V17H229.127V10.7686C229.127 9.38574 228.45 8.69434 227.097 8.69434C226.03 8.69434 225.301 9.14844 224.908 10.0566V17H223.282V7.49023H224.82ZM243.022 17.1758C241.733 17.1758 240.685 16.7539 239.876 15.9102C239.067 15.0605 238.663 13.9268 238.663 12.5088V12.21C238.663 11.2666 238.842 10.4258 239.199 9.6875C239.562 8.94336 240.066 8.36328 240.711 7.94727C241.361 7.52539 242.064 7.31445 242.82 7.31445C244.057 7.31445 245.018 7.72168 245.703 8.53613C246.389 9.35059 246.731 10.5166 246.731 12.0342V12.7109H240.289C240.312 13.6484 240.585 14.4072 241.106 14.9873C241.634 15.5615 242.302 15.8486 243.11 15.8486C243.685 15.8486 244.171 15.7314 244.569 15.4971C244.968 15.2627 245.316 14.9521 245.615 14.5654L246.608 15.3389C245.812 16.5635 244.616 17.1758 243.022 17.1758ZM242.82 8.65039C242.164 8.65039 241.613 8.89062 241.168 9.37109C240.723 9.8457 240.447 10.5137 240.342 11.375H245.105V11.252C245.059 10.4258 244.836 9.78711 244.438 9.33594C244.039 8.87891 243.5 8.65039 242.82 8.65039ZM254.158 14.4775C254.158 14.0381 253.991 13.6982 253.657 13.458C253.329 13.2119 252.752 13.001 251.926 12.8252C251.105 12.6494 250.452 12.4385 249.966 12.1924C249.485 11.9463 249.128 11.6533 248.894 11.3135C248.665 10.9736 248.551 10.5693 248.551 10.1006C248.551 9.32129 248.879 8.66211 249.535 8.12305C250.197 7.58398 251.041 7.31445 252.066 7.31445C253.145 7.31445 254.018 7.59277 254.686 8.14941C255.359 8.70605 255.696 9.41797 255.696 10.2852H254.062C254.062 9.83984 253.871 9.45605 253.49 9.13379C253.115 8.81152 252.641 8.65039 252.066 8.65039C251.475 8.65039 251.012 8.7793 250.678 9.03711C250.344 9.29492 250.177 9.63184 250.177 10.0479C250.177 10.4404 250.332 10.7363 250.643 10.9355C250.953 11.1348 251.513 11.3252 252.321 11.5068C253.136 11.6885 253.795 11.9053 254.299 12.1572C254.803 12.4092 255.175 12.7139 255.415 13.0713C255.661 13.4229 255.784 13.8535 255.784 14.3633C255.784 15.2129 255.444 15.8955 254.765 16.4111C254.085 16.9209 253.203 17.1758 252.119 17.1758C251.357 17.1758 250.684 17.041 250.098 16.7715C249.512 16.502 249.052 16.127 248.718 15.6465C248.39 15.1602 248.226 14.6357 248.226 14.0732H249.852C249.881 14.6182 250.098 15.0518 250.502 15.374C250.912 15.6904 251.451 15.8486 252.119 15.8486C252.734 15.8486 253.227 15.7256 253.596 15.4795C253.971 15.2275 254.158 14.8936 254.158 14.4775Z" fill="white" fill-opacity="0.8"/>
<path d="M111.327 5.5918H107.214V17H105.535V5.5918H101.431V4.20312H111.327V5.5918ZM116.899 8.94922C116.653 8.9082 116.387 8.8877 116.1 8.8877C115.033 8.8877 114.31 9.3418 113.929 10.25V17H112.303V7.49023H113.885L113.911 8.58887C114.444 7.73926 115.2 7.31445 116.179 7.31445C116.495 7.31445 116.735 7.35547 116.899 7.4375V8.94922ZM123.922 17C123.828 16.8125 123.752 16.4785 123.693 15.998C122.938 16.7832 122.035 17.1758 120.986 17.1758C120.049 17.1758 119.278 16.9121 118.675 16.3848C118.077 15.8516 117.778 15.1777 117.778 14.3633C117.778 13.373 118.153 12.6055 118.903 12.0605C119.659 11.5098 120.72 11.2344 122.085 11.2344H123.667V10.4873C123.667 9.91895 123.497 9.46777 123.157 9.13379C122.817 8.79395 122.316 8.62402 121.654 8.62402C121.074 8.62402 120.588 8.77051 120.195 9.06348C119.803 9.35645 119.606 9.71094 119.606 10.127H117.972C117.972 9.65234 118.139 9.19531 118.473 8.75586C118.812 8.31055 119.27 7.95898 119.844 7.70117C120.424 7.44336 121.06 7.31445 121.751 7.31445C122.847 7.31445 123.705 7.58984 124.326 8.14062C124.947 8.68555 125.27 9.43848 125.293 10.3994V14.7764C125.293 15.6494 125.404 16.3438 125.627 16.8594V17H123.922ZM121.224 15.7607C121.733 15.7607 122.217 15.6289 122.674 15.3652C123.131 15.1016 123.462 14.7588 123.667 14.3369V12.3857H122.393C120.4 12.3857 119.404 12.9688 119.404 14.1348C119.404 14.6445 119.574 15.043 119.914 15.3301C120.254 15.6172 120.69 15.7607 121.224 15.7607ZM129.608 17H127.982V3.5H129.608V17ZM136.165 17.1758C134.876 17.1758 133.827 16.7539 133.019 15.9102C132.21 15.0605 131.806 13.9268 131.806 12.5088V12.21C131.806 11.2666 131.984 10.4258 132.342 9.6875C132.705 8.94336 133.209 8.36328 133.854 7.94727C134.504 7.52539 135.207 7.31445 135.963 7.31445C137.199 7.31445 138.16 7.72168 138.846 8.53613C139.531 9.35059 139.874 10.5166 139.874 12.0342V12.7109H133.432C133.455 13.6484 133.728 14.4072 134.249 14.9873C134.776 15.5615 135.444 15.8486 136.253 15.8486C136.827 15.8486 137.313 15.7314 137.712 15.4971C138.11 15.2627 138.459 14.9521 138.758 14.5654L139.751 15.3389C138.954 16.5635 137.759 17.1758 136.165 17.1758ZM135.963 8.65039C135.307 8.65039 134.756 8.89062 134.311 9.37109C133.865 9.8457 133.59 10.5137 133.484 11.375H138.248V11.252C138.201 10.4258 137.979 9.78711 137.58 9.33594C137.182 8.87891 136.643 8.65039 135.963 8.65039ZM146.36 8.94922C146.114 8.9082 145.848 8.8877 145.561 8.8877C144.494 8.8877 143.771 9.3418 143.39 10.25V17H141.764V7.49023H143.346L143.372 8.58887C143.905 7.73926 144.661 7.31445 145.64 7.31445C145.956 7.31445 146.196 7.35547 146.36 7.4375V8.94922Z" fill="white" fill-opacity="0.8"/>
<path d="M8.55176 13.6602H3.19043L1.98633 17H0.246094L5.13281 4.20312H6.60938L11.5049 17H9.77344L8.55176 13.6602ZM3.7002 12.2715H8.05078L5.87109 6.28613L3.7002 12.2715ZM21.0234 12.3506C21.0234 13.8037 20.6895 14.9727 20.0215 15.8574C19.3535 16.7363 18.457 17.1758 17.332 17.1758C16.1309 17.1758 15.2021 16.751 14.5459 15.9014L14.4668 17H12.9727V3.5H14.5986V8.53613C15.2549 7.72168 16.1602 7.31445 17.3145 7.31445C18.4688 7.31445 19.374 7.75098 20.0303 8.62402C20.6924 9.49707 21.0234 10.6924 21.0234 12.21V12.3506ZM19.3975 12.166C19.3975 11.0586 19.1836 10.2031 18.7559 9.59961C18.3281 8.99609 17.7129 8.69434 16.9102 8.69434C15.8379 8.69434 15.0674 9.19238 14.5986 10.1885V14.3018C15.0967 15.2979 15.873 15.7959 16.9277 15.7959C17.707 15.7959 18.3135 15.4941 18.7471 14.8906C19.1807 14.2871 19.3975 13.3789 19.3975 12.166ZM22.6494 12.1572C22.6494 11.2256 22.8311 10.3877 23.1943 9.64355C23.5635 8.89941 24.0732 8.3252 24.7236 7.9209C25.3799 7.5166 26.127 7.31445 26.9648 7.31445C28.2598 7.31445 29.3057 7.7627 30.1025 8.65918C30.9053 9.55566 31.3066 10.748 31.3066 12.2363V12.3506C31.3066 13.2764 31.1279 14.1084 30.7705 14.8467C30.4189 15.5791 29.9121 16.1504 29.25 16.5605C28.5938 16.9707 27.8379 17.1758 26.9824 17.1758C25.6934 17.1758 24.6475 16.7275 23.8447 15.8311C23.0479 14.9346 22.6494 13.748 22.6494 12.2715V12.1572ZM24.2842 12.3506C24.2842 13.4053 24.5273 14.252 25.0137 14.8906C25.5059 15.5293 26.1621 15.8486 26.9824 15.8486C27.8086 15.8486 28.4648 15.5264 28.9512 14.8818C29.4375 14.2314 29.6807 13.3232 29.6807 12.1572C29.6807 11.1143 29.4316 10.2705 28.9336 9.62598C28.4414 8.97559 27.7852 8.65039 26.9648 8.65039C26.1621 8.65039 25.5146 8.96973 25.0225 9.6084C24.5303 10.2471 24.2842 11.1611 24.2842 12.3506ZM39.2168 16.0596C38.584 16.8037 37.6553 17.1758 36.4307 17.1758C35.417 17.1758 34.6436 16.8828 34.1104 16.2969C33.583 15.7051 33.3164 14.832 33.3105 13.6777V7.49023H34.9365V13.6338C34.9365 15.0752 35.5225 15.7959 36.6943 15.7959C37.9365 15.7959 38.7627 15.333 39.1729 14.4072V7.49023H40.7988V17H39.252L39.2168 16.0596ZM45.4834 5.1875V7.49023H47.2588V8.74707H45.4834V14.6445C45.4834 15.0254 45.5625 15.3125 45.7207 15.5059C45.8789 15.6934 46.1484 15.7871 46.5293 15.7871C46.7168 15.7871 46.9746 15.752 47.3027 15.6816V17C46.875 17.1172 46.459 17.1758 46.0547 17.1758C45.3281 17.1758 44.7803 16.9561 44.4111 16.5166C44.042 16.0771 43.8574 15.4531 43.8574 14.6445V8.74707H42.126V7.49023H43.8574V5.1875H45.4834Z" fill="white" fill-opacity="0.8"/>
</svg>
