<svg width="234" height="23" viewBox="0 0 234 23" fill="none" xmlns="http://www.w3.org/2000/svg">
<path d="M115.448 17H107.063V15.8311L111.493 10.9092C112.149 10.165 112.601 9.56152 112.847 9.09863C113.099 8.62988 113.225 8.14648 113.225 7.64844C113.225 6.98047 113.022 6.43262 112.618 6.00488C112.214 5.57715 111.675 5.36328 111.001 5.36328C110.192 5.36328 109.562 5.59473 109.111 6.05762C108.666 6.51465 108.443 7.15332 108.443 7.97363H106.817C106.817 6.7959 107.195 5.84375 107.951 5.11719C108.713 4.39062 109.729 4.02734 111.001 4.02734C112.19 4.02734 113.131 4.34082 113.822 4.96777C114.514 5.58887 114.859 6.41797 114.859 7.45508C114.859 8.71484 114.057 10.2148 112.451 11.9551L109.023 15.6729H115.448V17ZM125.195 11.542C125.195 13.4463 124.87 14.8613 124.22 15.7871C123.569 16.7129 122.553 17.1758 121.17 17.1758C119.805 17.1758 118.794 16.7246 118.138 15.8223C117.481 14.9141 117.142 13.5605 117.118 11.7617V9.59082C117.118 7.70996 117.443 6.3125 118.094 5.39844C118.744 4.48438 119.764 4.02734 121.152 4.02734C122.529 4.02734 123.543 4.46973 124.193 5.35449C124.844 6.2334 125.178 7.59277 125.195 9.43262V11.542ZM123.569 9.31836C123.569 7.94141 123.376 6.93945 122.989 6.3125C122.603 5.67969 121.99 5.36328 121.152 5.36328C120.32 5.36328 119.714 5.67676 119.333 6.30371C118.952 6.93066 118.756 7.89453 118.744 9.19531V11.7969C118.744 13.1797 118.943 14.2021 119.342 14.8643C119.746 15.5205 120.355 15.8486 121.17 15.8486C121.973 15.8486 122.567 15.5381 122.954 14.917C123.347 14.2959 123.552 13.3174 123.569 11.9814V9.31836ZM135.663 17H127.278V15.8311L131.708 10.9092C132.364 10.165 132.815 9.56152 133.062 9.09863C133.313 8.62988 133.439 8.14648 133.439 7.64844C133.439 6.98047 133.237 6.43262 132.833 6.00488C132.429 5.57715 131.89 5.36328 131.216 5.36328C130.407 5.36328 129.777 5.59473 129.326 6.05762C128.881 6.51465 128.658 7.15332 128.658 7.97363H127.032C127.032 6.7959 127.41 5.84375 128.166 5.11719C128.928 4.39062 129.944 4.02734 131.216 4.02734C132.405 4.02734 133.346 4.34082 134.037 4.96777C134.729 5.58887 135.074 6.41797 135.074 7.45508C135.074 8.71484 134.271 10.2148 132.666 11.9551L129.238 15.6729H135.663V17ZM142.729 17H141.095V6.16309L137.816 7.36719V5.89062L142.475 4.1416H142.729V17Z" fill="white" fill-opacity="0.8"/>
<path d="M5.25586 11.2959C3.80859 10.8799 2.75391 10.3701 2.0918 9.7666C1.43555 9.15723 1.10742 8.40723 1.10742 7.5166C1.10742 6.50879 1.50879 5.67676 2.31152 5.02051C3.12012 4.3584 4.16895 4.02734 5.45801 4.02734C6.33691 4.02734 7.11914 4.19727 7.80469 4.53711C8.49609 4.87695 9.0293 5.3457 9.4043 5.94336C9.78516 6.54102 9.97559 7.19434 9.97559 7.90332H8.2793C8.2793 7.12988 8.0332 6.52344 7.54102 6.08398C7.04883 5.63867 6.35449 5.41602 5.45801 5.41602C4.62598 5.41602 3.97559 5.60059 3.50684 5.96973C3.04395 6.33301 2.8125 6.83984 2.8125 7.49023C2.8125 8.01172 3.03223 8.4541 3.47168 8.81738C3.91699 9.1748 4.66992 9.50293 5.73047 9.80176C6.79688 10.1006 7.62891 10.4316 8.22656 10.7949C8.83008 11.1523 9.27539 11.5713 9.5625 12.0518C9.85547 12.5322 10.002 13.0977 10.002 13.748C10.002 14.7852 9.59766 15.6172 8.78906 16.2441C7.98047 16.8652 6.89941 17.1758 5.5459 17.1758C4.66699 17.1758 3.84668 17.0088 3.08496 16.6748C2.32324 16.335 1.73438 15.8721 1.31836 15.2861C0.908203 14.7002 0.703125 14.0352 0.703125 13.291H2.39941C2.39941 14.0645 2.68359 14.6768 3.25195 15.1279C3.82617 15.5732 4.59082 15.7959 5.5459 15.7959C6.43652 15.7959 7.11914 15.6143 7.59375 15.251C8.06836 14.8877 8.30566 14.3926 8.30566 13.7656C8.30566 13.1387 8.08594 12.6553 7.64648 12.3154C7.20703 11.9697 6.41016 11.6299 5.25586 11.2959ZM15.8643 17.1758C14.5752 17.1758 13.5264 16.7539 12.7178 15.9102C11.9092 15.0605 11.5049 13.9268 11.5049 12.5088V12.21C11.5049 11.2666 11.6836 10.4258 12.041 9.6875C12.4043 8.94336 12.9082 8.36328 13.5527 7.94727C14.2031 7.52539 14.9062 7.31445 15.6621 7.31445C16.8984 7.31445 17.8594 7.72168 18.5449 8.53613C19.2305 9.35059 19.5732 10.5166 19.5732 12.0342V12.7109H13.1309C13.1543 13.6484 13.4268 14.4072 13.9482 14.9873C14.4756 15.5615 15.1436 15.8486 15.9521 15.8486C16.5264 15.8486 17.0127 15.7314 17.4111 15.4971C17.8096 15.2627 18.1582 14.9521 18.457 14.5654L19.4502 15.3389C18.6533 16.5635 17.458 17.1758 15.8643 17.1758ZM15.6621 8.65039C15.0059 8.65039 14.4551 8.89062 14.0098 9.37109C13.5645 9.8457 13.2891 10.5137 13.1836 11.375H17.9473V11.252C17.9004 10.4258 17.6777 9.78711 17.2793 9.33594C16.8809 8.87891 16.3418 8.65039 15.6621 8.65039ZM27 14.4775C27 14.0381 26.833 13.6982 26.499 13.458C26.1709 13.2119 25.5938 13.001 24.7676 12.8252C23.9473 12.6494 23.2939 12.4385 22.8076 12.1924C22.3271 11.9463 21.9697 11.6533 21.7354 11.3135C21.5068 10.9736 21.3926 10.5693 21.3926 10.1006C21.3926 9.32129 21.7207 8.66211 22.377 8.12305C23.0391 7.58398 23.8828 7.31445 24.9082 7.31445C25.9863 7.31445 26.8594 7.59277 27.5273 8.14941C28.2012 8.70605 28.5381 9.41797 28.5381 10.2852H26.9033C26.9033 9.83984 26.7129 9.45605 26.332 9.13379C25.957 8.81152 25.4824 8.65039 24.9082 8.65039C24.3164 8.65039 23.8535 8.7793 23.5195 9.03711C23.1855 9.29492 23.0186 9.63184 23.0186 10.0479C23.0186 10.4404 23.1738 10.7363 23.4844 10.9355C23.7949 11.1348 24.3545 11.3252 25.1631 11.5068C25.9775 11.6885 26.6367 11.9053 27.1406 12.1572C27.6445 12.4092 28.0166 12.7139 28.2568 13.0713C28.5029 13.4229 28.626 13.8535 28.626 14.3633C28.626 15.2129 28.2861 15.8955 27.6064 16.4111C26.9268 16.9209 26.0449 17.1758 24.9609 17.1758C24.1992 17.1758 23.5254 17.041 22.9395 16.7715C22.3535 16.502 21.8936 16.127 21.5596 15.6465C21.2314 15.1602 21.0674 14.6357 21.0674 14.0732H22.6934C22.7227 14.6182 22.9395 15.0518 23.3438 15.374C23.7539 15.6904 24.293 15.8486 24.9609 15.8486C25.5762 15.8486 26.0684 15.7256 26.4375 15.4795C26.8125 15.2275 27 14.8936 27 14.4775ZM36.2812 14.4775C36.2812 14.0381 36.1143 13.6982 35.7803 13.458C35.4521 13.2119 34.875 13.001 34.0488 12.8252C33.2285 12.6494 32.5752 12.4385 32.0889 12.1924C31.6084 11.9463 31.251 11.6533 31.0166 11.3135C30.7881 10.9736 30.6738 10.5693 30.6738 10.1006C30.6738 9.32129 31.002 8.66211 31.6582 8.12305C32.3203 7.58398 33.1641 7.31445 34.1895 7.31445C35.2676 7.31445 36.1406 7.59277 36.8086 8.14941C37.4824 8.70605 37.8193 9.41797 37.8193 10.2852H36.1846C36.1846 9.83984 35.9941 9.45605 35.6133 9.13379C35.2383 8.81152 34.7637 8.65039 34.1895 8.65039C33.5977 8.65039 33.1348 8.7793 32.8008 9.03711C32.4668 9.29492 32.2998 9.63184 32.2998 10.0479C32.2998 10.4404 32.4551 10.7363 32.7656 10.9355C33.0762 11.1348 33.6357 11.3252 34.4443 11.5068C35.2588 11.6885 35.918 11.9053 36.4219 12.1572C36.9258 12.4092 37.2979 12.7139 37.5381 13.0713C37.7842 13.4229 37.9072 13.8535 37.9072 14.3633C37.9072 15.2129 37.5674 15.8955 36.8877 16.4111C36.208 16.9209 35.3262 17.1758 34.2422 17.1758C33.4805 17.1758 32.8066 17.041 32.2207 16.7715C31.6348 16.502 31.1748 16.127 30.8408 15.6465C30.5127 15.1602 30.3486 14.6357 30.3486 14.0732H31.9746C32.0039 14.6182 32.2207 15.0518 32.625 15.374C33.0352 15.6904 33.5742 15.8486 34.2422 15.8486C34.8574 15.8486 35.3496 15.7256 35.7188 15.4795C36.0938 15.2275 36.2812 14.8936 36.2812 14.4775ZM41.792 17H40.166V7.49023H41.792V17ZM40.0342 4.96777C40.0342 4.7041 40.1133 4.48145 40.2715 4.2998C40.4355 4.11816 40.6758 4.02734 40.9922 4.02734C41.3086 4.02734 41.5488 4.11816 41.7129 4.2998C41.877 4.48145 41.959 4.7041 41.959 4.96777C41.959 5.23145 41.877 5.45117 41.7129 5.62695C41.5488 5.80273 41.3086 5.89062 40.9922 5.89062C40.6758 5.89062 40.4355 5.80273 40.2715 5.62695C40.1133 5.45117 40.0342 5.23145 40.0342 4.96777ZM43.9717 12.1572C43.9717 11.2256 44.1533 10.3877 44.5166 9.64355C44.8857 8.89941 45.3955 8.3252 46.0459 7.9209C46.7021 7.5166 47.4492 7.31445 48.2871 7.31445C49.582 7.31445 50.6279 7.7627 51.4248 8.65918C52.2275 9.55566 52.6289 10.748 52.6289 12.2363V12.3506C52.6289 13.2764 52.4502 14.1084 52.0928 14.8467C51.7412 15.5791 51.2344 16.1504 50.5723 16.5605C49.916 16.9707 49.1602 17.1758 48.3047 17.1758C47.0156 17.1758 45.9697 16.7275 45.167 15.8311C44.3701 14.9346 43.9717 13.748 43.9717 12.2715V12.1572ZM45.6064 12.3506C45.6064 13.4053 45.8496 14.252 46.3359 14.8906C46.8281 15.5293 47.4844 15.8486 48.3047 15.8486C49.1309 15.8486 49.7871 15.5264 50.2734 14.8818C50.7598 14.2314 51.0029 13.3232 51.0029 12.1572C51.0029 11.1143 50.7539 10.2705 50.2559 9.62598C49.7637 8.97559 49.1074 8.65039 48.2871 8.65039C47.4844 8.65039 46.8369 8.96973 46.3447 9.6084C45.8525 10.2471 45.6064 11.1611 45.6064 12.3506ZM56.2061 7.49023L56.2588 8.68555C56.9854 7.77148 57.9346 7.31445 59.1064 7.31445C61.1162 7.31445 62.1299 8.44824 62.1475 10.7158V17H60.5215V10.707C60.5156 10.0215 60.3574 9.51465 60.0469 9.18652C59.7422 8.8584 59.2646 8.69434 58.6143 8.69434C58.0869 8.69434 57.624 8.83496 57.2256 9.11621C56.8271 9.39746 56.5166 9.7666 56.2939 10.2236V17H54.668V7.49023H56.2061ZM69.7764 17H68.1416V6.16309L64.8633 7.36719V5.89062L69.5215 4.1416H69.7764V17Z" fill="white" fill-opacity="0.8"/>
<path d="M216.295 12.375C215.955 12.7793 215.548 13.1045 215.073 13.3506C214.604 13.5967 214.089 13.7197 213.526 13.7197C212.788 13.7197 212.144 13.5381 211.593 13.1748C211.048 12.8115 210.626 12.3018 210.327 11.6455C210.028 10.9834 209.879 10.2539 209.879 9.45703C209.879 8.60156 210.04 7.83105 210.362 7.14551C210.69 6.45996 211.153 5.93555 211.751 5.57227C212.349 5.20898 213.046 5.02734 213.843 5.02734C215.108 5.02734 216.104 5.50195 216.831 6.45117C217.563 7.39453 217.93 8.68359 217.93 10.3184V10.793C217.93 13.2832 217.438 15.1025 216.453 16.251C215.469 17.3936 213.983 17.9795 211.997 18.0088H211.681V16.6377H212.023C213.365 16.6143 214.396 16.2656 215.117 15.5918C215.838 14.9121 216.23 13.8398 216.295 12.375ZM213.79 12.375C214.335 12.375 214.836 12.208 215.293 11.874C215.756 11.54 216.093 11.127 216.304 10.6348V9.98438C216.304 8.91797 216.072 8.05078 215.609 7.38281C215.146 6.71484 214.561 6.38086 213.852 6.38086C213.137 6.38086 212.562 6.65625 212.129 7.20703C211.695 7.75195 211.479 8.47266 211.479 9.36914C211.479 10.2422 211.687 10.9629 212.103 11.5312C212.524 12.0938 213.087 12.375 213.79 12.375ZM220.373 17.1475C220.373 16.8662 220.455 16.6318 220.619 16.4443C220.789 16.2568 221.041 16.1631 221.375 16.1631C221.709 16.1631 221.961 16.2568 222.131 16.4443C222.307 16.6318 222.395 16.8662 222.395 17.1475C222.395 17.417 222.307 17.6426 222.131 17.8242C221.961 18.0059 221.709 18.0967 221.375 18.0967C221.041 18.0967 220.789 18.0059 220.619 17.8242C220.455 17.6426 220.373 17.417 220.373 17.1475ZM232.678 8.54297C232.678 9.18164 232.508 9.75 232.168 10.248C231.834 10.7461 231.38 11.1357 230.806 11.417C231.474 11.7041 232.001 12.123 232.388 12.6738C232.78 13.2246 232.977 13.8486 232.977 14.5459C232.977 15.6533 232.602 16.5352 231.852 17.1914C231.107 17.8477 230.126 18.1758 228.907 18.1758C227.677 18.1758 226.689 17.8477 225.945 17.1914C225.207 16.5293 224.838 15.6475 224.838 14.5459C224.838 13.8545 225.025 13.2305 225.4 12.6738C225.781 12.1172 226.306 11.6953 226.974 11.4082C226.405 11.127 225.957 10.7373 225.629 10.2393C225.301 9.74121 225.137 9.17578 225.137 8.54297C225.137 7.46484 225.482 6.60938 226.174 5.97656C226.865 5.34375 227.776 5.02734 228.907 5.02734C230.032 5.02734 230.94 5.34375 231.632 5.97656C232.329 6.60938 232.678 7.46484 232.678 8.54297ZM231.351 14.5107C231.351 13.7959 231.122 13.2129 230.665 12.7617C230.214 12.3105 229.622 12.085 228.89 12.085C228.157 12.085 227.568 12.3076 227.123 12.7529C226.684 13.1982 226.464 13.7842 226.464 14.5107C226.464 15.2373 226.678 15.8086 227.105 16.2246C227.539 16.6406 228.14 16.8486 228.907 16.8486C229.669 16.8486 230.267 16.6406 230.7 16.2246C231.134 15.8027 231.351 15.2314 231.351 14.5107ZM228.907 6.36328C228.269 6.36328 227.75 6.5625 227.352 6.96094C226.959 7.35352 226.763 7.88965 226.763 8.56934C226.763 9.21973 226.956 9.74707 227.343 10.1514C227.735 10.5498 228.257 10.749 228.907 10.749C229.558 10.749 230.076 10.5498 230.463 10.1514C230.855 9.74707 231.052 9.21973 231.052 8.56934C231.052 7.91895 230.85 7.38867 230.445 6.97852C230.041 6.56836 229.528 6.36328 228.907 6.36328Z" fill="#FFB800" fill-opacity="0.8"/>
<path d="M199.397 7.93097L193.694 7.10216L191.145 1.9339C191.075 1.7924 190.96 1.67785 190.819 1.60822C190.464 1.43302 190.033 1.57902 189.855 1.9339L187.306 7.10216L181.603 7.93097C181.446 7.95343 181.302 8.02755 181.192 8.13986C181.059 8.27662 180.986 8.4606 180.988 8.65139C180.991 8.84218 181.069 9.02416 181.206 9.15734L185.332 13.1801L184.357 18.8605C184.334 18.9926 184.349 19.1285 184.399 19.2528C184.45 19.377 184.534 19.4846 184.642 19.5634C184.751 19.6422 184.879 19.6891 185.013 19.6986C185.147 19.7081 185.28 19.68 185.399 19.6174L190.5 16.9356L195.601 19.6174C195.74 19.6915 195.902 19.7162 196.057 19.6893C196.448 19.6219 196.71 19.2513 196.643 18.8605L195.668 13.1801L199.794 9.15734C199.907 9.04728 199.981 8.90353 200.003 8.7463C200.064 8.35324 199.79 7.98937 199.397 7.93097Z" fill="#FFB800" fill-opacity="0.8"/>
</svg>
