<svg width="360" height="74" viewBox="0 0 360 74" fill="none" xmlns="http://www.w3.org/2000/svg">
<path d="M13.8467 9.68457C13.8467 11.2171 13.5889 12.5563 13.0732 13.7021C12.5576 14.8408 11.8271 15.7109 10.8818 16.3125C9.93652 16.9141 8.83366 17.2148 7.57324 17.2148C6.34147 17.2148 5.24935 16.9141 4.29688 16.3125C3.3444 15.7038 2.60319 14.8408 2.07324 13.7236C1.55046 12.5993 1.2819 11.2995 1.26758 9.82422V8.69629C1.26758 7.19238 1.52897 5.86393 2.05176 4.71094C2.57454 3.55794 3.31217 2.67708 4.26465 2.06836C5.22428 1.45247 6.31999 1.14453 7.55176 1.14453C8.80501 1.14453 9.90788 1.44889 10.8604 2.05762C11.82 2.65918 12.5576 3.53646 13.0732 4.68945C13.5889 5.83529 13.8467 7.1709 13.8467 8.69629V9.68457ZM11.7949 8.6748C11.7949 6.81999 11.4225 5.39844 10.6777 4.41016C9.93294 3.41471 8.89095 2.91699 7.55176 2.91699C6.24837 2.91699 5.2207 3.41471 4.46875 4.41016C3.72396 5.39844 3.34082 6.77344 3.31934 8.53516V9.68457C3.31934 11.4821 3.69531 12.8965 4.44727 13.9277C5.20638 14.9518 6.24837 15.4639 7.57324 15.4639C8.90527 15.4639 9.93652 14.9805 10.667 14.0137C11.3975 13.0397 11.7734 11.6468 11.7949 9.83496V8.6748ZM18.5088 5.37695L18.5732 6.83789C19.4613 5.7207 20.6214 5.16211 22.0537 5.16211C24.5101 5.16211 25.749 6.54785 25.7705 9.31934V17H23.7832V9.30859C23.776 8.4707 23.5827 7.85124 23.2031 7.4502C22.8307 7.04915 22.2471 6.84863 21.4521 6.84863C20.8076 6.84863 20.2419 7.02051 19.7549 7.36426C19.2679 7.70801 18.8883 8.15918 18.6162 8.71777V17H16.6289V5.37695H18.5088ZM33.4297 15.5928C34.1387 15.5928 34.7581 15.3779 35.2881 14.9482C35.818 14.5186 36.1117 13.9814 36.1689 13.3369H38.0488C38.013 14.0029 37.7839 14.6367 37.3613 15.2383C36.9388 15.8398 36.373 16.3197 35.6641 16.6777C34.9622 17.0358 34.2174 17.2148 33.4297 17.2148C31.847 17.2148 30.5866 16.6885 29.6484 15.6357C28.7174 14.5758 28.252 13.1292 28.252 11.2959V10.9629C28.252 9.83138 28.4596 8.8252 28.875 7.94434C29.2904 7.06348 29.8848 6.37956 30.6582 5.89258C31.4388 5.4056 32.359 5.16211 33.4189 5.16211C34.7223 5.16211 35.8037 5.55241 36.6631 6.33301C37.5296 7.11361 37.9915 8.12695 38.0488 9.37305H36.1689C36.1117 8.62109 35.8252 8.00521 35.3096 7.52539C34.8011 7.03841 34.1709 6.79492 33.4189 6.79492C32.4092 6.79492 31.625 7.16016 31.0664 7.89062C30.515 8.61393 30.2393 9.66309 30.2393 11.0381V11.4141C30.2393 12.7533 30.515 13.7845 31.0664 14.5078C31.6178 15.2311 32.4056 15.5928 33.4297 15.5928ZM45.1064 17.2148C43.5309 17.2148 42.249 16.6992 41.2607 15.668C40.2725 14.6296 39.7783 13.2438 39.7783 11.5107V11.1455C39.7783 9.99251 39.9967 8.96484 40.4336 8.0625C40.8776 7.15299 41.4935 6.44401 42.2812 5.93555C43.0762 5.41992 43.9355 5.16211 44.8594 5.16211C46.3704 5.16211 47.5449 5.65983 48.3828 6.65527C49.2207 7.65072 49.6396 9.07585 49.6396 10.9307V11.7578H41.7656C41.7943 12.9036 42.1273 13.8311 42.7646 14.54C43.4092 15.2419 44.2256 15.5928 45.2139 15.5928C45.9157 15.5928 46.5101 15.4495 46.9971 15.1631C47.484 14.8766 47.9102 14.4971 48.2754 14.0244L49.4893 14.9697C48.5153 16.4665 47.0544 17.2148 45.1064 17.2148ZM44.8594 6.79492C44.0573 6.79492 43.3841 7.08854 42.8398 7.67578C42.2956 8.25586 41.959 9.07227 41.8301 10.125H47.6523V9.97461C47.5951 8.96484 47.3229 8.18424 46.8359 7.63281C46.349 7.07422 45.6901 6.79492 44.8594 6.79492ZM61.209 14.0889L63.916 5.37695H66.043L61.3701 18.7939C60.6468 20.7275 59.4974 21.6943 57.9219 21.6943L57.5459 21.6621L56.8047 21.5225V19.9111L57.3418 19.9541C58.015 19.9541 58.5378 19.818 58.9102 19.5459C59.2897 19.2738 59.6012 18.776 59.8447 18.0527L60.2852 16.8711L56.1387 5.37695H58.3086L61.209 14.0889ZM67.1279 11.0811C67.1279 9.94238 67.3499 8.91829 67.7939 8.00879C68.2451 7.09928 68.8682 6.39746 69.6631 5.90332C70.4652 5.40918 71.3783 5.16211 72.4023 5.16211C73.985 5.16211 75.2633 5.70996 76.2373 6.80566C77.2184 7.90137 77.709 9.35872 77.709 11.1777V11.3174C77.709 12.4489 77.4906 13.4658 77.0537 14.3682C76.624 15.2633 76.0046 15.9616 75.1953 16.4629C74.3932 16.9642 73.4694 17.2148 72.4238 17.2148C70.8483 17.2148 69.57 16.667 68.5889 15.5713C67.6149 14.4756 67.1279 13.0254 67.1279 11.2207V11.0811ZM69.126 11.3174C69.126 12.6064 69.4232 13.6413 70.0176 14.4219C70.6191 15.2025 71.4212 15.5928 72.4238 15.5928C73.4336 15.5928 74.2357 15.1989 74.8301 14.4111C75.4245 13.6162 75.7217 12.5062 75.7217 11.0811C75.7217 9.80632 75.4173 8.77507 74.8086 7.9873C74.207 7.19238 73.4049 6.79492 72.4023 6.79492C71.4212 6.79492 70.6299 7.18522 70.0283 7.96582C69.4268 8.74642 69.126 9.86361 69.126 11.3174ZM87.377 15.8506C86.6035 16.7601 85.4684 17.2148 83.9717 17.2148C82.7327 17.2148 81.7874 16.8568 81.1357 16.1406C80.4912 15.4173 80.1654 14.3503 80.1582 12.9395V5.37695H82.1455V12.8857C82.1455 14.6475 82.8617 15.5283 84.2939 15.5283C85.8122 15.5283 86.8219 14.9626 87.3232 13.8311V5.37695H89.3105V17H87.4199L87.377 15.8506ZM104.564 13.917C104.564 13.3799 104.36 12.9645 103.952 12.6709C103.551 12.3701 102.846 12.1123 101.836 11.8975C100.833 11.6826 100.035 11.4248 99.4404 11.124C98.8532 10.8232 98.4163 10.4652 98.1299 10.0498C97.8506 9.63444 97.7109 9.1403 97.7109 8.56738C97.7109 7.61491 98.112 6.80924 98.9141 6.15039C99.7233 5.49154 100.755 5.16211 102.008 5.16211C103.326 5.16211 104.393 5.50228 105.209 6.18262C106.033 6.86296 106.444 7.73307 106.444 8.79297H104.446C104.446 8.2487 104.214 7.77962 103.748 7.38574C103.29 6.99186 102.71 6.79492 102.008 6.79492C101.285 6.79492 100.719 6.95247 100.311 7.26758C99.9023 7.58268 99.6982 7.99447 99.6982 8.50293C99.6982 8.98275 99.888 9.3444 100.268 9.58789C100.647 9.83138 101.331 10.0641 102.319 10.2861C103.315 10.5081 104.12 10.7731 104.736 11.0811C105.352 11.389 105.807 11.7614 106.101 12.1982C106.401 12.6279 106.552 13.1543 106.552 13.7773C106.552 14.8158 106.136 15.6501 105.306 16.2803C104.475 16.9033 103.397 17.2148 102.072 17.2148C101.141 17.2148 100.318 17.0501 99.6016 16.7207C98.8854 16.3913 98.3232 15.9329 97.915 15.3457C97.514 14.7513 97.3135 14.1104 97.3135 13.4229H99.3008C99.3366 14.0889 99.6016 14.6188 100.096 15.0127C100.597 15.3994 101.256 15.5928 102.072 15.5928C102.824 15.5928 103.426 15.4424 103.877 15.1416C104.335 14.8337 104.564 14.4255 104.564 13.917ZM111.837 2.5625V5.37695H114.007V6.91309H111.837V14.1211C111.837 14.5866 111.934 14.9375 112.127 15.1738C112.32 15.403 112.65 15.5176 113.115 15.5176C113.344 15.5176 113.66 15.4746 114.061 15.3887V17C113.538 17.1432 113.029 17.2148 112.535 17.2148C111.647 17.2148 110.978 16.9463 110.526 16.4092C110.075 15.8721 109.85 15.1094 109.85 14.1211V6.91309H107.733V5.37695H109.85V2.5625H111.837ZM123.514 17C123.399 16.7708 123.306 16.3626 123.234 15.7754C122.311 16.735 121.208 17.2148 119.926 17.2148C118.78 17.2148 117.838 16.8926 117.101 16.248C116.37 15.5964 116.005 14.7728 116.005 13.7773C116.005 12.5671 116.463 11.6289 117.38 10.9629C118.304 10.2897 119.6 9.95312 121.269 9.95312H123.202V9.04004C123.202 8.34538 122.994 7.79395 122.579 7.38574C122.164 6.97038 121.551 6.7627 120.742 6.7627C120.033 6.7627 119.439 6.94173 118.959 7.2998C118.479 7.65788 118.239 8.09115 118.239 8.59961H116.241C116.241 8.01953 116.445 7.46094 116.854 6.92383C117.269 6.37956 117.827 5.94987 118.529 5.63477C119.238 5.31966 120.015 5.16211 120.86 5.16211C122.2 5.16211 123.249 5.4987 124.008 6.17188C124.767 6.83789 125.161 7.75814 125.189 8.93262V14.2822C125.189 15.3493 125.326 16.1979 125.598 16.8281V17H123.514ZM120.216 15.4854C120.839 15.4854 121.43 15.3242 121.988 15.002C122.547 14.6797 122.951 14.2607 123.202 13.7451V11.3604H121.645C119.21 11.3604 117.992 12.0729 117.992 13.498C117.992 14.1211 118.2 14.6081 118.615 14.959C119.031 15.3099 119.564 15.4854 120.216 15.4854ZM133.923 7.16016C133.622 7.11003 133.296 7.08496 132.945 7.08496C131.642 7.08496 130.757 7.63997 130.292 8.75V17H128.305V5.37695H130.238L130.271 6.71973C130.922 5.68132 131.846 5.16211 133.042 5.16211C133.429 5.16211 133.722 5.21224 133.923 5.3125V7.16016ZM138.993 2.5625V5.37695H141.163V6.91309H138.993V14.1211C138.993 14.5866 139.09 14.9375 139.283 15.1738C139.477 15.403 139.806 15.5176 140.271 15.5176C140.501 15.5176 140.816 15.4746 141.217 15.3887V17C140.694 17.1432 140.186 17.2148 139.691 17.2148C138.803 17.2148 138.134 16.9463 137.683 16.4092C137.231 15.8721 137.006 15.1094 137.006 14.1211V6.91309H134.89V5.37695H137.006V2.5625H138.993ZM151.647 2.5625V5.37695H153.817V6.91309H151.647V14.1211C151.647 14.5866 151.744 14.9375 151.938 15.1738C152.131 15.403 152.46 15.5176 152.926 15.5176C153.155 15.5176 153.47 15.4746 153.871 15.3887V17C153.348 17.1432 152.84 17.2148 152.346 17.2148C151.458 17.2148 150.788 16.9463 150.337 16.4092C149.886 15.8721 149.66 15.1094 149.66 14.1211V6.91309H147.544V5.37695H149.66V2.5625H151.647ZM158.136 6.78418C159.017 5.7028 160.162 5.16211 161.573 5.16211C164.03 5.16211 165.269 6.54785 165.29 9.31934V17H163.303V9.30859C163.296 8.4707 163.102 7.85124 162.723 7.4502C162.35 7.04915 161.767 6.84863 160.972 6.84863C160.327 6.84863 159.761 7.02051 159.274 7.36426C158.787 7.70801 158.408 8.15918 158.136 8.71777V17H156.148V0.5H158.136V6.78418ZM173.089 17.2148C171.513 17.2148 170.231 16.6992 169.243 15.668C168.255 14.6296 167.761 13.2438 167.761 11.5107V11.1455C167.761 9.99251 167.979 8.96484 168.416 8.0625C168.86 7.15299 169.476 6.44401 170.264 5.93555C171.059 5.41992 171.918 5.16211 172.842 5.16211C174.353 5.16211 175.527 5.65983 176.365 6.65527C177.203 7.65072 177.622 9.07585 177.622 10.9307V11.7578H169.748C169.777 12.9036 170.11 13.8311 170.747 14.54C171.392 15.2419 172.208 15.5928 173.196 15.5928C173.898 15.5928 174.493 15.4495 174.979 15.1631C175.466 14.8766 175.893 14.4971 176.258 14.0244L177.472 14.9697C176.498 16.4665 175.037 17.2148 173.089 17.2148ZM172.842 6.79492C172.04 6.79492 171.367 7.08854 170.822 7.67578C170.278 8.25586 169.941 9.07227 169.812 10.125H175.635V9.97461C175.577 8.96484 175.305 8.18424 174.818 7.63281C174.331 7.07422 173.673 6.79492 172.842 6.79492ZM184.916 11.0918C184.916 9.27995 185.335 7.84049 186.173 6.77344C187.011 5.69922 188.121 5.16211 189.503 5.16211C190.921 5.16211 192.027 5.66341 192.822 6.66602L192.919 5.37695H194.734V16.7207C194.734 18.2246 194.287 19.4098 193.392 20.2764C192.504 21.1429 191.308 21.5762 189.804 21.5762C188.966 21.5762 188.146 21.3971 187.344 21.0391C186.542 20.681 185.929 20.1904 185.507 19.5674L186.538 18.375C187.39 19.4277 188.432 19.9541 189.664 19.9541C190.631 19.9541 191.383 19.682 191.92 19.1377C192.464 18.5934 192.736 17.8271 192.736 16.8389V15.8398C191.941 16.7565 190.856 17.2148 189.481 17.2148C188.121 17.2148 187.018 16.667 186.173 15.5713C185.335 14.4756 184.916 12.9824 184.916 11.0918ZM186.914 11.3174C186.914 12.6279 187.183 13.6592 187.72 14.4111C188.257 15.1559 189.009 15.5283 189.976 15.5283C191.229 15.5283 192.149 14.959 192.736 13.8203V8.51367C192.128 7.40365 191.215 6.84863 189.997 6.84863C189.03 6.84863 188.275 7.22461 187.73 7.97656C187.186 8.72852 186.914 9.84212 186.914 11.3174ZM204.918 17C204.803 16.7708 204.71 16.3626 204.639 15.7754C203.715 16.735 202.612 17.2148 201.33 17.2148C200.184 17.2148 199.243 16.8926 198.505 16.248C197.774 15.5964 197.409 14.7728 197.409 13.7773C197.409 12.5671 197.868 11.6289 198.784 10.9629C199.708 10.2897 201.004 9.95312 202.673 9.95312H204.606V9.04004C204.606 8.34538 204.399 7.79395 203.983 7.38574C203.568 6.97038 202.956 6.7627 202.146 6.7627C201.438 6.7627 200.843 6.94173 200.363 7.2998C199.883 7.65788 199.644 8.09115 199.644 8.59961H197.646C197.646 8.01953 197.85 7.46094 198.258 6.92383C198.673 6.37956 199.232 5.94987 199.934 5.63477C200.643 5.31966 201.42 5.16211 202.265 5.16211C203.604 5.16211 204.653 5.4987 205.412 6.17188C206.171 6.83789 206.565 7.75814 206.594 8.93262V14.2822C206.594 15.3493 206.73 16.1979 207.002 16.8281V17H204.918ZM201.62 15.4854C202.243 15.4854 202.834 15.3242 203.393 15.002C203.951 14.6797 204.356 14.2607 204.606 13.7451V11.3604H203.049C200.614 11.3604 199.396 12.0729 199.396 13.498C199.396 14.1211 199.604 14.6081 200.02 14.959C200.435 15.3099 200.968 15.4854 201.62 15.4854ZM211.578 5.37695L211.632 6.66602C212.484 5.66341 213.633 5.16211 215.08 5.16211C216.706 5.16211 217.812 5.78516 218.399 7.03125C218.786 6.47266 219.287 6.02148 219.903 5.67773C220.526 5.33398 221.26 5.16211 222.105 5.16211C224.655 5.16211 225.951 6.51204 225.994 9.21191V17H224.007V9.33008C224.007 8.49935 223.817 7.87988 223.438 7.47168C223.058 7.05632 222.421 6.84863 221.525 6.84863C220.788 6.84863 220.175 7.07064 219.688 7.51465C219.201 7.9515 218.919 8.54232 218.84 9.28711V17H216.842V9.38379C216.842 7.69368 216.015 6.84863 214.36 6.84863C213.057 6.84863 212.165 7.40365 211.686 8.51367V17H209.698V5.37695H211.578ZM233.825 17.2148C232.25 17.2148 230.968 16.6992 229.979 15.668C228.991 14.6296 228.497 13.2438 228.497 11.5107V11.1455C228.497 9.99251 228.715 8.96484 229.152 8.0625C229.596 7.15299 230.212 6.44401 231 5.93555C231.795 5.41992 232.654 5.16211 233.578 5.16211C235.089 5.16211 236.264 5.65983 237.102 6.65527C237.939 7.65072 238.358 9.07585 238.358 10.9307V11.7578H230.484C230.513 12.9036 230.846 13.8311 231.483 14.54C232.128 15.2419 232.944 15.5928 233.933 15.5928C234.634 15.5928 235.229 15.4495 235.716 15.1631C236.203 14.8766 236.629 14.4971 236.994 14.0244L238.208 14.9697C237.234 16.4665 235.773 17.2148 233.825 17.2148ZM233.578 6.79492C232.776 6.79492 232.103 7.08854 231.559 7.67578C231.014 8.25586 230.678 9.07227 230.549 10.125H236.371V9.97461C236.314 8.96484 236.042 8.18424 235.555 7.63281C235.068 7.07422 234.409 6.79492 233.578 6.79492ZM240.604 20.1152L239.476 19.3418C240.149 18.4036 240.5 17.4368 240.528 16.4414V14.6475H242.473V16.2051C242.473 16.9284 242.294 17.6517 241.936 18.375C241.585 19.0983 241.141 19.6784 240.604 20.1152ZM253.14 2.5625V5.37695H255.31V6.91309H253.14V14.1211C253.14 14.5866 253.236 14.9375 253.43 15.1738C253.623 15.403 253.952 15.5176 254.418 15.5176C254.647 15.5176 254.962 15.4746 255.363 15.3887V17C254.84 17.1432 254.332 17.2148 253.838 17.2148C252.95 17.2148 252.28 16.9463 251.829 16.4092C251.378 15.8721 251.152 15.1094 251.152 14.1211V6.91309H249.036V5.37695H251.152V2.5625H253.14ZM259.628 6.78418C260.509 5.7028 261.655 5.16211 263.065 5.16211C265.522 5.16211 266.761 6.54785 266.782 9.31934V17H264.795V9.30859C264.788 8.4707 264.594 7.85124 264.215 7.4502C263.842 7.04915 263.259 6.84863 262.464 6.84863C261.819 6.84863 261.254 7.02051 260.767 7.36426C260.28 7.70801 259.9 8.15918 259.628 8.71777V17H257.641V0.5H259.628V6.78418ZM274.581 17.2148C273.006 17.2148 271.724 16.6992 270.735 15.668C269.747 14.6296 269.253 13.2438 269.253 11.5107V11.1455C269.253 9.99251 269.471 8.96484 269.908 8.0625C270.352 7.15299 270.968 6.44401 271.756 5.93555C272.551 5.41992 273.41 5.16211 274.334 5.16211C275.845 5.16211 277.02 5.65983 277.857 6.65527C278.695 7.65072 279.114 9.07585 279.114 10.9307V11.7578H271.24C271.269 12.9036 271.602 13.8311 272.239 14.54C272.884 15.2419 273.7 15.5928 274.688 15.5928C275.39 15.5928 275.985 15.4495 276.472 15.1631C276.959 14.8766 277.385 14.4971 277.75 14.0244L278.964 14.9697C277.99 16.4665 276.529 17.2148 274.581 17.2148ZM274.334 6.79492C273.532 6.79492 272.859 7.08854 272.314 7.67578C271.77 8.25586 271.434 9.07227 271.305 10.125H277.127V9.97461C277.07 8.96484 276.798 8.18424 276.311 7.63281C275.824 7.07422 275.165 6.79492 274.334 6.79492ZM287.042 7.16016C286.741 7.11003 286.415 7.08496 286.064 7.08496C284.761 7.08496 283.877 7.63997 283.411 8.75V17H281.424V5.37695H283.357L283.39 6.71973C284.041 5.68132 284.965 5.16211 286.161 5.16211C286.548 5.16211 286.841 5.21224 287.042 5.3125V7.16016ZM293.487 17.2148C291.912 17.2148 290.63 16.6992 289.642 15.668C288.653 14.6296 288.159 13.2438 288.159 11.5107V11.1455C288.159 9.99251 288.378 8.96484 288.814 8.0625C289.258 7.15299 289.874 6.44401 290.662 5.93555C291.457 5.41992 292.316 5.16211 293.24 5.16211C294.751 5.16211 295.926 5.65983 296.764 6.65527C297.602 7.65072 298.021 9.07585 298.021 10.9307V11.7578H290.146C290.175 12.9036 290.508 13.8311 291.146 14.54C291.79 15.2419 292.606 15.5928 293.595 15.5928C294.297 15.5928 294.891 15.4495 295.378 15.1631C295.865 14.8766 296.291 14.4971 296.656 14.0244L297.87 14.9697C296.896 16.4665 295.435 17.2148 293.487 17.2148ZM293.24 6.79492C292.438 6.79492 291.765 7.08854 291.221 7.67578C290.676 8.25586 290.34 9.07227 290.211 10.125H296.033V9.97461C295.976 8.96484 295.704 8.18424 295.217 7.63281C294.73 7.07422 294.071 6.79492 293.24 6.79492ZM307.946 17H305.959V5.37695H307.946V17ZM305.798 2.29395C305.798 1.97168 305.895 1.69954 306.088 1.47754C306.288 1.25553 306.582 1.14453 306.969 1.14453C307.355 1.14453 307.649 1.25553 307.85 1.47754C308.05 1.69954 308.15 1.97168 308.15 2.29395C308.15 2.61621 308.05 2.88477 307.85 3.09961C307.649 3.31445 307.355 3.42188 306.969 3.42188C306.582 3.42188 306.288 3.31445 306.088 3.09961C305.895 2.88477 305.798 2.61621 305.798 2.29395ZM317.904 13.917C317.904 13.3799 317.7 12.9645 317.292 12.6709C316.891 12.3701 316.186 12.1123 315.176 11.8975C314.173 11.6826 313.375 11.4248 312.78 11.124C312.193 10.8232 311.756 10.4652 311.47 10.0498C311.19 9.63444 311.051 9.1403 311.051 8.56738C311.051 7.61491 311.452 6.80924 312.254 6.15039C313.063 5.49154 314.094 5.16211 315.348 5.16211C316.665 5.16211 317.732 5.50228 318.549 6.18262C319.372 6.86296 319.784 7.73307 319.784 8.79297H317.786C317.786 8.2487 317.553 7.77962 317.088 7.38574C316.63 6.99186 316.049 6.79492 315.348 6.79492C314.624 6.79492 314.059 6.95247 313.65 7.26758C313.242 7.58268 313.038 7.99447 313.038 8.50293C313.038 8.98275 313.228 9.3444 313.607 9.58789C313.987 9.83138 314.671 10.0641 315.659 10.2861C316.655 10.5081 317.46 10.7731 318.076 11.0811C318.692 11.389 319.147 11.7614 319.44 12.1982C319.741 12.6279 319.892 13.1543 319.892 13.7773C319.892 14.8158 319.476 15.6501 318.646 16.2803C317.815 16.9033 316.737 17.2148 315.412 17.2148C314.481 17.2148 313.658 17.0501 312.941 16.7207C312.225 16.3913 311.663 15.9329 311.255 15.3457C310.854 14.7513 310.653 14.1104 310.653 13.4229H312.641C312.676 14.0889 312.941 14.6188 313.436 15.0127C313.937 15.3994 314.596 15.5928 315.412 15.5928C316.164 15.5928 316.766 15.4424 317.217 15.1416C317.675 14.8337 317.904 14.4255 317.904 13.917ZM329.817 5.37695L329.882 6.83789C330.77 5.7207 331.93 5.16211 333.362 5.16211C335.819 5.16211 337.058 6.54785 337.079 9.31934V17H335.092V9.30859C335.085 8.4707 334.891 7.85124 334.512 7.4502C334.139 7.04915 333.556 6.84863 332.761 6.84863C332.116 6.84863 331.55 7.02051 331.063 7.36426C330.576 7.70801 330.197 8.15918 329.925 8.71777V17H327.938V5.37695H329.817ZM339.55 11.0811C339.55 9.94238 339.772 8.91829 340.216 8.00879C340.667 7.09928 341.29 6.39746 342.085 5.90332C342.887 5.40918 343.8 5.16211 344.824 5.16211C346.407 5.16211 347.685 5.70996 348.659 6.80566C349.64 7.90137 350.131 9.35872 350.131 11.1777V11.3174C350.131 12.4489 349.912 13.4658 349.476 14.3682C349.046 15.2633 348.426 15.9616 347.617 16.4629C346.815 16.9642 345.891 17.2148 344.846 17.2148C343.27 17.2148 341.992 16.667 341.011 15.5713C340.037 14.4756 339.55 13.0254 339.55 11.2207V11.0811ZM341.548 11.3174C341.548 12.6064 341.845 13.6413 342.439 14.4219C343.041 15.2025 343.843 15.5928 344.846 15.5928C345.855 15.5928 346.658 15.1989 347.252 14.4111C347.846 13.6162 348.144 12.5062 348.144 11.0811C348.144 9.80632 347.839 8.77507 347.23 7.9873C346.629 7.19238 345.827 6.79492 344.824 6.79492C343.843 6.79492 343.052 7.18522 342.45 7.96582C341.849 8.74642 341.548 9.86361 341.548 11.3174ZM4.2002 28.5625V31.377H6.37012V32.9131H4.2002V40.1211C4.2002 40.5866 4.29688 40.9375 4.49023 41.1738C4.68359 41.403 5.01302 41.5176 5.47852 41.5176C5.70768 41.5176 6.02279 41.4746 6.42383 41.3887V43C5.90104 43.1432 5.39258 43.2148 4.89844 43.2148C4.01042 43.2148 3.34082 42.9463 2.88965 42.4092C2.43848 41.8721 2.21289 41.1094 2.21289 40.1211V32.9131H0.0966797V31.377H2.21289V28.5625H4.2002ZM15.877 41.8506C15.1035 42.7601 13.9684 43.2148 12.4717 43.2148C11.2327 43.2148 10.2874 42.8568 9.63574 42.1406C8.99121 41.4173 8.66536 40.3503 8.6582 38.9395V31.377H10.6455V38.8857C10.6455 40.6475 11.3617 41.5283 12.7939 41.5283C14.3122 41.5283 15.3219 40.9626 15.8232 39.8311V31.377H17.8105V43H15.9199L15.877 41.8506ZM26.458 33.1602C26.1572 33.11 25.8314 33.085 25.4805 33.085C24.1771 33.085 23.2926 33.64 22.8271 34.75V43H20.8398V31.377H22.7734L22.8057 32.7197C23.4574 31.6813 24.3812 31.1621 25.5771 31.1621C25.9639 31.1621 26.2575 31.2122 26.458 31.3125V33.1602ZM30.1748 31.377L30.2393 32.8379C31.1273 31.7207 32.2874 31.1621 33.7197 31.1621C36.1761 31.1621 37.415 32.5479 37.4365 35.3193V43H35.4492V35.3086C35.4421 34.4707 35.2487 33.8512 34.8691 33.4502C34.4967 33.0492 33.9131 32.8486 33.1182 32.8486C32.4736 32.8486 31.9079 33.0205 31.4209 33.3643C30.9339 33.708 30.5544 34.1592 30.2822 34.7178V43H28.2949V31.377H30.1748ZM42.5928 43H40.6055V31.377H42.5928V43ZM40.4443 28.2939C40.4443 27.9717 40.541 27.6995 40.7344 27.4775C40.9349 27.2555 41.2285 27.1445 41.6152 27.1445C42.002 27.1445 42.2956 27.2555 42.4961 27.4775C42.6966 27.6995 42.7969 27.9717 42.7969 28.2939C42.7969 28.6162 42.6966 28.8848 42.4961 29.0996C42.2956 29.3145 42.002 29.4219 41.6152 29.4219C41.2285 29.4219 40.9349 29.3145 40.7344 29.0996C40.541 28.8848 40.4443 28.6162 40.4443 28.2939ZM47.6631 31.377L47.7275 32.8379C48.6156 31.7207 49.7757 31.1621 51.208 31.1621C53.6644 31.1621 54.9033 32.5479 54.9248 35.3193V43H52.9375V35.3086C52.9303 34.4707 52.737 33.8512 52.3574 33.4502C51.985 33.0492 51.4014 32.8486 50.6064 32.8486C49.9619 32.8486 49.3962 33.0205 48.9092 33.3643C48.4222 33.708 48.0426 34.1592 47.7705 34.7178V43H45.7832V31.377H47.6631ZM57.4492 37.0918C57.4492 35.2799 57.8682 33.8405 58.7061 32.7734C59.5439 31.6992 60.654 31.1621 62.0361 31.1621C63.4541 31.1621 64.5605 31.6634 65.3555 32.666L65.4521 31.377H67.2676V42.7207C67.2676 44.2246 66.82 45.4098 65.9248 46.2764C65.0368 47.1429 63.8408 47.5762 62.3369 47.5762C61.499 47.5762 60.679 47.3971 59.877 47.0391C59.0749 46.681 58.4626 46.1904 58.04 45.5674L59.0713 44.375C59.9235 45.4277 60.9655 45.9541 62.1973 45.9541C63.1641 45.9541 63.916 45.682 64.4531 45.1377C64.9974 44.5934 65.2695 43.8271 65.2695 42.8389V41.8398C64.4746 42.7565 63.3896 43.2148 62.0146 43.2148C60.654 43.2148 59.5511 42.667 58.7061 41.5713C57.8682 40.4756 57.4492 38.9824 57.4492 37.0918ZM59.4473 37.3174C59.4473 38.6279 59.7158 39.6592 60.2529 40.4111C60.79 41.1559 61.542 41.5283 62.5088 41.5283C63.762 41.5283 64.6823 40.959 65.2695 39.8203V34.5137C64.6608 33.4036 63.7477 32.8486 62.5303 32.8486C61.5635 32.8486 60.8079 33.2246 60.2637 33.9766C59.7194 34.7285 59.4473 35.8421 59.4473 37.3174ZM85.5723 37.3174C85.5723 39.0934 85.1641 40.5221 84.3477 41.6035C83.5312 42.6777 82.4355 43.2148 81.0605 43.2148C79.5924 43.2148 78.4574 42.6956 77.6553 41.6572L77.5586 43H75.7324V26.5H77.7197V32.6553C78.5218 31.6598 79.6283 31.1621 81.0391 31.1621C82.4499 31.1621 83.5563 31.6956 84.3584 32.7627C85.1676 33.8298 85.5723 35.2907 85.5723 37.1455V37.3174ZM83.585 37.0918C83.585 35.7383 83.3236 34.6927 82.8008 33.9551C82.278 33.2174 81.526 32.8486 80.5449 32.8486C79.2344 32.8486 78.2926 33.4574 77.7197 34.6748V39.7021C78.3285 40.9196 79.2773 41.5283 80.5664 41.5283C81.5189 41.5283 82.2601 41.1595 82.79 40.4219C83.32 39.6842 83.585 38.5742 83.585 37.0918ZM95.2617 43C95.1471 42.7708 95.054 42.3626 94.9824 41.7754C94.0586 42.735 92.9557 43.2148 91.6738 43.2148C90.528 43.2148 89.5863 42.8926 88.8486 42.248C88.1182 41.5964 87.7529 40.7728 87.7529 39.7773C87.7529 38.5671 88.2113 37.6289 89.1279 36.9629C90.0518 36.2897 91.348 35.9531 93.0166 35.9531H94.9502V35.04C94.9502 34.3454 94.7425 33.7939 94.3271 33.3857C93.9118 32.9704 93.2995 32.7627 92.4902 32.7627C91.7812 32.7627 91.1868 32.9417 90.707 33.2998C90.2272 33.6579 89.9873 34.0911 89.9873 34.5996H87.9893C87.9893 34.0195 88.1934 33.4609 88.6016 32.9238C89.0169 32.3796 89.5755 31.9499 90.2773 31.6348C90.9863 31.3197 91.7633 31.1621 92.6084 31.1621C93.9476 31.1621 94.9967 31.4987 95.7559 32.1719C96.515 32.8379 96.9089 33.7581 96.9375 34.9326V40.2822C96.9375 41.3493 97.0736 42.1979 97.3457 42.8281V43H95.2617ZM91.9639 41.4854C92.5869 41.4854 93.1777 41.3242 93.7363 41.002C94.2949 40.6797 94.6995 40.2607 94.9502 39.7451V37.3604H93.3926C90.9577 37.3604 89.7402 38.0729 89.7402 39.498C89.7402 40.1211 89.9479 40.6081 90.3633 40.959C90.7786 41.3099 91.3122 41.4854 91.9639 41.4854ZM104.715 41.5928C105.424 41.5928 106.043 41.3779 106.573 40.9482C107.103 40.5186 107.397 39.9814 107.454 39.3369H109.334C109.298 40.0029 109.069 40.6367 108.646 41.2383C108.224 41.8398 107.658 42.3197 106.949 42.6777C106.247 43.0358 105.503 43.2148 104.715 43.2148C103.132 43.2148 101.872 42.6885 100.934 41.6357C100.003 40.5758 99.5371 39.1292 99.5371 37.2959V36.9629C99.5371 35.8314 99.7448 34.8252 100.16 33.9443C100.576 33.0635 101.17 32.3796 101.943 31.8926C102.724 31.4056 103.644 31.1621 104.704 31.1621C106.007 31.1621 107.089 31.5524 107.948 32.333C108.815 33.1136 109.277 34.127 109.334 35.373H107.454C107.397 34.6211 107.11 34.0052 106.595 33.5254C106.086 33.0384 105.456 32.7949 104.704 32.7949C103.694 32.7949 102.91 33.1602 102.352 33.8906C101.8 34.6139 101.524 35.6631 101.524 37.0381V37.4141C101.524 38.7533 101.8 39.7845 102.352 40.5078C102.903 41.2311 103.691 41.5928 104.715 41.5928ZM114.812 37.6182L113.566 38.918V43H111.579V26.5H113.566V36.4795L114.63 35.2012L118.25 31.377H120.667L116.145 36.2324L121.193 43H118.862L114.812 37.6182ZM122.654 46.1152L121.526 45.3418C122.2 44.4036 122.55 43.4368 122.579 42.4414V40.6475H124.523V42.2051C124.523 42.9284 124.344 43.6517 123.986 44.375C123.635 45.0983 123.191 45.6784 122.654 46.1152ZM143.183 29.0566H138.155V43H136.104V29.0566H131.087V27.3594H143.183V29.0566ZM147.179 32.7842C148.06 31.7028 149.205 31.1621 150.616 31.1621C153.073 31.1621 154.312 32.5479 154.333 35.3193V43H152.346V35.3086C152.339 34.4707 152.145 33.8512 151.766 33.4502C151.393 33.0492 150.81 32.8486 150.015 32.8486C149.37 32.8486 148.804 33.0205 148.317 33.3643C147.83 33.708 147.451 34.1592 147.179 34.7178V43H145.191V26.5H147.179V32.7842ZM162.132 43.2148C160.556 43.2148 159.274 42.6992 158.286 41.668C157.298 40.6296 156.804 39.2438 156.804 37.5107V37.1455C156.804 35.9925 157.022 34.9648 157.459 34.0625C157.903 33.153 158.519 32.444 159.307 31.9355C160.102 31.4199 160.961 31.1621 161.885 31.1621C163.396 31.1621 164.57 31.6598 165.408 32.6553C166.246 33.6507 166.665 35.0758 166.665 36.9307V37.7578H158.791C158.82 38.9036 159.153 39.8311 159.79 40.54C160.435 41.2419 161.251 41.5928 162.239 41.5928C162.941 41.5928 163.535 41.4495 164.022 41.1631C164.509 40.8766 164.936 40.4971 165.301 40.0244L166.515 40.9697C165.541 42.4665 164.08 43.2148 162.132 43.2148ZM161.885 32.7949C161.083 32.7949 160.41 33.0885 159.865 33.6758C159.321 34.2559 158.984 35.0723 158.855 36.125H164.678V35.9746C164.62 34.9648 164.348 34.1842 163.861 33.6328C163.374 33.0742 162.715 32.7949 161.885 32.7949ZM184.723 40.2607L186.957 31.377H188.944L185.561 43H183.949L181.124 34.1914L178.374 43H176.763L173.39 31.377H175.366L177.654 40.0781L180.361 31.377H181.962L184.723 40.2607ZM193.134 43H191.146V31.377H193.134V43ZM190.985 28.2939C190.985 27.9717 191.082 27.6995 191.275 27.4775C191.476 27.2555 191.77 27.1445 192.156 27.1445C192.543 27.1445 192.837 27.2555 193.037 27.4775C193.238 27.6995 193.338 27.9717 193.338 28.2939C193.338 28.6162 193.238 28.8848 193.037 29.0996C192.837 29.3145 192.543 29.4219 192.156 29.4219C191.77 29.4219 191.476 29.3145 191.275 29.0996C191.082 28.8848 190.985 28.6162 190.985 28.2939ZM198.204 31.377L198.269 32.8379C199.157 31.7207 200.317 31.1621 201.749 31.1621C204.205 31.1621 205.444 32.5479 205.466 35.3193V43H203.479V35.3086C203.471 34.4707 203.278 33.8512 202.898 33.4502C202.526 33.0492 201.942 32.8486 201.147 32.8486C200.503 32.8486 199.937 33.0205 199.45 33.3643C198.963 33.708 198.584 34.1592 198.312 34.7178V43H196.324V31.377H198.204ZM210.343 31.377L210.407 32.8379C211.295 31.7207 212.455 31.1621 213.888 31.1621C216.344 31.1621 217.583 32.5479 217.604 35.3193V43H215.617V35.3086C215.61 34.4707 215.417 33.8512 215.037 33.4502C214.665 33.0492 214.081 32.8486 213.286 32.8486C212.642 32.8486 212.076 33.0205 211.589 33.3643C211.102 33.708 210.722 34.1592 210.45 34.7178V43H208.463V31.377H210.343ZM225.425 43.2148C223.849 43.2148 222.567 42.6992 221.579 41.668C220.591 40.6296 220.097 39.2438 220.097 37.5107V37.1455C220.097 35.9925 220.315 34.9648 220.752 34.0625C221.196 33.153 221.812 32.444 222.6 31.9355C223.395 31.4199 224.254 31.1621 225.178 31.1621C226.689 31.1621 227.863 31.6598 228.701 32.6553C229.539 33.6507 229.958 35.0758 229.958 36.9307V37.7578H222.084C222.113 38.9036 222.446 39.8311 223.083 40.54C223.728 41.2419 224.544 41.5928 225.532 41.5928C226.234 41.5928 226.828 41.4495 227.315 41.1631C227.802 40.8766 228.229 40.4971 228.594 40.0244L229.808 40.9697C228.834 42.4665 227.373 43.2148 225.425 43.2148ZM225.178 32.7949C224.376 32.7949 223.702 33.0885 223.158 33.6758C222.614 34.2559 222.277 35.0723 222.148 36.125H227.971V35.9746C227.913 34.9648 227.641 34.1842 227.154 33.6328C226.667 33.0742 226.008 32.7949 225.178 32.7949ZM237.886 33.1602C237.585 33.11 237.259 33.085 236.908 33.085C235.605 33.085 234.72 33.64 234.255 34.75V43H232.268V31.377H234.201L234.233 32.7197C234.885 31.6813 235.809 31.1621 237.005 31.1621C237.392 31.1621 237.685 31.2122 237.886 31.3125V33.1602ZM247.339 43H245.352V31.377H247.339V43ZM245.19 28.2939C245.19 27.9717 245.287 27.6995 245.48 27.4775C245.681 27.2555 245.975 27.1445 246.361 27.1445C246.748 27.1445 247.042 27.2555 247.242 27.4775C247.443 27.6995 247.543 27.9717 247.543 28.2939C247.543 28.6162 247.443 28.8848 247.242 29.0996C247.042 29.3145 246.748 29.4219 246.361 29.4219C245.975 29.4219 245.681 29.3145 245.48 29.0996C245.287 28.8848 245.19 28.6162 245.19 28.2939ZM257.297 39.917C257.297 39.3799 257.093 38.9645 256.685 38.6709C256.284 38.3701 255.578 38.1123 254.568 37.8975C253.566 37.6826 252.767 37.4248 252.173 37.124C251.586 36.8232 251.149 36.4652 250.862 36.0498C250.583 35.6344 250.443 35.1403 250.443 34.5674C250.443 33.6149 250.844 32.8092 251.646 32.1504C252.456 31.4915 253.487 31.1621 254.74 31.1621C256.058 31.1621 257.125 31.5023 257.941 32.1826C258.765 32.863 259.177 33.7331 259.177 34.793H257.179C257.179 34.2487 256.946 33.7796 256.48 33.3857C256.022 32.9919 255.442 32.7949 254.74 32.7949C254.017 32.7949 253.451 32.9525 253.043 33.2676C252.635 33.5827 252.431 33.9945 252.431 34.5029C252.431 34.9827 252.62 35.3444 253 35.5879C253.38 35.8314 254.063 36.0641 255.052 36.2861C256.047 36.5081 256.853 36.7731 257.469 37.0811C258.085 37.389 258.539 37.7614 258.833 38.1982C259.134 38.6279 259.284 39.1543 259.284 39.7773C259.284 40.8158 258.869 41.6501 258.038 42.2803C257.207 42.9033 256.13 43.2148 254.805 43.2148C253.874 43.2148 253.05 43.0501 252.334 42.7207C251.618 42.3913 251.056 41.9329 250.647 41.3457C250.246 40.7513 250.046 40.1104 250.046 39.4229H252.033C252.069 40.0889 252.334 40.6188 252.828 41.0127C253.329 41.3994 253.988 41.5928 254.805 41.5928C255.557 41.5928 256.158 41.4424 256.609 41.1416C257.068 40.8337 257.297 40.4255 257.297 39.917ZM274.506 43C274.391 42.7708 274.298 42.3626 274.227 41.7754C273.303 42.735 272.2 43.2148 270.918 43.2148C269.772 43.2148 268.83 42.8926 268.093 42.248C267.362 41.5964 266.997 40.7728 266.997 39.7773C266.997 38.5671 267.455 37.6289 268.372 36.9629C269.296 36.2897 270.592 35.9531 272.261 35.9531H274.194V35.04C274.194 34.3454 273.987 33.7939 273.571 33.3857C273.156 32.9704 272.544 32.7627 271.734 32.7627C271.025 32.7627 270.431 32.9417 269.951 33.2998C269.471 33.6579 269.231 34.0911 269.231 34.5996H267.233C267.233 34.0195 267.438 33.4609 267.846 32.9238C268.261 32.3796 268.82 31.9499 269.521 31.6348C270.23 31.3197 271.007 31.1621 271.853 31.1621C273.192 31.1621 274.241 31.4987 275 32.1719C275.759 32.8379 276.153 33.7581 276.182 34.9326V40.2822C276.182 41.3493 276.318 42.1979 276.59 42.8281V43H274.506ZM271.208 41.4854C271.831 41.4854 272.422 41.3242 272.98 41.002C273.539 40.6797 273.944 40.2607 274.194 39.7451V37.3604H272.637C270.202 37.3604 268.984 38.0729 268.984 39.498C268.984 40.1211 269.192 40.6081 269.607 40.959C270.023 41.3099 270.556 41.4854 271.208 41.4854ZM281.456 43H279.469V26.5H281.456V43ZM284.12 37.0811C284.12 35.9424 284.342 34.9183 284.786 34.0088C285.237 33.0993 285.86 32.3975 286.655 31.9033C287.457 31.4092 288.37 31.1621 289.395 31.1621C290.977 31.1621 292.256 31.71 293.229 32.8057C294.211 33.9014 294.701 35.3587 294.701 37.1777V37.3174C294.701 38.4489 294.483 39.4658 294.046 40.3682C293.616 41.2633 292.997 41.9616 292.188 42.4629C291.385 42.9642 290.462 43.2148 289.416 43.2148C287.84 43.2148 286.562 42.667 285.581 41.5713C284.607 40.4756 284.12 39.0254 284.12 37.2207V37.0811ZM286.118 37.3174C286.118 38.6064 286.415 39.6413 287.01 40.4219C287.611 41.2025 288.413 41.5928 289.416 41.5928C290.426 41.5928 291.228 41.1989 291.822 40.4111C292.417 39.6162 292.714 38.5062 292.714 37.0811C292.714 35.8063 292.41 34.7751 291.801 33.9873C291.199 33.1924 290.397 32.7949 289.395 32.7949C288.413 32.7949 287.622 33.1852 287.021 33.9658C286.419 34.7464 286.118 35.8636 286.118 37.3174ZM299.073 31.377L299.138 32.8379C300.026 31.7207 301.186 31.1621 302.618 31.1621C305.075 31.1621 306.313 32.5479 306.335 35.3193V43H304.348V35.3086C304.34 34.4707 304.147 33.8512 303.768 33.4502C303.395 33.0492 302.812 32.8486 302.017 32.8486C301.372 32.8486 300.806 33.0205 300.319 33.3643C299.832 33.708 299.453 34.1592 299.181 34.7178V43H297.193V31.377H299.073ZM314.155 43.2148C312.58 43.2148 311.298 42.6992 310.31 41.668C309.321 40.6296 308.827 39.2438 308.827 37.5107V37.1455C308.827 35.9925 309.046 34.9648 309.482 34.0625C309.926 33.153 310.542 32.444 311.33 31.9355C312.125 31.4199 312.984 31.1621 313.908 31.1621C315.419 31.1621 316.594 31.6598 317.432 32.6553C318.27 33.6507 318.688 35.0758 318.688 36.9307V37.7578H310.814C310.843 38.9036 311.176 39.8311 311.813 40.54C312.458 41.2419 313.274 41.5928 314.263 41.5928C314.965 41.5928 315.559 41.4495 316.046 41.1631C316.533 40.8766 316.959 40.4971 317.324 40.0244L318.538 40.9697C317.564 42.4665 316.103 43.2148 314.155 43.2148ZM313.908 32.7949C313.106 32.7949 312.433 33.0885 311.889 33.6758C311.344 34.2559 311.008 35.0723 310.879 36.125H316.701V35.9746C316.644 34.9648 316.372 34.1842 315.885 33.6328C315.398 33.0742 314.739 32.7949 313.908 32.7949ZM320.934 46.1152L319.806 45.3418C320.479 44.4036 320.83 43.4368 320.858 42.4414V40.6475H322.803V42.2051C322.803 42.9284 322.624 43.6517 322.266 44.375C321.915 45.0983 321.471 45.6784 320.934 46.1152ZM333.47 28.5625V31.377H335.64V32.9131H333.47V40.1211C333.47 40.5866 333.566 40.9375 333.76 41.1738C333.953 41.403 334.283 41.5176 334.748 41.5176C334.977 41.5176 335.292 41.4746 335.693 41.3887V43C335.171 43.1432 334.662 43.2148 334.168 43.2148C333.28 43.2148 332.61 42.9463 332.159 42.4092C331.708 41.8721 331.482 41.1094 331.482 40.1211V32.9131H329.366V31.377H331.482V28.5625H333.47ZM339.958 32.7842C340.839 31.7028 341.985 31.1621 343.396 31.1621C345.852 31.1621 347.091 32.5479 347.112 35.3193V43H345.125V35.3086C345.118 34.4707 344.924 33.8512 344.545 33.4502C344.173 33.0492 343.589 32.8486 342.794 32.8486C342.149 32.8486 341.584 33.0205 341.097 33.3643C340.61 33.708 340.23 34.1592 339.958 34.7178V43H337.971V26.5H339.958V32.7842ZM354.911 43.2148C353.336 43.2148 352.054 42.6992 351.065 41.668C350.077 40.6296 349.583 39.2438 349.583 37.5107V37.1455C349.583 35.9925 349.801 34.9648 350.238 34.0625C350.682 33.153 351.298 32.444 352.086 31.9355C352.881 31.4199 353.74 31.1621 354.664 31.1621C356.175 31.1621 357.35 31.6598 358.188 32.6553C359.025 33.6507 359.444 35.0758 359.444 36.9307V37.7578H351.57C351.599 38.9036 351.932 39.8311 352.569 40.54C353.214 41.2419 354.03 41.5928 355.019 41.5928C355.72 41.5928 356.315 41.4495 356.802 41.1631C357.289 40.8766 357.715 40.4971 358.08 40.0244L359.294 40.9697C358.32 42.4665 356.859 43.2148 354.911 43.2148ZM354.664 32.7949C353.862 32.7949 353.189 33.0885 352.645 33.6758C352.1 34.2559 351.764 35.0723 351.635 36.125H357.457V35.9746C357.4 34.9648 357.128 34.1842 356.641 33.6328C356.154 33.0742 355.495 32.7949 354.664 32.7949ZM3.66309 69H1.67578V52.5H3.66309V69ZM6.32715 63.0811C6.32715 61.9424 6.54915 60.9183 6.99316 60.0088C7.44434 59.0993 8.06738 58.3975 8.8623 57.9033C9.66439 57.4092 10.5775 57.1621 11.6016 57.1621C13.1842 57.1621 14.4626 57.71 15.4365 58.8057C16.4176 59.9014 16.9082 61.3587 16.9082 63.1777V63.3174C16.9082 64.4489 16.6898 65.4658 16.2529 66.3682C15.8232 67.2633 15.2038 67.9616 14.3945 68.4629C13.5924 68.9642 12.6686 69.2148 11.623 69.2148C10.0475 69.2148 8.76921 68.667 7.78809 67.5713C6.81413 66.4756 6.32715 65.0254 6.32715 63.2207V63.0811ZM8.3252 63.3174C8.3252 64.6064 8.6224 65.6413 9.2168 66.4219C9.81836 67.2025 10.6204 67.5928 11.623 67.5928C12.6328 67.5928 13.4349 67.1989 14.0293 66.4111C14.6237 65.6162 14.9209 64.5062 14.9209 63.0811C14.9209 61.8063 14.6165 60.7751 14.0078 59.9873C13.4062 59.1924 12.6042 58.7949 11.6016 58.7949C10.6204 58.7949 9.8291 59.1852 9.22754 59.9658C8.62598 60.7464 8.3252 61.8636 8.3252 63.3174ZM26.168 65.917C26.168 65.3799 25.9639 64.9645 25.5557 64.6709C25.1546 64.3701 24.4492 64.1123 23.4395 63.8975C22.4368 63.6826 21.6383 63.4248 21.0439 63.124C20.4567 62.8232 20.0199 62.4652 19.7334 62.0498C19.4541 61.6344 19.3145 61.1403 19.3145 60.5674C19.3145 59.6149 19.7155 58.8092 20.5176 58.1504C21.3268 57.4915 22.3581 57.1621 23.6113 57.1621C24.929 57.1621 25.9961 57.5023 26.8125 58.1826C27.6361 58.863 28.0479 59.7331 28.0479 60.793H26.0498C26.0498 60.2487 25.8171 59.7796 25.3516 59.3857C24.8932 58.9919 24.3132 58.7949 23.6113 58.7949C22.888 58.7949 22.3223 58.9525 21.9141 59.2676C21.5059 59.5827 21.3018 59.9945 21.3018 60.5029C21.3018 60.9827 21.4915 61.3444 21.8711 61.5879C22.2507 61.8314 22.9346 62.0641 23.9229 62.2861C24.9183 62.5081 25.724 62.7731 26.3398 63.0811C26.9557 63.389 27.4105 63.7614 27.7041 64.1982C28.0049 64.6279 28.1553 65.1543 28.1553 65.7773C28.1553 66.8158 27.7399 67.6501 26.9092 68.2803C26.0785 68.9033 25.0007 69.2148 23.6758 69.2148C22.7448 69.2148 21.9212 69.0501 21.2051 68.7207C20.4889 68.3913 19.9268 67.9329 19.5186 67.3457C19.1175 66.7513 18.917 66.1104 18.917 65.4229H20.9043C20.9401 66.0889 21.2051 66.6188 21.6992 67.0127C22.2005 67.3994 22.8594 67.5928 23.6758 67.5928C24.4277 67.5928 25.0293 67.4424 25.4805 67.1416C25.9388 66.8337 26.168 66.4255 26.168 65.917ZM35.5674 69.2148C33.9919 69.2148 32.71 68.6992 31.7217 67.668C30.7334 66.6296 30.2393 65.2438 30.2393 63.5107V63.1455C30.2393 61.9925 30.4577 60.9648 30.8945 60.0625C31.3385 59.153 31.9544 58.444 32.7422 57.9355C33.5371 57.4199 34.3965 57.1621 35.3203 57.1621C36.8314 57.1621 38.0059 57.6598 38.8438 58.6553C39.6816 59.6507 40.1006 61.0758 40.1006 62.9307V63.7578H32.2266C32.2552 64.9036 32.5882 65.8311 33.2256 66.54C33.8701 67.2419 34.6865 67.5928 35.6748 67.5928C36.3766 67.5928 36.971 67.4495 37.458 67.1631C37.945 66.8766 38.3711 66.4971 38.7363 66.0244L39.9502 66.9697C38.9762 68.4665 37.5153 69.2148 35.5674 69.2148ZM35.3203 58.7949C34.5182 58.7949 33.8451 59.0885 33.3008 59.6758C32.7565 60.2559 32.4199 61.0723 32.291 62.125H38.1133V61.9746C38.056 60.9648 37.7839 60.1842 37.2969 59.6328C36.8099 59.0742 36.151 58.7949 35.3203 58.7949ZM48.0283 59.1602C47.7275 59.11 47.4017 59.085 47.0508 59.085C45.7474 59.085 44.863 59.64 44.3975 60.75V69H42.4102V57.377H44.3438L44.376 58.7197C45.0277 57.6813 45.9515 57.1621 47.1475 57.1621C47.5342 57.1621 47.8278 57.2122 48.0283 57.3125V59.1602ZM54.7959 63.0811C54.7959 61.9424 55.0179 60.9183 55.4619 60.0088C55.9131 59.0993 56.5361 58.3975 57.3311 57.9033C58.1331 57.4092 59.0462 57.1621 60.0703 57.1621C61.653 57.1621 62.9313 57.71 63.9053 58.8057C64.8864 59.9014 65.377 61.3587 65.377 63.1777V63.3174C65.377 64.4489 65.1585 65.4658 64.7217 66.3682C64.292 67.2633 63.6725 67.9616 62.8633 68.4629C62.0612 68.9642 61.1374 69.2148 60.0918 69.2148C58.5163 69.2148 57.238 68.667 56.2568 67.5713C55.2829 66.4756 54.7959 65.0254 54.7959 63.2207V63.0811ZM56.7939 63.3174C56.7939 64.6064 57.0911 65.6413 57.6855 66.4219C58.2871 67.2025 59.0892 67.5928 60.0918 67.5928C61.1016 67.5928 61.9036 67.1989 62.498 66.4111C63.0924 65.6162 63.3896 64.5062 63.3896 63.0811C63.3896 61.8063 63.0853 60.7751 62.4766 59.9873C61.875 59.1924 61.0729 58.7949 60.0703 58.7949C59.0892 58.7949 58.2979 59.1852 57.6963 59.9658C57.0947 60.7464 56.7939 61.8636 56.7939 63.3174ZM69.749 57.377L69.8135 58.8379C70.7015 57.7207 71.8617 57.1621 73.2939 57.1621C75.7503 57.1621 76.9893 58.5479 77.0107 61.3193V69H75.0234V61.3086C75.0163 60.4707 74.8229 59.8512 74.4434 59.4502C74.071 59.0492 73.4873 58.8486 72.6924 58.8486C72.0479 58.8486 71.4821 59.0205 70.9951 59.3643C70.5081 59.708 70.1286 60.1592 69.8564 60.7178V69H67.8691V57.377H69.749ZM82.167 69H80.1797V52.5H82.167V69ZM89.1602 66.0889L91.8672 57.377H93.9941L89.3213 70.7939C88.598 72.7275 87.4486 73.6943 85.873 73.6943L85.4971 73.6621L84.7559 73.5225V71.9111L85.293 71.9541C85.9661 71.9541 86.4889 71.818 86.8613 71.5459C87.2409 71.2738 87.5524 70.776 87.7959 70.0527L88.2363 68.8711L84.0898 57.377H86.2598L89.1602 66.0889ZM102.212 69V58.9131H100.375V57.377H102.212V56.1846C102.212 54.9385 102.545 53.9753 103.211 53.2949C103.877 52.6146 104.819 52.2744 106.036 52.2744C106.494 52.2744 106.949 52.3353 107.4 52.457L107.293 54.0684C106.956 54.0039 106.598 53.9717 106.219 53.9717C105.574 53.9717 105.076 54.1615 104.726 54.541C104.375 54.9134 104.199 55.4505 104.199 56.1523V57.377H106.681V58.9131H104.199V69H102.212ZM116.059 69C115.944 68.7708 115.851 68.3626 115.779 67.7754C114.855 68.735 113.753 69.2148 112.471 69.2148C111.325 69.2148 110.383 68.8926 109.646 68.248C108.915 67.5964 108.55 66.7728 108.55 65.7773C108.55 64.5671 109.008 63.6289 109.925 62.9629C110.849 62.2897 112.145 61.9531 113.813 61.9531H115.747V61.04C115.747 60.3454 115.539 59.7939 115.124 59.3857C114.709 58.9704 114.096 58.7627 113.287 58.7627C112.578 58.7627 111.984 58.9417 111.504 59.2998C111.024 59.6579 110.784 60.0911 110.784 60.5996H108.786C108.786 60.0195 108.99 59.4609 109.398 58.9238C109.814 58.3796 110.372 57.9499 111.074 57.6348C111.783 57.3197 112.56 57.1621 113.405 57.1621C114.744 57.1621 115.794 57.4987 116.553 58.1719C117.312 58.8379 117.706 59.7581 117.734 60.9326V66.2822C117.734 67.3493 117.87 68.1979 118.143 68.8281V69H116.059ZM112.761 67.4854C113.384 67.4854 113.975 67.3242 114.533 67.002C115.092 66.6797 115.496 66.2607 115.747 65.7451V63.3604H114.189C111.755 63.3604 110.537 64.0729 110.537 65.498C110.537 66.1211 110.745 66.6081 111.16 66.959C111.576 67.3099 112.109 67.4854 112.761 67.4854ZM125.512 67.5928C126.221 67.5928 126.84 67.3779 127.37 66.9482C127.9 66.5186 128.194 65.9814 128.251 65.3369H130.131C130.095 66.0029 129.866 66.6367 129.443 67.2383C129.021 67.8398 128.455 68.3197 127.746 68.6777C127.044 69.0358 126.299 69.2148 125.512 69.2148C123.929 69.2148 122.669 68.6885 121.73 67.6357C120.799 66.5758 120.334 65.1292 120.334 63.2959V62.9629C120.334 61.8314 120.542 60.8252 120.957 59.9443C121.372 59.0635 121.967 58.3796 122.74 57.8926C123.521 57.4056 124.441 57.1621 125.501 57.1621C126.804 57.1621 127.886 57.5524 128.745 58.333C129.612 59.1136 130.074 60.127 130.131 61.373H128.251C128.194 60.6211 127.907 60.0052 127.392 59.5254C126.883 59.0384 126.253 58.7949 125.501 58.7949C124.491 58.7949 123.707 59.1602 123.148 59.8906C122.597 60.6139 122.321 61.6631 122.321 63.0381V63.4141C122.321 64.7533 122.597 65.7845 123.148 66.5078C123.7 67.2311 124.488 67.5928 125.512 67.5928ZM137.188 69.2148C135.613 69.2148 134.331 68.6992 133.343 67.668C132.354 66.6296 131.86 65.2438 131.86 63.5107V63.1455C131.86 61.9925 132.079 60.9648 132.516 60.0625C132.96 59.153 133.576 58.444 134.363 57.9355C135.158 57.4199 136.018 57.1621 136.941 57.1621C138.452 57.1621 139.627 57.6598 140.465 58.6553C141.303 59.6507 141.722 61.0758 141.722 62.9307V63.7578H133.848C133.876 64.9036 134.209 65.8311 134.847 66.54C135.491 67.2419 136.308 67.5928 137.296 67.5928C137.998 67.5928 138.592 67.4495 139.079 67.1631C139.566 66.8766 139.992 66.4971 140.357 66.0244L141.571 66.9697C140.597 68.4665 139.136 69.2148 137.188 69.2148ZM136.941 58.7949C136.139 58.7949 135.466 59.0885 134.922 59.6758C134.378 60.2559 134.041 61.0723 133.912 62.125H139.734V61.9746C139.677 60.9648 139.405 60.1842 138.918 59.6328C138.431 59.0742 137.772 58.7949 136.941 58.7949ZM150.799 65.917C150.799 65.3799 150.595 64.9645 150.187 64.6709C149.785 64.3701 149.08 64.1123 148.07 63.8975C147.068 63.6826 146.269 63.4248 145.675 63.124C145.088 62.8232 144.651 62.4652 144.364 62.0498C144.085 61.6344 143.945 61.1403 143.945 60.5674C143.945 59.6149 144.346 58.8092 145.148 58.1504C145.958 57.4915 146.989 57.1621 148.242 57.1621C149.56 57.1621 150.627 57.5023 151.443 58.1826C152.267 58.863 152.679 59.7331 152.679 60.793H150.681C150.681 60.2487 150.448 59.7796 149.982 59.3857C149.524 58.9919 148.944 58.7949 148.242 58.7949C147.519 58.7949 146.953 58.9525 146.545 59.2676C146.137 59.5827 145.933 59.9945 145.933 60.5029C145.933 60.9827 146.122 61.3444 146.502 61.5879C146.882 61.8314 147.565 62.0641 148.554 62.2861C149.549 62.5081 150.355 62.7731 150.971 63.0811C151.587 63.389 152.041 63.7614 152.335 64.1982C152.636 64.6279 152.786 65.1543 152.786 65.7773C152.786 66.8158 152.371 67.6501 151.54 68.2803C150.709 68.9033 149.632 69.2148 148.307 69.2148C147.376 69.2148 146.552 69.0501 145.836 68.7207C145.12 68.3913 144.558 67.9329 144.149 67.3457C143.748 66.7513 143.548 66.1104 143.548 65.4229H145.535C145.571 66.0889 145.836 66.6188 146.33 67.0127C146.831 67.3994 147.49 67.5928 148.307 67.5928C149.059 67.5928 149.66 67.4424 150.111 67.1416C150.57 66.8337 150.799 66.4255 150.799 65.917ZM160.349 63.0918C160.349 61.3086 160.771 59.8763 161.616 58.7949C162.461 57.7064 163.568 57.1621 164.936 57.1621C166.296 57.1621 167.374 57.6276 168.169 58.5586V52.5H170.156V69H168.33L168.233 67.7539C167.438 68.7279 166.332 69.2148 164.914 69.2148C163.568 69.2148 162.468 68.6634 161.616 67.5605C160.771 66.4577 160.349 65.0182 160.349 63.2422V63.0918ZM162.336 63.3174C162.336 64.6351 162.608 65.6663 163.152 66.4111C163.697 67.1559 164.449 67.5283 165.408 67.5283C166.669 67.5283 167.589 66.9626 168.169 65.8311V60.4922C167.575 59.3965 166.661 58.8486 165.43 58.8486C164.456 58.8486 163.697 59.2246 163.152 59.9766C162.608 60.7285 162.336 61.8421 162.336 63.3174ZM178.073 69.2148C176.498 69.2148 175.216 68.6992 174.228 67.668C173.239 66.6296 172.745 65.2438 172.745 63.5107V63.1455C172.745 61.9925 172.964 60.9648 173.4 60.0625C173.844 59.153 174.46 58.444 175.248 57.9355C176.043 57.4199 176.902 57.1621 177.826 57.1621C179.337 57.1621 180.512 57.6598 181.35 58.6553C182.188 59.6507 182.606 61.0758 182.606 62.9307V63.7578H174.732C174.761 64.9036 175.094 65.8311 175.731 66.54C176.376 67.2419 177.192 67.5928 178.181 67.5928C178.882 67.5928 179.477 67.4495 179.964 67.1631C180.451 66.8766 180.877 66.4971 181.242 66.0244L182.456 66.9697C181.482 68.4665 180.021 69.2148 178.073 69.2148ZM177.826 58.7949C177.024 58.7949 176.351 59.0885 175.807 59.6758C175.262 60.2559 174.926 61.0723 174.797 62.125H180.619V61.9746C180.562 60.9648 180.29 60.1842 179.803 59.6328C179.316 59.0742 178.657 58.7949 177.826 58.7949ZM192.092 69C191.977 68.7708 191.884 68.3626 191.812 67.7754C190.889 68.735 189.786 69.2148 188.504 69.2148C187.358 69.2148 186.416 68.8926 185.679 68.248C184.948 67.5964 184.583 66.7728 184.583 65.7773C184.583 64.5671 185.041 63.6289 185.958 62.9629C186.882 62.2897 188.178 61.9531 189.847 61.9531H191.78V61.04C191.78 60.3454 191.573 59.7939 191.157 59.3857C190.742 58.9704 190.13 58.7627 189.32 58.7627C188.611 58.7627 188.017 58.9417 187.537 59.2998C187.057 59.6579 186.817 60.0911 186.817 60.5996H184.819C184.819 60.0195 185.023 59.4609 185.432 58.9238C185.847 58.3796 186.406 57.9499 187.107 57.6348C187.816 57.3197 188.593 57.1621 189.438 57.1621C190.778 57.1621 191.827 57.4987 192.586 58.1719C193.345 58.8379 193.739 59.7581 193.768 60.9326V66.2822C193.768 67.3493 193.904 68.1979 194.176 68.8281V69H192.092ZM188.794 67.4854C189.417 67.4854 190.008 67.3242 190.566 67.002C191.125 66.6797 191.53 66.2607 191.78 65.7451V63.3604H190.223C187.788 63.3604 186.57 64.0729 186.57 65.498C186.57 66.1211 186.778 66.6081 187.193 66.959C187.609 67.3099 188.142 67.4854 188.794 67.4854ZM199.579 54.5625V57.377H201.749V58.9131H199.579V66.1211C199.579 66.5866 199.676 66.9375 199.869 67.1738C200.062 67.403 200.392 67.5176 200.857 67.5176C201.087 67.5176 201.402 67.4746 201.803 67.3887V69C201.28 69.1432 200.771 69.2148 200.277 69.2148C199.389 69.2148 198.72 68.9463 198.269 68.4092C197.817 67.8721 197.592 67.1094 197.592 66.1211V58.9131H195.476V57.377H197.592V54.5625H199.579ZM206.067 58.7842C206.948 57.7028 208.094 57.1621 209.505 57.1621C211.961 57.1621 213.2 58.5479 213.222 61.3193V69H211.234V61.3086C211.227 60.4707 211.034 59.8512 210.654 59.4502C210.282 59.0492 209.698 58.8486 208.903 58.8486C208.259 58.8486 207.693 59.0205 207.206 59.3643C206.719 59.708 206.34 60.1592 206.067 60.7178V69H204.08V52.5H206.067V58.7842Z" fill="white"/>
</svg>
