<svg width="289" height="54" viewBox="0 0 289 54" fill="none" xmlns="http://www.w3.org/2000/svg">
<g filter="url(#filter0_d_2_62)">
<mask id="path-1-outside-1_2_62" maskUnits="userSpaceOnUse" x="3" y="-1" width="283" height="48" fill="black">
<rect fill="white" x="3" y="-1" width="283" height="48"/>
<path d="M25.1484 27.375C25.1484 26.5781 25.0234 25.875 24.7734 25.2656C24.5391 24.6406 24.1172 24.0781 23.5078 23.5781C22.9141 23.0781 22.0859 22.6016 21.0234 22.1484C19.9766 21.6953 18.6484 21.2344 17.0391 20.7656C15.3516 20.2656 13.8281 19.7109 12.4688 19.1016C11.1094 18.4766 9.94531 17.7656 8.97656 16.9688C8.00781 16.1719 7.26562 15.2578 6.75 14.2266C6.23438 13.1953 5.97656 12.0156 5.97656 10.6875C5.97656 9.35938 6.25 8.13281 6.79688 7.00781C7.34375 5.88281 8.125 4.90625 9.14062 4.07812C10.1719 3.23438 11.3984 2.57812 12.8203 2.10938C14.2422 1.64062 15.8281 1.40625 17.5781 1.40625C20.1406 1.40625 22.3125 1.89844 24.0938 2.88281C25.8906 3.85156 27.2578 5.125 28.1953 6.70312C29.1328 8.26562 29.6016 9.9375 29.6016 11.7188H25.1016C25.1016 10.4375 24.8281 9.30469 24.2812 8.32031C23.7344 7.32031 22.9062 6.53906 21.7969 5.97656C20.6875 5.39844 19.2812 5.10938 17.5781 5.10938C15.9688 5.10938 14.6406 5.35156 13.5938 5.83594C12.5469 6.32031 11.7656 6.97656 11.25 7.80469C10.75 8.63281 10.5 9.57812 10.5 10.6406C10.5 11.3594 10.6484 12.0156 10.9453 12.6094C11.2578 13.1875 11.7344 13.7266 12.375 14.2266C13.0312 14.7266 13.8594 15.1875 14.8594 15.6094C15.875 16.0312 17.0859 16.4375 18.4922 16.8281C20.4297 17.375 22.1016 17.9844 23.5078 18.6562C24.9141 19.3281 26.0703 20.0859 26.9766 20.9297C27.8984 21.7578 28.5781 22.7031 29.0156 23.7656C29.4688 24.8125 29.6953 26 29.6953 27.3281C29.6953 28.7188 29.4141 29.9766 28.8516 31.1016C28.2891 32.2266 27.4844 33.1875 26.4375 33.9844C25.3906 34.7812 24.1328 35.3984 22.6641 35.8359C21.2109 36.2578 19.5859 36.4688 17.7891 36.4688C16.2109 36.4688 14.6562 36.25 13.125 35.8125C11.6094 35.375 10.2266 34.7188 8.97656 33.8438C7.74219 32.9688 6.75 31.8906 6 30.6094C5.26562 29.3125 4.89844 27.8125 4.89844 26.1094H9.39844C9.39844 27.2812 9.625 28.2891 10.0781 29.1328C10.5312 29.9609 11.1484 30.6484 11.9297 31.1953C12.7266 31.7422 13.625 32.1484 14.625 32.4141C15.6406 32.6641 16.6953 32.7891 17.7891 32.7891C19.3672 32.7891 20.7031 32.5703 21.7969 32.1328C22.8906 31.6953 23.7188 31.0703 24.2812 30.2578C24.8594 29.4453 25.1484 28.4844 25.1484 27.375ZM50.7656 45.75V15.5156L51.1406 10.6406H55.125V45.75H50.7656ZM33.7266 23.6016V23.1094C33.7266 21.1719 33.9531 19.4141 34.4062 17.8359C34.8594 16.2422 35.5234 14.875 36.3984 13.7344C37.2734 12.5938 38.3281 11.7188 39.5625 11.1094C40.8125 10.4844 42.2344 10.1719 43.8281 10.1719C45.4219 10.1719 46.8203 10.4531 48.0234 11.0156C49.2422 11.5625 50.2734 12.3672 51.1172 13.4297C51.9766 14.4766 52.6562 15.7422 53.1562 17.2266C53.6562 18.7109 54 20.3906 54.1875 22.2656V24.4219C54.0156 26.2812 53.6797 27.9531 53.1797 29.4375C52.6797 30.9219 52 32.1875 51.1406 33.2344C50.2969 34.2812 49.2578 35.0859 48.0234 35.6484C46.8047 36.1953 45.3906 36.4688 43.7812 36.4688C42.2188 36.4688 40.8125 36.1484 39.5625 35.5078C38.3281 34.8672 37.2734 33.9688 36.3984 32.8125C35.5391 31.6562 34.875 30.2969 34.4062 28.7344C33.9531 27.1562 33.7266 25.4453 33.7266 23.6016ZM38.0859 23.1094V23.6016C38.0859 24.8672 38.2188 26.0625 38.4844 27.1875C38.75 28.2969 39.1562 29.2812 39.7031 30.1406C40.2656 31 40.9688 31.6797 41.8125 32.1797C42.6719 32.6641 43.6875 32.9062 44.8594 32.9062C46.2969 32.9062 47.4922 32.5938 48.4453 31.9688C49.4141 31.3438 50.1875 30.5234 50.7656 29.5078C51.3438 28.4766 51.7891 27.375 52.1016 26.2031V20.5547C51.9297 19.6953 51.6562 18.8594 51.2812 18.0469C50.9219 17.2344 50.4531 16.5078 49.875 15.8672C49.2969 15.2109 48.5938 14.6953 47.7656 14.3203C46.9531 13.9297 46 13.7344 44.9062 13.7344C43.7188 13.7344 42.6953 13.9844 41.8359 14.4844C40.9766 14.9844 40.2656 15.6719 39.7031 16.5469C39.1562 17.4062 38.75 18.3984 38.4844 19.5234C38.2188 20.6484 38.0859 21.8438 38.0859 23.1094ZM77.6016 30.1406V10.6406H81.9609V36H77.8125L77.6016 30.1406ZM78.4219 24.7969L80.2266 24.75C80.2266 26.4375 80.0469 28 79.6875 29.4375C79.3438 30.8594 78.7812 32.0938 78 33.1406C77.2188 34.1875 76.1953 35.0078 74.9297 35.6016C73.6641 36.1797 72.125 36.4688 70.3125 36.4688C69.0781 36.4688 67.9453 36.2891 66.9141 35.9297C65.8984 35.5703 65.0234 35.0156 64.2891 34.2656C63.5547 33.5156 62.9844 32.5391 62.5781 31.3359C62.1875 30.1328 61.9922 28.6875 61.9922 27V10.6406H66.3281V27.0469C66.3281 28.1875 66.4531 29.1328 66.7031 29.8828C66.9688 30.6172 67.3203 31.2031 67.7578 31.6406C68.2109 32.0625 68.7109 32.3594 69.2578 32.5312C69.8203 32.7031 70.3984 32.7891 70.9922 32.7891C72.8359 32.7891 74.2969 32.4375 75.375 31.7344C76.4531 31.0156 77.2266 30.0547 77.6953 28.8516C78.1797 27.6328 78.4219 26.2812 78.4219 24.7969ZM93.2812 10.6406V36H88.9219V10.6406H93.2812ZM88.5938 3.91406C88.5938 3.21094 88.8047 2.61719 89.2266 2.13281C89.6641 1.64844 90.3047 1.40625 91.1484 1.40625C91.9766 1.40625 92.6094 1.64844 93.0469 2.13281C93.5 2.61719 93.7266 3.21094 93.7266 3.91406C93.7266 4.58594 93.5 5.16406 93.0469 5.64844C92.6094 6.11719 91.9766 6.35156 91.1484 6.35156C90.3047 6.35156 89.6641 6.11719 89.2266 5.64844C88.8047 5.16406 88.5938 4.58594 88.5938 3.91406ZM116.227 31.0781V0H120.586V36H116.602L116.227 31.0781ZM99.1641 23.6016V23.1094C99.1641 21.1719 99.3984 19.4141 99.8672 17.8359C100.352 16.2422 101.031 14.875 101.906 13.7344C102.797 12.5938 103.852 11.7188 105.07 11.1094C106.305 10.4844 107.68 10.1719 109.195 10.1719C110.789 10.1719 112.18 10.4531 113.367 11.0156C114.57 11.5625 115.586 12.3672 116.414 13.4297C117.258 14.4766 117.922 15.7422 118.406 17.2266C118.891 18.7109 119.227 20.3906 119.414 22.2656V24.4219C119.242 26.2812 118.906 27.9531 118.406 29.4375C117.922 30.9219 117.258 32.1875 116.414 33.2344C115.586 34.2812 114.57 35.0859 113.367 35.6484C112.164 36.1953 110.758 36.4688 109.148 36.4688C107.664 36.4688 106.305 36.1484 105.07 35.5078C103.852 34.8672 102.797 33.9688 101.906 32.8125C101.031 31.6562 100.352 30.2969 99.8672 28.7344C99.3984 27.1562 99.1641 25.4453 99.1641 23.6016ZM103.523 23.1094V23.6016C103.523 24.8672 103.648 26.0547 103.898 27.1641C104.164 28.2734 104.57 29.25 105.117 30.0938C105.664 30.9375 106.359 31.6016 107.203 32.0859C108.047 32.5547 109.055 32.7891 110.227 32.7891C111.664 32.7891 112.844 32.4844 113.766 31.875C114.703 31.2656 115.453 30.4609 116.016 29.4609C116.578 28.4609 117.016 27.375 117.328 26.2031V20.5547C117.141 19.6953 116.867 18.8672 116.508 18.0703C116.164 17.2578 115.711 16.5391 115.148 15.9141C114.602 15.2734 113.922 14.7656 113.109 14.3906C112.312 14.0156 111.367 13.8281 110.273 13.8281C109.086 13.8281 108.062 14.0781 107.203 14.5781C106.359 15.0625 105.664 15.7344 105.117 16.5938C104.57 17.4375 104.164 18.4219 103.898 19.5469C103.648 20.6562 103.523 21.8438 103.523 23.1094ZM165.117 19.0078V31.5C164.695 32.125 164.023 32.8281 163.102 33.6094C162.18 34.375 160.906 35.0469 159.281 35.625C157.672 36.1875 155.594 36.4688 153.047 36.4688C150.969 36.4688 149.055 36.1094 147.305 35.3906C145.57 34.6562 144.062 33.5938 142.781 32.2031C141.516 30.7969 140.531 29.0938 139.828 27.0938C139.141 25.0781 138.797 22.7969 138.797 20.25V17.6016C138.797 15.0547 139.094 12.7812 139.688 10.7812C140.297 8.78125 141.188 7.08594 142.359 5.69531C143.531 4.28906 144.969 3.22656 146.672 2.50781C148.375 1.77344 150.328 1.40625 152.531 1.40625C155.141 1.40625 157.32 1.85937 159.07 2.76562C160.836 3.65625 162.211 4.89063 163.195 6.46875C164.195 8.04688 164.836 9.84375 165.117 11.8594H160.594C160.391 10.625 159.984 9.5 159.375 8.48438C158.781 7.46875 157.93 6.65625 156.82 6.04688C155.711 5.42187 154.281 5.10938 152.531 5.10938C150.953 5.10938 149.586 5.39844 148.43 5.97656C147.273 6.55469 146.32 7.38281 145.57 8.46094C144.82 9.53906 144.258 10.8438 143.883 12.375C143.523 13.9062 143.344 15.6328 143.344 17.5547V20.25C143.344 22.2188 143.57 23.9766 144.023 25.5234C144.492 27.0703 145.156 28.3906 146.016 29.4844C146.875 30.5625 147.898 31.3828 149.086 31.9453C150.289 32.5078 151.617 32.7891 153.07 32.7891C154.68 32.7891 155.984 32.6562 156.984 32.3906C157.984 32.1094 158.766 31.7812 159.328 31.4062C159.891 31.0156 160.32 30.6484 160.617 30.3047V22.6641H152.719V19.0078H165.117ZM186.914 31.6641V18.6094C186.914 17.6094 186.711 16.7422 186.305 16.0078C185.914 15.2578 185.32 14.6797 184.523 14.2734C183.727 13.8672 182.742 13.6641 181.57 13.6641C180.477 13.6641 179.516 13.8516 178.688 14.2266C177.875 14.6016 177.234 15.0938 176.766 15.7031C176.312 16.3125 176.086 16.9688 176.086 17.6719H171.75C171.75 16.7656 171.984 15.8672 172.453 14.9766C172.922 14.0859 173.594 13.2812 174.469 12.5625C175.359 11.8281 176.422 11.25 177.656 10.8281C178.906 10.3906 180.297 10.1719 181.828 10.1719C183.672 10.1719 185.297 10.4844 186.703 11.1094C188.125 11.7344 189.234 12.6797 190.031 13.9453C190.844 15.1953 191.25 16.7656 191.25 18.6562V30.4688C191.25 31.3125 191.32 32.2109 191.461 33.1641C191.617 34.1172 191.844 34.9375 192.141 35.625V36H187.617C187.398 35.5 187.227 34.8359 187.102 34.0078C186.977 33.1641 186.914 32.3828 186.914 31.6641ZM187.664 20.625L187.711 23.6719H183.328C182.094 23.6719 180.992 23.7734 180.023 23.9766C179.055 24.1641 178.242 24.4531 177.586 24.8438C176.93 25.2344 176.43 25.7266 176.086 26.3203C175.742 26.8984 175.57 27.5781 175.57 28.3594C175.57 29.1562 175.75 29.8828 176.109 30.5391C176.469 31.1953 177.008 31.7188 177.727 32.1094C178.461 32.4844 179.359 32.6719 180.422 32.6719C181.75 32.6719 182.922 32.3906 183.938 31.8281C184.953 31.2656 185.758 30.5781 186.352 29.7656C186.961 28.9531 187.289 28.1641 187.336 27.3984L189.188 29.4844C189.078 30.1406 188.781 30.8672 188.297 31.6641C187.812 32.4609 187.164 33.2266 186.352 33.9609C185.555 34.6797 184.602 35.2812 183.492 35.7656C182.398 36.2344 181.164 36.4688 179.789 36.4688C178.07 36.4688 176.562 36.1328 175.266 35.4609C173.984 34.7891 172.984 33.8906 172.266 32.7656C171.562 31.625 171.211 30.3516 171.211 28.9453C171.211 27.5859 171.477 26.3906 172.008 25.3594C172.539 24.3125 173.305 23.4453 174.305 22.7578C175.305 22.0547 176.508 21.5234 177.914 21.1641C179.32 20.8047 180.891 20.625 182.625 20.625H187.664ZM202.383 15.6797V36H198.023V10.6406H202.148L202.383 15.6797ZM201.492 22.3594L199.477 22.2891C199.492 20.5547 199.719 18.9531 200.156 17.4844C200.594 16 201.242 14.7109 202.102 13.6172C202.961 12.5234 204.031 11.6797 205.312 11.0859C206.594 10.4766 208.078 10.1719 209.766 10.1719C210.953 10.1719 212.047 10.3438 213.047 10.6875C214.047 11.0156 214.914 11.5391 215.648 12.2578C216.383 12.9766 216.953 13.8984 217.359 15.0234C217.766 16.1484 217.969 17.5078 217.969 19.1016V36H213.633V19.3125C213.633 17.9844 213.406 16.9219 212.953 16.125C212.516 15.3281 211.891 14.75 211.078 14.3906C210.266 14.0156 209.312 13.8281 208.219 13.8281C206.938 13.8281 205.867 14.0547 205.008 14.5078C204.148 14.9609 203.461 15.5859 202.945 16.3828C202.43 17.1797 202.055 18.0938 201.82 19.125C201.602 20.1406 201.492 21.2188 201.492 22.3594ZM217.922 19.9688L215.016 20.8594C215.031 19.4688 215.258 18.1328 215.695 16.8516C216.148 15.5703 216.797 14.4297 217.641 13.4297C218.5 12.4297 219.555 11.6406 220.805 11.0625C222.055 10.4688 223.484 10.1719 225.094 10.1719C226.453 10.1719 227.656 10.3516 228.703 10.7109C229.766 11.0703 230.656 11.625 231.375 12.375C232.109 13.1094 232.664 14.0547 233.039 15.2109C233.414 16.3672 233.602 17.7422 233.602 19.3359V36H229.242V19.2891C229.242 17.8672 229.016 16.7656 228.562 15.9844C228.125 15.1875 227.5 14.6328 226.688 14.3203C225.891 13.9922 224.938 13.8281 223.828 13.8281C222.875 13.8281 222.031 13.9922 221.297 14.3203C220.562 14.6484 219.945 15.1016 219.445 15.6797C218.945 16.2422 218.562 16.8906 218.297 17.625C218.047 18.3594 217.922 19.1406 217.922 19.9688ZM250.688 36.4688C248.922 36.4688 247.32 36.1719 245.883 35.5781C244.461 34.9688 243.234 34.1172 242.203 33.0234C241.188 31.9297 240.406 30.6328 239.859 29.1328C239.312 27.6328 239.039 25.9922 239.039 24.2109V23.2266C239.039 21.1641 239.344 19.3281 239.953 17.7188C240.562 16.0938 241.391 14.7188 242.438 13.5938C243.484 12.4688 244.672 11.6172 246 11.0391C247.328 10.4609 248.703 10.1719 250.125 10.1719C251.938 10.1719 253.5 10.4844 254.812 11.1094C256.141 11.7344 257.227 12.6094 258.07 13.7344C258.914 14.8438 259.539 16.1562 259.945 17.6719C260.352 19.1719 260.555 20.8125 260.555 22.5938V24.5391H241.617V21H256.219V20.6719C256.156 19.5469 255.922 18.4531 255.516 17.3906C255.125 16.3281 254.5 15.4531 253.641 14.7656C252.781 14.0781 251.609 13.7344 250.125 13.7344C249.141 13.7344 248.234 13.9453 247.406 14.3672C246.578 14.7734 245.867 15.3828 245.273 16.1953C244.68 17.0078 244.219 18 243.891 19.1719C243.562 20.3438 243.398 21.6953 243.398 23.2266V24.2109C243.398 25.4141 243.562 26.5469 243.891 27.6094C244.234 28.6562 244.727 29.5781 245.367 30.375C246.023 31.1719 246.812 31.7969 247.734 32.25C248.672 32.7031 249.734 32.9297 250.922 32.9297C252.453 32.9297 253.75 32.6172 254.812 31.9922C255.875 31.3672 256.805 30.5312 257.602 29.4844L260.227 31.5703C259.68 32.3984 258.984 33.1875 258.141 33.9375C257.297 34.6875 256.258 35.2969 255.023 35.7656C253.805 36.2344 252.359 36.4688 250.688 36.4688ZM280.383 29.2734C280.383 28.6484 280.242 28.0703 279.961 27.5391C279.695 26.9922 279.141 26.5 278.297 26.0625C277.469 25.6094 276.219 25.2188 274.547 24.8906C273.141 24.5938 271.867 24.2422 270.727 23.8359C269.602 23.4297 268.641 22.9375 267.844 22.3594C267.062 21.7812 266.461 21.1016 266.039 20.3203C265.617 19.5391 265.406 18.625 265.406 17.5781C265.406 16.5781 265.625 15.6328 266.062 14.7422C266.516 13.8516 267.148 13.0625 267.961 12.375C268.789 11.6875 269.781 11.1484 270.938 10.7578C272.094 10.3672 273.383 10.1719 274.805 10.1719C276.836 10.1719 278.57 10.5312 280.008 11.25C281.445 11.9688 282.547 12.9297 283.312 14.1328C284.078 15.3203 284.461 16.6406 284.461 18.0938H280.125C280.125 17.3906 279.914 16.7109 279.492 16.0547C279.086 15.3828 278.484 14.8281 277.688 14.3906C276.906 13.9531 275.945 13.7344 274.805 13.7344C273.602 13.7344 272.625 13.9219 271.875 14.2969C271.141 14.6562 270.602 15.1172 270.258 15.6797C269.93 16.2422 269.766 16.8359 269.766 17.4609C269.766 17.9297 269.844 18.3516 270 18.7266C270.172 19.0859 270.469 19.4219 270.891 19.7344C271.312 20.0312 271.906 20.3125 272.672 20.5781C273.438 20.8438 274.414 21.1094 275.602 21.375C277.68 21.8438 279.391 22.4062 280.734 23.0625C282.078 23.7188 283.078 24.5234 283.734 25.4766C284.391 26.4297 284.719 27.5859 284.719 28.9453C284.719 30.0547 284.484 31.0703 284.016 31.9922C283.562 32.9141 282.898 33.7109 282.023 34.3828C281.164 35.0391 280.133 35.5547 278.93 35.9297C277.742 36.2891 276.406 36.4688 274.922 36.4688C272.688 36.4688 270.797 36.0703 269.25 35.2734C267.703 34.4766 266.531 33.4453 265.734 32.1797C264.938 30.9141 264.539 29.5781 264.539 28.1719H268.898C268.961 29.3594 269.305 30.3047 269.93 31.0078C270.555 31.6953 271.32 32.1875 272.227 32.4844C273.133 32.7656 274.031 32.9062 274.922 32.9062C276.109 32.9062 277.102 32.75 277.898 32.4375C278.711 32.125 279.328 31.6953 279.75 31.1484C280.172 30.6016 280.383 29.9766 280.383 29.2734Z"/>
</mask>
<path d="M25.1484 27.375C25.1484 26.5781 25.0234 25.875 24.7734 25.2656C24.5391 24.6406 24.1172 24.0781 23.5078 23.5781C22.9141 23.0781 22.0859 22.6016 21.0234 22.1484C19.9766 21.6953 18.6484 21.2344 17.0391 20.7656C15.3516 20.2656 13.8281 19.7109 12.4688 19.1016C11.1094 18.4766 9.94531 17.7656 8.97656 16.9688C8.00781 16.1719 7.26562 15.2578 6.75 14.2266C6.23438 13.1953 5.97656 12.0156 5.97656 10.6875C5.97656 9.35938 6.25 8.13281 6.79688 7.00781C7.34375 5.88281 8.125 4.90625 9.14062 4.07812C10.1719 3.23438 11.3984 2.57812 12.8203 2.10938C14.2422 1.64062 15.8281 1.40625 17.5781 1.40625C20.1406 1.40625 22.3125 1.89844 24.0938 2.88281C25.8906 3.85156 27.2578 5.125 28.1953 6.70312C29.1328 8.26562 29.6016 9.9375 29.6016 11.7188H25.1016C25.1016 10.4375 24.8281 9.30469 24.2812 8.32031C23.7344 7.32031 22.9062 6.53906 21.7969 5.97656C20.6875 5.39844 19.2812 5.10938 17.5781 5.10938C15.9688 5.10938 14.6406 5.35156 13.5938 5.83594C12.5469 6.32031 11.7656 6.97656 11.25 7.80469C10.75 8.63281 10.5 9.57812 10.5 10.6406C10.5 11.3594 10.6484 12.0156 10.9453 12.6094C11.2578 13.1875 11.7344 13.7266 12.375 14.2266C13.0312 14.7266 13.8594 15.1875 14.8594 15.6094C15.875 16.0312 17.0859 16.4375 18.4922 16.8281C20.4297 17.375 22.1016 17.9844 23.5078 18.6562C24.9141 19.3281 26.0703 20.0859 26.9766 20.9297C27.8984 21.7578 28.5781 22.7031 29.0156 23.7656C29.4688 24.8125 29.6953 26 29.6953 27.3281C29.6953 28.7188 29.4141 29.9766 28.8516 31.1016C28.2891 32.2266 27.4844 33.1875 26.4375 33.9844C25.3906 34.7812 24.1328 35.3984 22.6641 35.8359C21.2109 36.2578 19.5859 36.4688 17.7891 36.4688C16.2109 36.4688 14.6562 36.25 13.125 35.8125C11.6094 35.375 10.2266 34.7188 8.97656 33.8438C7.74219 32.9688 6.75 31.8906 6 30.6094C5.26562 29.3125 4.89844 27.8125 4.89844 26.1094H9.39844C9.39844 27.2812 9.625 28.2891 10.0781 29.1328C10.5312 29.9609 11.1484 30.6484 11.9297 31.1953C12.7266 31.7422 13.625 32.1484 14.625 32.4141C15.6406 32.6641 16.6953 32.7891 17.7891 32.7891C19.3672 32.7891 20.7031 32.5703 21.7969 32.1328C22.8906 31.6953 23.7188 31.0703 24.2812 30.2578C24.8594 29.4453 25.1484 28.4844 25.1484 27.375ZM50.7656 45.75V15.5156L51.1406 10.6406H55.125V45.75H50.7656ZM33.7266 23.6016V23.1094C33.7266 21.1719 33.9531 19.4141 34.4062 17.8359C34.8594 16.2422 35.5234 14.875 36.3984 13.7344C37.2734 12.5938 38.3281 11.7188 39.5625 11.1094C40.8125 10.4844 42.2344 10.1719 43.8281 10.1719C45.4219 10.1719 46.8203 10.4531 48.0234 11.0156C49.2422 11.5625 50.2734 12.3672 51.1172 13.4297C51.9766 14.4766 52.6562 15.7422 53.1562 17.2266C53.6562 18.7109 54 20.3906 54.1875 22.2656V24.4219C54.0156 26.2812 53.6797 27.9531 53.1797 29.4375C52.6797 30.9219 52 32.1875 51.1406 33.2344C50.2969 34.2812 49.2578 35.0859 48.0234 35.6484C46.8047 36.1953 45.3906 36.4688 43.7812 36.4688C42.2188 36.4688 40.8125 36.1484 39.5625 35.5078C38.3281 34.8672 37.2734 33.9688 36.3984 32.8125C35.5391 31.6562 34.875 30.2969 34.4062 28.7344C33.9531 27.1562 33.7266 25.4453 33.7266 23.6016ZM38.0859 23.1094V23.6016C38.0859 24.8672 38.2188 26.0625 38.4844 27.1875C38.75 28.2969 39.1562 29.2812 39.7031 30.1406C40.2656 31 40.9688 31.6797 41.8125 32.1797C42.6719 32.6641 43.6875 32.9062 44.8594 32.9062C46.2969 32.9062 47.4922 32.5938 48.4453 31.9688C49.4141 31.3438 50.1875 30.5234 50.7656 29.5078C51.3438 28.4766 51.7891 27.375 52.1016 26.2031V20.5547C51.9297 19.6953 51.6562 18.8594 51.2812 18.0469C50.9219 17.2344 50.4531 16.5078 49.875 15.8672C49.2969 15.2109 48.5938 14.6953 47.7656 14.3203C46.9531 13.9297 46 13.7344 44.9062 13.7344C43.7188 13.7344 42.6953 13.9844 41.8359 14.4844C40.9766 14.9844 40.2656 15.6719 39.7031 16.5469C39.1562 17.4062 38.75 18.3984 38.4844 19.5234C38.2188 20.6484 38.0859 21.8438 38.0859 23.1094ZM77.6016 30.1406V10.6406H81.9609V36H77.8125L77.6016 30.1406ZM78.4219 24.7969L80.2266 24.75C80.2266 26.4375 80.0469 28 79.6875 29.4375C79.3438 30.8594 78.7812 32.0938 78 33.1406C77.2188 34.1875 76.1953 35.0078 74.9297 35.6016C73.6641 36.1797 72.125 36.4688 70.3125 36.4688C69.0781 36.4688 67.9453 36.2891 66.9141 35.9297C65.8984 35.5703 65.0234 35.0156 64.2891 34.2656C63.5547 33.5156 62.9844 32.5391 62.5781 31.3359C62.1875 30.1328 61.9922 28.6875 61.9922 27V10.6406H66.3281V27.0469C66.3281 28.1875 66.4531 29.1328 66.7031 29.8828C66.9688 30.6172 67.3203 31.2031 67.7578 31.6406C68.2109 32.0625 68.7109 32.3594 69.2578 32.5312C69.8203 32.7031 70.3984 32.7891 70.9922 32.7891C72.8359 32.7891 74.2969 32.4375 75.375 31.7344C76.4531 31.0156 77.2266 30.0547 77.6953 28.8516C78.1797 27.6328 78.4219 26.2812 78.4219 24.7969ZM93.2812 10.6406V36H88.9219V10.6406H93.2812ZM88.5938 3.91406C88.5938 3.21094 88.8047 2.61719 89.2266 2.13281C89.6641 1.64844 90.3047 1.40625 91.1484 1.40625C91.9766 1.40625 92.6094 1.64844 93.0469 2.13281C93.5 2.61719 93.7266 3.21094 93.7266 3.91406C93.7266 4.58594 93.5 5.16406 93.0469 5.64844C92.6094 6.11719 91.9766 6.35156 91.1484 6.35156C90.3047 6.35156 89.6641 6.11719 89.2266 5.64844C88.8047 5.16406 88.5938 4.58594 88.5938 3.91406ZM116.227 31.0781V0H120.586V36H116.602L116.227 31.0781ZM99.1641 23.6016V23.1094C99.1641 21.1719 99.3984 19.4141 99.8672 17.8359C100.352 16.2422 101.031 14.875 101.906 13.7344C102.797 12.5938 103.852 11.7188 105.07 11.1094C106.305 10.4844 107.68 10.1719 109.195 10.1719C110.789 10.1719 112.18 10.4531 113.367 11.0156C114.57 11.5625 115.586 12.3672 116.414 13.4297C117.258 14.4766 117.922 15.7422 118.406 17.2266C118.891 18.7109 119.227 20.3906 119.414 22.2656V24.4219C119.242 26.2812 118.906 27.9531 118.406 29.4375C117.922 30.9219 117.258 32.1875 116.414 33.2344C115.586 34.2812 114.57 35.0859 113.367 35.6484C112.164 36.1953 110.758 36.4688 109.148 36.4688C107.664 36.4688 106.305 36.1484 105.07 35.5078C103.852 34.8672 102.797 33.9688 101.906 32.8125C101.031 31.6562 100.352 30.2969 99.8672 28.7344C99.3984 27.1562 99.1641 25.4453 99.1641 23.6016ZM103.523 23.1094V23.6016C103.523 24.8672 103.648 26.0547 103.898 27.1641C104.164 28.2734 104.57 29.25 105.117 30.0938C105.664 30.9375 106.359 31.6016 107.203 32.0859C108.047 32.5547 109.055 32.7891 110.227 32.7891C111.664 32.7891 112.844 32.4844 113.766 31.875C114.703 31.2656 115.453 30.4609 116.016 29.4609C116.578 28.4609 117.016 27.375 117.328 26.2031V20.5547C117.141 19.6953 116.867 18.8672 116.508 18.0703C116.164 17.2578 115.711 16.5391 115.148 15.9141C114.602 15.2734 113.922 14.7656 113.109 14.3906C112.312 14.0156 111.367 13.8281 110.273 13.8281C109.086 13.8281 108.062 14.0781 107.203 14.5781C106.359 15.0625 105.664 15.7344 105.117 16.5938C104.57 17.4375 104.164 18.4219 103.898 19.5469C103.648 20.6562 103.523 21.8438 103.523 23.1094ZM165.117 19.0078V31.5C164.695 32.125 164.023 32.8281 163.102 33.6094C162.18 34.375 160.906 35.0469 159.281 35.625C157.672 36.1875 155.594 36.4688 153.047 36.4688C150.969 36.4688 149.055 36.1094 147.305 35.3906C145.57 34.6562 144.062 33.5938 142.781 32.2031C141.516 30.7969 140.531 29.0938 139.828 27.0938C139.141 25.0781 138.797 22.7969 138.797 20.25V17.6016C138.797 15.0547 139.094 12.7812 139.688 10.7812C140.297 8.78125 141.188 7.08594 142.359 5.69531C143.531 4.28906 144.969 3.22656 146.672 2.50781C148.375 1.77344 150.328 1.40625 152.531 1.40625C155.141 1.40625 157.32 1.85937 159.07 2.76562C160.836 3.65625 162.211 4.89063 163.195 6.46875C164.195 8.04688 164.836 9.84375 165.117 11.8594H160.594C160.391 10.625 159.984 9.5 159.375 8.48438C158.781 7.46875 157.93 6.65625 156.82 6.04688C155.711 5.42187 154.281 5.10938 152.531 5.10938C150.953 5.10938 149.586 5.39844 148.43 5.97656C147.273 6.55469 146.32 7.38281 145.57 8.46094C144.82 9.53906 144.258 10.8438 143.883 12.375C143.523 13.9062 143.344 15.6328 143.344 17.5547V20.25C143.344 22.2188 143.57 23.9766 144.023 25.5234C144.492 27.0703 145.156 28.3906 146.016 29.4844C146.875 30.5625 147.898 31.3828 149.086 31.9453C150.289 32.5078 151.617 32.7891 153.07 32.7891C154.68 32.7891 155.984 32.6562 156.984 32.3906C157.984 32.1094 158.766 31.7812 159.328 31.4062C159.891 31.0156 160.32 30.6484 160.617 30.3047V22.6641H152.719V19.0078H165.117ZM186.914 31.6641V18.6094C186.914 17.6094 186.711 16.7422 186.305 16.0078C185.914 15.2578 185.32 14.6797 184.523 14.2734C183.727 13.8672 182.742 13.6641 181.57 13.6641C180.477 13.6641 179.516 13.8516 178.688 14.2266C177.875 14.6016 177.234 15.0938 176.766 15.7031C176.312 16.3125 176.086 16.9688 176.086 17.6719H171.75C171.75 16.7656 171.984 15.8672 172.453 14.9766C172.922 14.0859 173.594 13.2812 174.469 12.5625C175.359 11.8281 176.422 11.25 177.656 10.8281C178.906 10.3906 180.297 10.1719 181.828 10.1719C183.672 10.1719 185.297 10.4844 186.703 11.1094C188.125 11.7344 189.234 12.6797 190.031 13.9453C190.844 15.1953 191.25 16.7656 191.25 18.6562V30.4688C191.25 31.3125 191.32 32.2109 191.461 33.1641C191.617 34.1172 191.844 34.9375 192.141 35.625V36H187.617C187.398 35.5 187.227 34.8359 187.102 34.0078C186.977 33.1641 186.914 32.3828 186.914 31.6641ZM187.664 20.625L187.711 23.6719H183.328C182.094 23.6719 180.992 23.7734 180.023 23.9766C179.055 24.1641 178.242 24.4531 177.586 24.8438C176.93 25.2344 176.43 25.7266 176.086 26.3203C175.742 26.8984 175.57 27.5781 175.57 28.3594C175.57 29.1562 175.75 29.8828 176.109 30.5391C176.469 31.1953 177.008 31.7188 177.727 32.1094C178.461 32.4844 179.359 32.6719 180.422 32.6719C181.75 32.6719 182.922 32.3906 183.938 31.8281C184.953 31.2656 185.758 30.5781 186.352 29.7656C186.961 28.9531 187.289 28.1641 187.336 27.3984L189.188 29.4844C189.078 30.1406 188.781 30.8672 188.297 31.6641C187.812 32.4609 187.164 33.2266 186.352 33.9609C185.555 34.6797 184.602 35.2812 183.492 35.7656C182.398 36.2344 181.164 36.4688 179.789 36.4688C178.07 36.4688 176.562 36.1328 175.266 35.4609C173.984 34.7891 172.984 33.8906 172.266 32.7656C171.562 31.625 171.211 30.3516 171.211 28.9453C171.211 27.5859 171.477 26.3906 172.008 25.3594C172.539 24.3125 173.305 23.4453 174.305 22.7578C175.305 22.0547 176.508 21.5234 177.914 21.1641C179.32 20.8047 180.891 20.625 182.625 20.625H187.664ZM202.383 15.6797V36H198.023V10.6406H202.148L202.383 15.6797ZM201.492 22.3594L199.477 22.2891C199.492 20.5547 199.719 18.9531 200.156 17.4844C200.594 16 201.242 14.7109 202.102 13.6172C202.961 12.5234 204.031 11.6797 205.312 11.0859C206.594 10.4766 208.078 10.1719 209.766 10.1719C210.953 10.1719 212.047 10.3438 213.047 10.6875C214.047 11.0156 214.914 11.5391 215.648 12.2578C216.383 12.9766 216.953 13.8984 217.359 15.0234C217.766 16.1484 217.969 17.5078 217.969 19.1016V36H213.633V19.3125C213.633 17.9844 213.406 16.9219 212.953 16.125C212.516 15.3281 211.891 14.75 211.078 14.3906C210.266 14.0156 209.312 13.8281 208.219 13.8281C206.938 13.8281 205.867 14.0547 205.008 14.5078C204.148 14.9609 203.461 15.5859 202.945 16.3828C202.43 17.1797 202.055 18.0938 201.82 19.125C201.602 20.1406 201.492 21.2188 201.492 22.3594ZM217.922 19.9688L215.016 20.8594C215.031 19.4688 215.258 18.1328 215.695 16.8516C216.148 15.5703 216.797 14.4297 217.641 13.4297C218.5 12.4297 219.555 11.6406 220.805 11.0625C222.055 10.4688 223.484 10.1719 225.094 10.1719C226.453 10.1719 227.656 10.3516 228.703 10.7109C229.766 11.0703 230.656 11.625 231.375 12.375C232.109 13.1094 232.664 14.0547 233.039 15.2109C233.414 16.3672 233.602 17.7422 233.602 19.3359V36H229.242V19.2891C229.242 17.8672 229.016 16.7656 228.562 15.9844C228.125 15.1875 227.5 14.6328 226.688 14.3203C225.891 13.9922 224.938 13.8281 223.828 13.8281C222.875 13.8281 222.031 13.9922 221.297 14.3203C220.562 14.6484 219.945 15.1016 219.445 15.6797C218.945 16.2422 218.562 16.8906 218.297 17.625C218.047 18.3594 217.922 19.1406 217.922 19.9688ZM250.688 36.4688C248.922 36.4688 247.32 36.1719 245.883 35.5781C244.461 34.9688 243.234 34.1172 242.203 33.0234C241.188 31.9297 240.406 30.6328 239.859 29.1328C239.312 27.6328 239.039 25.9922 239.039 24.2109V23.2266C239.039 21.1641 239.344 19.3281 239.953 17.7188C240.562 16.0938 241.391 14.7188 242.438 13.5938C243.484 12.4688 244.672 11.6172 246 11.0391C247.328 10.4609 248.703 10.1719 250.125 10.1719C251.938 10.1719 253.5 10.4844 254.812 11.1094C256.141 11.7344 257.227 12.6094 258.07 13.7344C258.914 14.8438 259.539 16.1562 259.945 17.6719C260.352 19.1719 260.555 20.8125 260.555 22.5938V24.5391H241.617V21H256.219V20.6719C256.156 19.5469 255.922 18.4531 255.516 17.3906C255.125 16.3281 254.5 15.4531 253.641 14.7656C252.781 14.0781 251.609 13.7344 250.125 13.7344C249.141 13.7344 248.234 13.9453 247.406 14.3672C246.578 14.7734 245.867 15.3828 245.273 16.1953C244.68 17.0078 244.219 18 243.891 19.1719C243.562 20.3438 243.398 21.6953 243.398 23.2266V24.2109C243.398 25.4141 243.562 26.5469 243.891 27.6094C244.234 28.6562 244.727 29.5781 245.367 30.375C246.023 31.1719 246.812 31.7969 247.734 32.25C248.672 32.7031 249.734 32.9297 250.922 32.9297C252.453 32.9297 253.75 32.6172 254.812 31.9922C255.875 31.3672 256.805 30.5312 257.602 29.4844L260.227 31.5703C259.68 32.3984 258.984 33.1875 258.141 33.9375C257.297 34.6875 256.258 35.2969 255.023 35.7656C253.805 36.2344 252.359 36.4688 250.688 36.4688ZM280.383 29.2734C280.383 28.6484 280.242 28.0703 279.961 27.5391C279.695 26.9922 279.141 26.5 278.297 26.0625C277.469 25.6094 276.219 25.2188 274.547 24.8906C273.141 24.5938 271.867 24.2422 270.727 23.8359C269.602 23.4297 268.641 22.9375 267.844 22.3594C267.062 21.7812 266.461 21.1016 266.039 20.3203C265.617 19.5391 265.406 18.625 265.406 17.5781C265.406 16.5781 265.625 15.6328 266.062 14.7422C266.516 13.8516 267.148 13.0625 267.961 12.375C268.789 11.6875 269.781 11.1484 270.938 10.7578C272.094 10.3672 273.383 10.1719 274.805 10.1719C276.836 10.1719 278.57 10.5312 280.008 11.25C281.445 11.9688 282.547 12.9297 283.312 14.1328C284.078 15.3203 284.461 16.6406 284.461 18.0938H280.125C280.125 17.3906 279.914 16.7109 279.492 16.0547C279.086 15.3828 278.484 14.8281 277.688 14.3906C276.906 13.9531 275.945 13.7344 274.805 13.7344C273.602 13.7344 272.625 13.9219 271.875 14.2969C271.141 14.6562 270.602 15.1172 270.258 15.6797C269.93 16.2422 269.766 16.8359 269.766 17.4609C269.766 17.9297 269.844 18.3516 270 18.7266C270.172 19.0859 270.469 19.4219 270.891 19.7344C271.312 20.0312 271.906 20.3125 272.672 20.5781C273.438 20.8438 274.414 21.1094 275.602 21.375C277.68 21.8438 279.391 22.4062 280.734 23.0625C282.078 23.7188 283.078 24.5234 283.734 25.4766C284.391 26.4297 284.719 27.5859 284.719 28.9453C284.719 30.0547 284.484 31.0703 284.016 31.9922C283.562 32.9141 282.898 33.7109 282.023 34.3828C281.164 35.0391 280.133 35.5547 278.93 35.9297C277.742 36.2891 276.406 36.4688 274.922 36.4688C272.688 36.4688 270.797 36.0703 269.25 35.2734C267.703 34.4766 266.531 33.4453 265.734 32.1797C264.938 30.9141 264.539 29.5781 264.539 28.1719H268.898C268.961 29.3594 269.305 30.3047 269.93 31.0078C270.555 31.6953 271.32 32.1875 272.227 32.4844C273.133 32.7656 274.031 32.9062 274.922 32.9062C276.109 32.9062 277.102 32.75 277.898 32.4375C278.711 32.125 279.328 31.6953 279.75 31.1484C280.172 30.6016 280.383 29.9766 280.383 29.2734Z" fill="#D9D9D9"/>
<path d="M24.7734 25.2656L23.8371 25.6167L23.8425 25.6311L23.8483 25.6452L24.7734 25.2656ZM23.5078 23.5781L22.8636 24.3431L22.8735 24.3512L23.5078 23.5781ZM21.0234 22.1484L20.6262 23.0662L20.6312 23.0683L21.0234 22.1484ZM17.0391 20.7656L16.755 21.7244L16.7594 21.7257L17.0391 20.7656ZM12.4688 19.1016L12.051 20.0102L12.0597 20.0141L12.4688 19.1016ZM9.14062 4.07812L9.77256 4.85314L9.77386 4.85208L9.14062 4.07812ZM24.0938 2.88281L23.61 3.7581L23.6192 3.76304L24.0938 2.88281ZM28.1953 6.70312L27.3356 7.21387L27.3378 7.21762L28.1953 6.70312ZM29.6016 11.7188V12.7188H30.6016V11.7188H29.6016ZM25.1016 11.7188H24.1016V12.7188H25.1016V11.7188ZM24.2812 8.32031L23.4039 8.80013L23.4071 8.80596L24.2812 8.32031ZM21.7969 5.97656L21.3347 6.86343L21.3446 6.86846L21.7969 5.97656ZM11.25 7.80469L10.401 7.27608L10.3939 7.28782L11.25 7.80469ZM10.9453 12.6094L10.0509 13.0566L10.058 13.0709L10.0656 13.0849L10.9453 12.6094ZM12.375 14.2266L11.7597 15.0149L11.769 15.022L12.375 14.2266ZM14.8594 15.6094L14.4707 16.5308L14.4758 16.5329L14.8594 15.6094ZM18.4922 16.8281L18.7638 15.8657L18.7598 15.8646L18.4922 16.8281ZM26.9766 20.9297L26.2951 21.6616L26.3017 21.6677L26.3083 21.6736L26.9766 20.9297ZM29.0156 23.7656L28.0909 24.1464L28.0944 24.1546L28.0979 24.1628L29.0156 23.7656ZM22.6641 35.8359L22.9429 36.7963L22.9495 36.7943L22.6641 35.8359ZM13.125 35.8125L12.8477 36.7733L12.8503 36.774L13.125 35.8125ZM8.97656 33.8438L8.39825 34.6596L8.4031 34.663L8.97656 33.8438ZM6 30.6094L5.12983 31.1021L5.13336 31.1084L5.13699 31.1146L6 30.6094ZM4.89844 26.1094V25.1094H3.89844V26.1094H4.89844ZM9.39844 26.1094H10.3984V25.1094H9.39844V26.1094ZM10.0781 29.1328L9.1971 29.606L9.20086 29.6128L10.0781 29.1328ZM11.9297 31.1953L11.3562 32.0146L11.3638 32.0198L11.9297 31.1953ZM14.625 32.4141L14.3683 33.3805L14.3771 33.3829L14.386 33.3851L14.625 32.4141ZM24.2812 30.2578L23.4664 29.678L23.4591 29.6886L24.2812 30.2578ZM26.1484 27.375C26.1484 26.4746 26.0072 25.6383 25.6986 24.8861L23.8483 25.6452C24.0397 26.1117 24.1484 26.6817 24.1484 27.375H26.1484ZM25.7098 24.9145C25.4032 24.0971 24.8628 23.3964 24.1421 22.8051L22.8735 24.3512C23.3716 24.7599 23.6749 25.1841 23.8371 25.6167L25.7098 24.9145ZM24.1519 22.8132C23.4551 22.2264 22.5295 21.7036 21.4157 21.2286L20.6312 23.0683C21.6424 23.4995 22.373 23.9298 22.8637 24.343L24.1519 22.8132ZM21.4207 21.2307C20.3223 20.7553 18.9514 20.2811 17.3187 19.8055L16.7594 21.7257C18.3455 22.1877 19.6308 22.6353 20.6262 23.0662L21.4207 21.2307ZM17.3232 19.8068C15.6709 19.3173 14.1901 18.7773 12.8778 18.1891L12.0597 20.0141C13.4661 20.6445 15.0322 21.214 16.755 21.7244L17.3232 19.8068ZM12.8865 18.193C11.5907 17.5972 10.5029 16.9295 9.61183 16.1965L8.34129 17.741C9.38769 18.6018 10.6281 19.3559 12.051 20.0101L12.8865 18.193ZM9.61183 16.1965C8.74167 15.4807 8.09205 14.6746 7.64443 13.7793L5.85557 14.6738C6.4392 15.841 7.27396 16.8631 8.34129 17.741L9.61183 16.1965ZM7.64443 13.7793C7.20808 12.9067 6.97656 11.884 6.97656 10.6875H4.97656C4.97656 12.1472 5.26067 13.484 5.85557 14.6738L7.64443 13.7793ZM6.97656 10.6875C6.97656 9.50127 7.21965 8.42542 7.69624 7.44501L5.89751 6.57062C5.28035 7.84021 4.97656 9.21748 4.97656 10.6875H6.97656ZM7.69624 7.44501C8.17655 6.45694 8.86408 5.59391 9.77256 4.85314L8.50869 3.30311C7.38592 4.21859 6.51095 5.30869 5.89751 6.57062L7.69624 7.44501ZM9.77386 4.85208C10.6991 4.09509 11.8138 3.49413 13.1334 3.0591L12.5072 1.15965C10.9831 1.66212 9.64467 2.37366 8.50739 3.30417L9.77386 4.85208ZM13.1334 3.0591C14.4388 2.62873 15.917 2.40625 17.5781 2.40625V0.40625C15.7393 0.40625 14.0455 0.652517 12.5072 1.15965L13.1334 3.0591ZM17.5781 2.40625C20.0145 2.40625 22.0105 2.87408 23.6101 3.75805L24.5774 2.00757C22.6145 0.922796 20.2668 0.40625 17.5781 0.40625V2.40625ZM23.6192 3.76304C25.2749 4.6557 26.5007 5.80854 27.3356 7.21386L29.055 6.19239C28.0149 4.44146 26.5063 3.04742 24.5683 2.00259L23.6192 3.76304ZM27.3378 7.21762C28.1843 8.62846 28.6016 10.1231 28.6016 11.7188H30.6016C30.6016 9.75193 30.0813 7.90279 29.0528 6.18863L27.3378 7.21762ZM29.6016 10.7188H25.1016V12.7188H29.6016V10.7188ZM26.1016 11.7188C26.1016 10.2913 25.7956 8.98706 25.1554 7.83467L23.4071 8.80596C23.8606 9.62231 24.1016 10.5837 24.1016 11.7188H26.1016ZM25.1586 7.8405C24.506 6.64716 23.5213 5.72973 22.2491 5.08466L21.3446 6.86846C22.2912 7.34839 22.9627 7.99346 23.4039 8.80013L25.1586 7.8405ZM22.259 5.08976C20.9648 4.41532 19.3868 4.10938 17.5781 4.10938V6.10938C19.1757 6.10938 20.4102 6.38156 21.3347 6.86337L22.259 5.08976ZM17.5781 4.10938C15.8774 4.10938 14.3936 4.36401 13.1738 4.92838L14.0137 6.7435C14.8877 6.33911 16.0601 6.10938 17.5781 6.10938V4.10938ZM13.1738 4.92838C11.9829 5.47939 11.0373 6.25431 10.4011 7.27613L12.0989 8.33325C12.4939 7.69881 13.1108 7.16124 14.0137 6.7435L13.1738 4.92838ZM10.3939 7.28782C9.79065 8.28701 9.5 9.41443 9.5 10.6406H11.5C11.5 9.74182 11.7093 8.97862 12.1061 8.32156L10.3939 7.28782ZM9.5 10.6406C9.5 11.5015 9.67895 12.3127 10.0509 13.0566L11.8397 12.1622C11.6179 11.7185 11.5 11.2172 11.5 10.6406H9.5ZM10.0656 13.0849C10.4573 13.8095 11.0353 14.4495 11.7597 15.0149L12.9903 13.4382C12.4334 13.0036 12.0583 12.5655 11.825 12.1339L10.0656 13.0849ZM11.769 15.022C12.5093 15.586 13.416 16.0858 14.4707 16.5307L15.2481 14.688C14.3027 14.2892 13.5532 13.8671 12.981 13.4311L11.769 15.022ZM14.4758 16.5329C15.5391 16.9746 16.7908 17.3934 18.2245 17.7916L18.7598 15.8646C17.3811 15.4816 16.2109 15.0879 15.243 14.6859L14.4758 16.5329ZM18.2205 17.7905C20.1182 18.3261 21.7341 18.9171 23.0767 19.5586L23.9389 17.7539C22.469 17.0517 20.7412 16.4239 18.7638 15.8657L18.2205 17.7905ZM23.0767 19.5586C24.4139 20.1974 25.4795 20.9022 26.2951 21.6616L27.658 20.1978C26.6611 19.2697 25.4142 18.4588 23.9389 17.7539L23.0767 19.5586ZM26.3083 21.6736C27.1275 22.4095 27.715 23.2333 28.0909 24.1464L29.9403 23.3849C29.4413 22.1729 28.6694 21.1062 27.6448 20.1858L26.3083 21.6736ZM28.0979 24.1628C28.4886 25.0654 28.6953 26.1144 28.6953 27.3281H30.6953C30.6953 25.8856 30.4489 24.5596 29.9333 23.3684L28.0979 24.1628ZM28.6953 27.3281C28.6953 28.5801 28.4431 29.6823 27.9571 30.6544L29.746 31.5488C30.385 30.2708 30.6953 28.8574 30.6953 27.3281H28.6953ZM27.9571 30.6544C27.4661 31.6363 26.7628 32.48 25.8318 33.1887L27.0432 34.7801C28.2059 33.895 29.112 32.8168 29.746 31.5488L27.9571 30.6544ZM25.8318 33.1887C24.8954 33.9015 23.7504 34.4689 22.3786 34.8776L22.9495 36.7943C24.5152 36.3279 25.8858 35.661 27.0432 34.7801L25.8318 33.1887ZM22.3853 34.8756C21.0378 35.2668 19.5087 35.4688 17.7891 35.4688V37.4688C19.6632 37.4688 21.3841 37.2488 22.9429 36.7963L22.3853 34.8756ZM17.7891 35.4688C16.3047 35.4688 14.8425 35.2632 13.3997 34.851L12.8503 36.774C14.47 37.2368 16.1172 37.4688 17.7891 37.4688V35.4688ZM13.4023 34.8517C11.9889 34.4437 10.7067 33.8342 9.55002 33.0245L8.4031 34.663C9.74638 35.6033 11.2298 36.3063 12.8477 36.7733L13.4023 34.8517ZM9.55487 33.0279C8.4341 32.2335 7.53985 31.2605 6.86301 30.1042L5.13699 31.1146C5.96015 32.5208 7.05028 33.704 8.39826 34.6596L9.55487 33.0279ZM6.87017 30.1166C6.23242 28.9904 5.89844 27.6648 5.89844 26.1094H3.89844C3.89844 27.9602 4.29883 29.6346 5.12983 31.1021L6.87017 30.1166ZM4.89844 27.1094H9.39844V25.1094H4.89844V27.1094ZM8.39844 26.1094C8.39844 27.4099 8.65026 28.5876 9.19713 29.6059L10.9591 28.6597C10.5997 27.9905 10.3984 27.1526 10.3984 26.1094H8.39844ZM9.20086 29.6128C9.7286 30.5773 10.4503 31.3804 11.3562 32.0145L12.5031 30.3761C11.8466 29.9165 11.3339 29.3446 10.9554 28.6528L9.20086 29.6128ZM11.3638 32.0198C12.2613 32.6358 13.2657 33.0877 14.3683 33.3805L14.8817 31.4476C13.9843 31.2092 13.1918 30.8486 12.4955 30.3708L11.3638 32.0198ZM14.386 33.3851C15.4833 33.6552 16.6184 33.7891 17.7891 33.7891V31.7891C16.7722 31.7891 15.7979 31.6729 14.864 31.443L14.386 33.3851ZM17.7891 33.7891C19.4537 33.7891 20.9237 33.5591 22.1683 33.0613L21.4255 31.2043C20.4825 31.5815 19.2807 31.7891 17.7891 31.7891V33.7891ZM22.1683 33.0613C23.4087 32.5651 24.4092 31.8298 25.1034 30.827L23.4591 29.6886C23.0283 30.3108 22.3725 30.8255 21.4255 31.2043L22.1683 33.0613ZM25.096 30.8376C25.8081 29.8369 26.1484 28.6677 26.1484 27.375H24.1484C24.1484 28.301 23.9107 29.0538 23.4665 29.6781L25.096 30.8376ZM50.7656 45.75H49.7656V46.75H50.7656V45.75ZM50.7656 15.5156L49.7686 15.4389L49.7656 15.4772V15.5156H50.7656ZM51.1406 10.6406V9.64062H50.2146L50.1436 10.5639L51.1406 10.6406ZM55.125 10.6406H56.125V9.64062H55.125V10.6406ZM55.125 45.75V46.75H56.125V45.75H55.125ZM34.4062 17.8359L35.3674 18.1119L35.3681 18.1094L34.4062 17.8359ZM39.5625 11.1094L40.0052 12.0061L40.0097 12.0038L39.5625 11.1094ZM48.0234 11.0156L47.5999 11.9215L47.607 11.9248L47.614 11.928L48.0234 11.0156ZM51.1172 13.4297L50.3341 14.0516L50.3391 14.0579L50.3443 14.0642L51.1172 13.4297ZM54.1875 22.2656H55.1875V22.2157L55.1825 22.1661L54.1875 22.2656ZM54.1875 24.4219L55.1833 24.5139L55.1875 24.468V24.4219H54.1875ZM51.1406 33.2344L50.3677 32.5999L50.362 32.6068L51.1406 33.2344ZM48.0234 35.6484L48.4328 36.5608L48.4381 36.5584L48.0234 35.6484ZM39.5625 35.5078L39.1018 36.3954L39.1064 36.3977L39.5625 35.5078ZM36.3984 32.8125L35.5958 33.409L35.601 33.4159L36.3984 32.8125ZM34.4062 28.7344L33.445 29.0104L33.4484 29.0217L34.4062 28.7344ZM38.4844 27.1875L37.5111 27.4173L37.5119 27.4204L38.4844 27.1875ZM39.7031 30.1406L38.8594 30.6775L38.8664 30.6883L39.7031 30.1406ZM41.8125 32.1797L41.3027 33.04L41.312 33.0455L41.3215 33.0508L41.8125 32.1797ZM48.4453 31.9688L47.9032 31.1284L47.897 31.1325L48.4453 31.9688ZM50.7656 29.5078L51.6347 30.0025L51.6379 29.9968L50.7656 29.5078ZM52.1016 26.2031L53.0678 26.4608L53.1016 26.3342V26.2031H52.1016ZM52.1016 20.5547H53.1016V20.4557L53.0821 20.3586L52.1016 20.5547ZM51.2812 18.0469L50.3667 18.4514L50.3699 18.4587L50.3733 18.4659L51.2812 18.0469ZM49.875 15.8672L49.1246 16.5283L49.1326 16.5372L49.875 15.8672ZM47.7656 14.3203L47.3323 15.2216L47.3427 15.2265L47.3531 15.2313L47.7656 14.3203ZM39.7031 16.5469L38.8619 16.0061L38.8595 16.01L39.7031 16.5469ZM51.7656 45.75V15.5156H49.7656V45.75H51.7656ZM51.7627 15.5923L52.1377 10.7173L50.1436 10.5639L49.7686 15.4389L51.7627 15.5923ZM51.1406 11.6406H55.125V9.64062H51.1406V11.6406ZM54.125 10.6406V45.75H56.125V10.6406H54.125ZM55.125 44.75H50.7656V46.75H55.125V44.75ZM34.7266 23.6016V23.1094H32.7266V23.6016H34.7266ZM34.7266 23.1094C34.7266 21.2489 34.9442 19.5859 35.3674 18.1119L33.4451 17.56C32.9621 19.2422 32.7266 21.0948 32.7266 23.1094H34.7266ZM35.3681 18.1094C35.792 16.6187 36.4044 15.3695 37.1919 14.343L35.605 13.1257C34.6424 14.3805 33.9268 15.8657 33.4444 17.5625L35.3681 18.1094ZM37.1919 14.343C37.9778 13.3185 38.9144 12.5446 40.0052 12.0061L39.1198 10.2127C37.7419 10.8929 36.5691 11.869 35.605 13.1257L37.1919 14.343ZM40.0097 12.0038C41.1025 11.4574 42.3677 11.1719 43.8281 11.1719V9.17188C42.101 9.17188 40.5225 9.51134 39.1153 10.2149L40.0097 12.0038ZM43.8281 11.1719C45.3044 11.1719 46.5532 11.4321 47.5999 11.9215L48.447 10.1097C47.0874 9.4741 45.5394 9.17188 43.8281 9.17188V11.1719ZM47.614 11.928C48.6844 12.4083 49.5882 13.1124 50.3341 14.0516L51.9003 12.8078C50.9586 11.622 49.8 10.7167 48.4328 10.1033L47.614 11.928ZM50.3443 14.0642C51.1157 15.004 51.7413 16.1585 52.2086 17.5458L54.1039 16.9073C53.5712 15.3259 52.8374 13.9491 51.8901 12.7952L50.3443 14.0642ZM52.2086 17.5458C52.6803 18.9463 53.011 20.5504 53.1925 22.3651L55.1825 22.1661C54.989 20.2309 54.6322 18.4756 54.1039 16.9073L52.2086 17.5458ZM53.1875 22.2656V24.4219H55.1875V22.2656H53.1875ZM53.1917 24.3298C53.0257 26.1262 52.703 27.72 52.232 29.1183L54.1274 29.7567C54.6564 28.1863 55.0056 26.4363 55.1833 24.5139L53.1917 24.3298ZM52.232 29.1183C51.7647 30.5055 51.1392 31.6601 50.3677 32.5999L51.9136 33.8689C52.8608 32.7149 53.5947 31.3382 54.1274 29.7567L52.232 29.1183ZM50.362 32.6068C49.6168 33.5314 48.7028 34.2399 47.6088 34.7385L48.4381 36.5584C49.8128 35.932 50.9769 35.0311 51.9192 33.8619L50.362 32.6068ZM47.614 34.7361C46.5476 35.2146 45.2779 35.4688 43.7812 35.4688V37.4688C45.5034 37.4688 47.0617 37.176 48.4328 36.5608L47.614 34.7361ZM43.7812 35.4688C42.3593 35.4688 41.1122 35.1783 40.0186 34.6179L39.1064 36.3977C40.5128 37.1185 42.0782 37.4688 43.7812 37.4688V35.4688ZM40.0231 34.6202C38.9264 34.051 37.985 33.2519 37.1958 32.2091L35.601 33.4159C36.5618 34.6856 37.7298 35.6833 39.1019 36.3954L40.0231 34.6202ZM37.201 32.216C36.4195 31.1645 35.8038 29.9128 35.3641 28.447L33.4484 29.0217C33.9462 30.6809 34.6586 32.148 35.5958 33.409L37.201 32.216ZM35.3674 28.4584C34.943 26.9802 34.7266 25.3632 34.7266 23.6016H32.7266C32.7266 25.5274 32.9633 27.3323 33.4451 29.0104L35.3674 28.4584ZM37.0859 23.1094V23.6016H39.0859V23.1094H37.0859ZM37.0859 23.6016C37.0859 24.9373 37.2261 26.2103 37.5111 27.4173L39.4576 26.9577C39.2114 25.9147 39.0859 24.7971 39.0859 23.6016H37.0859ZM37.5119 27.4204C37.8002 28.6247 38.2464 29.7141 38.8595 30.6775L40.5468 29.6037C40.0661 28.8484 39.6998 27.969 39.4569 26.9546L37.5119 27.4204ZM38.8664 30.6883C39.5085 31.6693 40.3213 32.4584 41.3027 33.04L42.3223 31.3194C41.6162 30.901 41.0227 30.3307 40.5398 29.593L38.8664 30.6883ZM41.3215 33.0508C42.3566 33.6343 43.5479 33.9062 44.8594 33.9062V31.9062C43.8271 31.9062 42.9871 31.6938 42.3035 31.3085L41.3215 33.0508ZM44.8594 33.9062C46.441 33.9062 47.8398 33.5616 48.9937 32.805L47.897 31.1325C47.1446 31.6259 46.1528 31.9062 44.8594 31.9062V33.9062ZM48.9874 32.809C50.0933 32.0956 50.9781 31.156 51.6347 30.0025L49.8966 29.0131C49.3969 29.8909 48.7348 30.5919 47.9032 31.1285L48.9874 32.809ZM51.6379 29.9968C52.2579 28.8908 52.7343 27.7113 53.0678 26.4608L51.1353 25.9455C50.8438 27.0387 50.4296 28.0623 49.8933 29.0188L51.6379 29.9968ZM53.1016 26.2031V20.5547H51.1016V26.2031H53.1016ZM53.0821 20.3586C52.8946 19.4207 52.5964 18.51 52.1892 17.6278L50.3733 18.4659C50.7161 19.2087 50.9648 19.9699 51.121 20.7508L53.0821 20.3586ZM52.1958 17.6424C51.7948 16.7357 51.2687 15.919 50.6174 15.1972L49.1326 16.5372C49.6375 17.0967 50.049 17.733 50.3667 18.4514L52.1958 17.6424ZM50.6254 15.2062C49.9499 14.4394 49.1301 13.8404 48.1781 13.4094L47.3531 15.2313C48.0574 15.5502 48.6439 15.9825 49.1246 16.5282L50.6254 15.2062ZM48.1989 13.4191C47.2255 12.9511 46.1185 12.7344 44.9062 12.7344V14.7344C45.8815 14.7344 46.6808 14.9083 47.3323 15.2216L48.1989 13.4191ZM44.9062 12.7344C43.5765 12.7344 42.3724 13.0153 41.333 13.62L42.3388 15.3487C43.0182 14.9534 43.861 14.7344 44.9062 14.7344V12.7344ZM41.333 13.62C40.3305 14.2033 39.5059 15.0044 38.8619 16.0061L40.5443 17.0876C41.0253 16.3394 41.6226 15.7654 42.3388 15.3487L41.333 13.62ZM38.8595 16.01C38.245 16.9756 37.799 18.0742 37.5111 19.2936L39.4576 19.7532C39.701 18.7226 40.0675 17.8369 40.5468 17.0837L38.8595 16.01ZM37.5111 19.2936C37.2261 20.5007 37.0859 21.7736 37.0859 23.1094H39.0859C39.0859 21.9139 39.2114 20.7962 39.4576 19.7532L37.5111 19.2936ZM77.6016 30.1406H76.6016V30.1586L76.6022 30.1766L77.6016 30.1406ZM77.6016 10.6406V9.64062H76.6016V10.6406H77.6016ZM81.9609 10.6406H82.9609V9.64062H81.9609V10.6406ZM81.9609 36V37H82.9609V36H81.9609ZM77.8125 36L76.8131 36.036L76.8479 37H77.8125V36ZM78.4219 24.7969L78.3959 23.7972L77.4219 23.8225V24.7969H78.4219ZM80.2266 24.75H81.2266V23.7237L80.2006 23.7503L80.2266 24.75ZM79.6875 29.4375L78.7173 29.195L78.7155 29.2025L79.6875 29.4375ZM74.9297 35.6016L75.3452 36.5112L75.3544 36.5069L74.9297 35.6016ZM66.9141 35.9297L66.5805 36.8724L66.585 36.874L66.9141 35.9297ZM62.5781 31.3359L61.6269 31.6448L61.6307 31.6559L62.5781 31.3359ZM61.9922 10.6406V9.64062H60.9922V10.6406H61.9922ZM66.3281 10.6406H67.3281V9.64062H66.3281V10.6406ZM66.7031 29.8828L65.7544 30.199L65.7584 30.211L65.7627 30.2229L66.7031 29.8828ZM67.7578 31.6406L67.0507 32.3477L67.0633 32.3604L67.0764 32.3725L67.7578 31.6406ZM69.2578 32.5312L68.958 33.4853L68.9656 33.4876L69.2578 32.5312ZM75.375 31.7344L75.9213 32.572L75.9297 32.5664L75.375 31.7344ZM77.6953 28.8516L76.766 28.4822L76.7635 28.4885L77.6953 28.8516ZM78.6016 30.1406V10.6406H76.6016V30.1406H78.6016ZM77.6016 11.6406H81.9609V9.64062H77.6016V11.6406ZM80.9609 10.6406V36H82.9609V10.6406H80.9609ZM81.9609 35H77.8125V37H81.9609V35ZM78.8119 35.964L78.6009 30.1046L76.6022 30.1766L76.8131 36.036L78.8119 35.964ZM78.4478 25.7965L80.2525 25.7497L80.2006 23.7503L78.3959 23.7972L78.4478 25.7965ZM79.2266 24.75C79.2266 26.3668 79.0544 27.8469 78.7174 29.195L80.6576 29.68C81.0394 28.1531 81.2266 26.5082 81.2266 24.75H79.2266ZM78.7155 29.2025C78.3997 30.5088 77.8899 31.6162 77.1986 32.5425L78.8014 33.7387C79.6726 32.5713 80.2878 31.2099 80.6595 29.6725L78.7155 29.2025ZM77.1986 32.5425C76.5226 33.4484 75.6324 34.1673 74.505 34.6962L75.3544 36.5069C76.7582 35.8483 77.9149 34.9266 78.8014 33.7387L77.1986 32.5425ZM74.5142 34.692C73.4121 35.1954 72.0232 35.4688 70.3125 35.4688V37.4688C72.2268 37.4688 73.916 37.164 75.3452 36.5112L74.5142 34.692ZM70.3125 35.4688C69.1757 35.4688 68.1558 35.3034 67.2431 34.9854L66.585 36.874C67.7348 37.2747 68.9805 37.4688 70.3125 37.4688V35.4688ZM67.2476 34.987C66.372 34.6771 65.6283 34.204 65.0036 33.566L63.5746 34.9652C64.4186 35.8272 65.4249 36.4635 66.5805 36.8724L67.2476 34.987ZM65.0036 33.566C64.3942 32.9436 63.8937 32.1061 63.5256 31.016L61.6307 31.6559C62.0751 32.972 62.7152 34.0876 63.5746 34.9652L65.0036 33.566ZM63.5293 31.0271C63.1798 29.9507 62.9922 28.6154 62.9922 27H60.9922C60.9922 28.7596 61.1952 30.3149 61.627 31.6447L63.5293 31.0271ZM62.9922 27V10.6406H60.9922V27H62.9922ZM61.9922 11.6406H66.3281V9.64062H61.9922V11.6406ZM65.3281 10.6406V27.0469H67.3281V10.6406H65.3281ZM65.3281 27.0469C65.3281 28.2517 65.459 29.3128 65.7544 30.199L67.6518 29.5666C67.4472 28.9528 67.3281 28.1233 67.3281 27.0469H65.3281ZM65.7627 30.2229C66.0656 31.0602 66.486 31.783 67.0507 32.3477L68.4649 30.9335C68.1546 30.6232 67.8719 30.1742 67.6435 29.5427L65.7627 30.2229ZM67.0764 32.3725C67.6297 32.8877 68.2578 33.2652 68.958 33.4852L69.5576 31.5773C69.1641 31.4536 68.7922 31.2373 68.4392 30.9087L67.0764 32.3725ZM68.9656 33.4876C69.6237 33.6887 70.3004 33.7891 70.9922 33.7891V31.7891C70.4965 31.7891 70.0169 31.7176 69.55 31.5749L68.9656 33.4876ZM70.9922 33.7891C72.95 33.7891 74.6246 33.4176 75.9213 32.572L74.8287 30.8968C73.9691 31.4574 72.7219 31.7891 70.9922 31.7891V33.7891ZM75.9297 32.5664C77.1781 31.7342 78.0835 30.6098 78.6271 29.2146L76.7635 28.4885C76.3696 29.4996 75.7282 30.2971 74.8203 30.9023L75.9297 32.5664ZM78.6246 29.2209C79.1614 27.8701 79.4219 26.3912 79.4219 24.7969H77.4219C77.4219 26.1713 77.1979 27.3955 76.766 28.4822L78.6246 29.2209ZM93.2812 10.6406H94.2812V9.64062H93.2812V10.6406ZM93.2812 36V37H94.2812V36H93.2812ZM88.9219 36H87.9219V37H88.9219V36ZM88.9219 10.6406V9.64062H87.9219V10.6406H88.9219ZM89.2266 2.13281L88.4845 1.46253L88.4784 1.46922L88.4725 1.47603L89.2266 2.13281ZM93.0469 2.13281L92.3048 2.8031L92.3106 2.80959L92.3166 2.81597L93.0469 2.13281ZM93.0469 5.64844L92.3166 4.96528L92.3158 4.96612L93.0469 5.64844ZM89.2266 5.64844L88.4725 6.30522L88.4838 6.31818L88.4955 6.33076L89.2266 5.64844ZM92.2812 10.6406V36H94.2812V10.6406H92.2812ZM93.2812 35H88.9219V37H93.2812V35ZM89.9219 36V10.6406H87.9219V36H89.9219ZM88.9219 11.6406H93.2812V9.64062H88.9219V11.6406ZM89.5938 3.91406C89.5938 3.42775 89.7328 3.07416 89.9806 2.78959L88.4725 1.47603C87.8766 2.16022 87.5938 2.99413 87.5938 3.91406H89.5938ZM89.9687 2.8031C90.1647 2.58604 90.4997 2.40625 91.1484 2.40625V0.40625C90.1097 0.40625 89.1634 0.710831 88.4845 1.46253L89.9687 2.8031ZM91.1484 2.40625C91.7749 2.40625 92.1052 2.58218 92.3048 2.8031L93.789 1.46253C93.1135 0.714697 92.1782 0.40625 91.1484 0.40625V2.40625ZM92.3166 2.81597C92.5853 3.10321 92.7266 3.44788 92.7266 3.91406H94.7266C94.7266 2.97399 94.4147 2.13117 93.7771 1.44966L92.3166 2.81597ZM92.7266 3.91406C92.7266 4.3359 92.5939 4.66882 92.3166 4.96528L93.7771 6.33159C94.4061 5.65931 94.7266 4.83597 94.7266 3.91406H92.7266ZM92.3158 4.96612C92.1187 5.1773 91.7847 5.35156 91.1484 5.35156V7.35156C92.1684 7.35156 93.1 7.05708 93.7779 6.33076L92.3158 4.96612ZM91.1484 5.35156C90.49 5.35156 90.1513 5.17363 89.9576 4.96612L88.4955 6.33076C89.1768 7.06074 90.1194 7.35156 91.1484 7.35156V5.35156ZM89.9806 4.99166C89.7251 4.69828 89.5938 4.35662 89.5938 3.91406H87.5938C87.5938 4.81526 87.8843 5.62985 88.4725 6.30522L89.9806 4.99166ZM116.227 31.0781H115.227V31.1162L115.229 31.1541L116.227 31.0781ZM116.227 0V-1H115.227V0H116.227ZM120.586 0H121.586V-1H120.586V0ZM120.586 36V37H121.586V36H120.586ZM116.602 36L115.604 36.076L115.675 37H116.602V36ZM99.8672 17.8359L98.9104 17.5451L98.9086 17.5512L99.8672 17.8359ZM101.906 13.7344L101.118 13.1189L101.113 13.1257L101.906 13.7344ZM105.07 11.1094L105.518 12.0038L105.522 12.0015L105.07 11.1094ZM113.367 11.0156L112.939 11.9194L112.946 11.9227L112.953 11.926L113.367 11.0156ZM116.414 13.4297L115.625 14.0444L115.63 14.0509L115.635 14.0572L116.414 13.4297ZM119.414 22.2656H120.414V22.2157L120.409 22.1661L119.414 22.2656ZM119.414 24.4219L120.41 24.5139L120.414 24.468V24.4219H119.414ZM118.406 29.4375L117.459 29.1183L117.456 29.1273L118.406 29.4375ZM116.414 33.2344L115.635 32.6068L115.63 32.614L116.414 33.2344ZM113.367 35.6484L113.781 36.5589L113.791 36.5543L113.367 35.6484ZM105.07 35.5078L104.605 36.393L104.61 36.3954L105.07 35.5078ZM101.906 32.8125L101.109 33.416L101.114 33.4227L101.906 32.8125ZM99.8672 28.7344L98.9085 29.0191L98.912 29.0305L99.8672 28.7344ZM103.898 27.1641L102.923 27.3839L102.926 27.3969L103.898 27.1641ZM107.203 32.0859L106.705 32.9533L106.717 32.9601L107.203 32.0859ZM113.766 31.875L113.221 31.0365L113.214 31.0408L113.766 31.875ZM117.328 26.2031L118.294 26.4608L118.328 26.3342V26.2031H117.328ZM117.328 20.5547H118.328V20.4469L118.305 20.3415L117.328 20.5547ZM116.508 18.0703L115.587 18.46L115.591 18.4707L115.596 18.4814L116.508 18.0703ZM115.148 15.9141L114.388 16.5633L114.396 16.5733L114.405 16.583L115.148 15.9141ZM113.109 14.3906L112.684 15.2955L112.69 15.2986L113.109 14.3906ZM107.203 14.5781L107.701 15.4454L107.706 15.4425L107.203 14.5781ZM105.117 16.5938L105.956 17.1377L105.961 17.1306L105.117 16.5938ZM103.898 19.5469L102.925 19.3171L102.923 19.327L103.898 19.5469ZM117.227 31.0781V0H115.227V31.0781H117.227ZM116.227 1H120.586V-1H116.227V1ZM119.586 0V36H121.586V0H119.586ZM120.586 35H116.602V37H120.586V35ZM117.599 35.924L117.224 31.0022L115.229 31.1541L115.604 36.076L117.599 35.924ZM100.164 23.6016V23.1094H98.1641V23.6016H100.164ZM100.164 23.1094C100.164 21.2517 100.389 19.5917 100.826 18.1207L98.9086 17.5512C98.408 19.2364 98.1641 21.092 98.1641 23.1094H100.164ZM100.824 18.1267C101.279 16.6299 101.908 15.3745 102.7 14.343L101.113 13.1257C100.154 14.3755 99.4242 15.8544 98.9104 17.5451L100.824 18.1267ZM102.694 14.3498C103.499 13.3189 104.44 12.5426 105.518 12.0038L104.623 10.2149C103.263 10.8949 102.094 11.8686 101.118 13.1189L102.694 14.3498ZM105.522 12.0015C106.603 11.454 107.821 11.1719 109.195 11.1719V9.17188C107.538 9.17188 106.006 9.51474 104.619 10.2172L105.522 12.0015ZM109.195 11.1719C110.672 11.1719 111.911 11.4323 112.939 11.9194L113.795 10.1119C112.449 9.47396 110.906 9.17188 109.195 9.17188V11.1719ZM112.953 11.926C114.007 12.4047 114.894 13.1067 115.625 14.0444L117.203 12.8149C116.277 11.6276 115.134 10.7203 113.781 10.1053L112.953 11.926ZM115.635 14.0572C116.392 14.9957 117.003 16.1494 117.456 17.5368L119.357 16.9163C118.841 15.3349 118.124 13.9574 117.193 12.8022L115.635 14.0572ZM117.456 17.5368C117.914 18.9404 118.237 20.5476 118.419 22.3651L120.409 22.1661C120.216 20.2337 119.868 18.4815 119.357 16.9163L117.456 17.5368ZM118.414 22.2656V24.4219H120.414V22.2656H118.414ZM118.418 24.3298C118.252 26.1262 117.93 27.72 117.459 29.1183L119.354 29.7567C119.883 28.1863 120.232 26.4363 120.41 24.5139L118.418 24.3298ZM117.456 29.1273C117.003 30.5146 116.392 31.6683 115.635 32.6068L117.193 33.8619C118.124 32.7067 118.841 31.3291 119.357 29.7477L117.456 29.1273ZM115.63 32.614C114.898 33.5396 114.005 34.2462 112.944 34.7426L113.791 36.5543C115.135 35.9256 116.274 35.0229 117.198 33.8548L115.63 32.614ZM112.953 34.7381C111.905 35.2145 110.645 35.4688 109.148 35.4688V37.4688C110.87 37.4688 112.423 37.1762 113.781 36.5588L112.953 34.7381ZM109.148 35.4688C107.813 35.4688 106.613 35.182 105.531 34.6202L104.61 36.3954C105.996 37.1148 107.515 37.4688 109.148 37.4688V35.4688ZM105.536 34.6226C104.452 34.053 103.507 33.2514 102.698 32.2023L101.114 33.4227C102.087 34.6861 103.251 35.6813 104.605 36.393L105.536 34.6226ZM102.704 32.2091C101.907 31.1564 101.277 29.904 100.822 28.4383L98.912 29.0305C99.4264 30.6897 100.155 32.1561 101.109 33.4159L102.704 32.2091ZM100.826 28.4496C100.388 26.9743 100.164 25.3603 100.164 23.6016H98.1641C98.1641 25.5303 98.4093 27.3382 98.9086 29.0191L100.826 28.4496ZM102.523 23.1094V23.6016H104.523V23.1094H102.523ZM102.523 23.6016C102.523 24.933 102.655 26.1948 102.923 27.3839L104.874 26.9442C104.642 25.9146 104.523 24.8014 104.523 23.6016H102.523ZM102.926 27.3969C103.214 28.6021 103.662 29.6866 104.278 30.6376L105.956 29.5499C105.479 28.8134 105.114 27.9448 104.871 26.9312L102.926 27.3969ZM104.278 30.6376C104.908 31.6101 105.719 32.387 106.705 32.9532L107.701 31.2187C107 30.8161 106.42 30.2649 105.956 29.5499L104.278 30.6376ZM106.717 32.9601C107.738 33.5273 108.921 33.7891 110.227 33.7891V31.7891C109.188 31.7891 108.355 31.5821 107.689 31.2118L106.717 32.9601ZM110.227 33.7891C111.802 33.7891 113.189 33.4549 114.317 32.7092L113.214 31.0408C112.499 31.5138 111.526 31.7891 110.227 31.7891V33.7891ZM114.311 32.7134C115.387 32.0137 116.248 31.0881 116.887 29.9512L115.144 28.9707C114.659 29.8338 114.019 30.5175 113.221 31.0366L114.311 32.7134ZM116.887 29.9512C117.493 28.8739 117.961 27.7092 118.294 26.4608L116.362 25.9455C116.07 27.0408 115.663 28.048 115.144 28.9707L116.887 29.9512ZM118.328 26.2031V20.5547H116.328V26.2031H118.328ZM118.305 20.3415C118.103 19.4145 117.808 18.52 117.419 17.6592L115.596 18.4814C115.927 19.2144 116.178 19.9761 116.351 20.7679L118.305 20.3415ZM117.429 17.6807C117.044 16.7709 116.532 15.9567 115.892 15.2451L114.405 16.583C114.89 17.1214 115.284 17.7447 115.587 18.46L117.429 17.6807ZM115.909 15.2648C115.263 14.5075 114.464 13.9144 113.528 13.4827L112.69 15.2986C113.38 15.6169 113.941 16.0394 114.388 16.5633L115.909 15.2648ZM113.535 13.4858C112.577 13.0349 111.48 12.8281 110.273 12.8281V14.8281C111.255 14.8281 112.048 14.9964 112.684 15.2954L113.535 13.4858ZM110.273 12.8281C108.944 12.8281 107.74 13.1091 106.7 13.7138L107.706 15.4425C108.385 15.0472 109.228 14.8281 110.273 14.8281V12.8281ZM106.705 13.7109C105.715 14.2796 104.903 15.0677 104.274 16.0569L105.961 17.1306C106.425 16.4011 107.004 15.8454 107.701 15.4454L106.705 13.7109ZM104.278 16.0499C103.66 17.0031 103.213 18.0969 102.925 19.3171L104.872 19.7767C105.115 18.7468 105.48 17.8719 105.956 17.1376L104.278 16.0499ZM102.923 19.327C102.655 20.5161 102.523 21.778 102.523 23.1094H104.523C104.523 21.9095 104.642 20.7964 104.874 19.7667L102.923 19.327ZM165.117 19.0078H166.117V18.0078H165.117V19.0078ZM165.117 31.5L165.946 32.0595L166.117 31.8059V31.5H165.117ZM163.102 33.6094L163.74 34.3787L163.748 34.3723L163.102 33.6094ZM159.281 35.625L159.611 36.569L159.616 36.5672L159.281 35.625ZM147.305 35.3906L146.915 36.3115L146.925 36.3156L147.305 35.3906ZM142.781 32.2031L142.038 32.8721L142.046 32.8807L142.781 32.2031ZM139.828 27.0938L138.882 27.4166L138.885 27.4254L139.828 27.0938ZM139.688 10.7812L138.731 10.4898L138.729 10.4967L139.688 10.7812ZM142.359 5.69531L143.124 6.33972L143.128 6.3355L142.359 5.69531ZM146.672 2.50781L147.061 3.42916L147.068 3.42608L146.672 2.50781ZM159.07 2.76562L158.61 3.65367L158.62 3.65847L159.07 2.76562ZM163.195 6.46875L162.347 6.99801L162.351 7.004L163.195 6.46875ZM165.117 11.8594V12.8594H166.266L166.108 11.7212L165.117 11.8594ZM160.594 11.8594L159.607 12.0217L159.745 12.8594H160.594V11.8594ZM159.375 8.48438L158.512 8.98911L158.518 8.99887L159.375 8.48438ZM156.82 6.04688L156.329 6.91817L156.339 6.92335L156.82 6.04688ZM143.883 12.375L142.911 12.1371L142.909 12.1465L143.883 12.375ZM144.023 25.5234L143.064 25.8046L143.066 25.8134L144.023 25.5234ZM146.016 29.4844L145.229 30.1022L145.234 30.1077L146.016 29.4844ZM149.086 31.9453L148.658 32.8491L148.662 32.8512L149.086 31.9453ZM156.984 32.3906L157.241 33.3571L157.248 33.3552L157.255 33.3533L156.984 32.3906ZM159.328 31.4062L159.883 32.2383L159.891 32.233L159.899 32.2276L159.328 31.4062ZM160.617 30.3047L161.374 30.9583L161.617 30.6767V30.3047H160.617ZM160.617 22.6641H161.617V21.6641H160.617V22.6641ZM152.719 22.6641H151.719V23.6641H152.719V22.6641ZM152.719 19.0078V18.0078H151.719V19.0078H152.719ZM164.117 19.0078V31.5H166.117V19.0078H164.117ZM164.288 30.9405C163.939 31.4582 163.344 32.0934 162.455 32.8465L163.748 34.3723C164.703 33.5628 165.452 32.7918 165.946 32.0595L164.288 30.9405ZM162.463 32.8401C161.661 33.5056 160.505 34.1283 158.946 34.6828L159.616 36.5672C161.308 35.9655 162.698 35.2444 163.74 34.3787L162.463 32.8401ZM158.951 34.681C157.487 35.1929 155.531 35.4688 153.047 35.4688V37.4688C155.656 37.4688 157.857 37.1821 159.611 36.569L158.951 34.681ZM153.047 35.4688C151.086 35.4688 149.303 35.1302 147.685 34.4656L146.925 36.3156C148.807 37.0886 150.851 37.4688 153.047 37.4688V35.4688ZM147.695 34.4698C146.092 33.7912 144.702 32.8118 143.517 31.5255L142.046 32.8807C143.423 34.3757 145.049 35.5213 146.915 36.3115L147.695 34.4698ZM143.525 31.5342C142.357 30.2372 141.436 28.6525 140.772 26.7621L138.885 27.4254C139.626 29.535 140.674 31.3566 142.038 32.8721L143.525 31.5342ZM140.775 26.7709C140.129 24.8773 139.797 22.7079 139.797 20.25H137.797C137.797 22.8858 138.153 25.2789 138.882 27.4166L140.775 26.7709ZM139.797 20.25V17.6016H137.797V20.25H139.797ZM139.797 17.6016C139.797 15.1306 140.085 12.9557 140.646 11.0658L138.729 10.4967C138.102 12.6068 137.797 14.9788 137.797 17.6016H139.797ZM140.644 11.0727C141.22 9.18289 142.051 7.61254 143.124 6.33971L141.595 5.05091C140.324 6.55933 139.374 8.37961 138.731 10.4898L140.644 11.0727ZM143.128 6.3355C144.196 5.05316 145.503 4.08644 147.061 3.42913L146.283 1.5865C144.434 2.36669 142.866 3.52497 141.591 5.05513L143.128 6.3355ZM147.068 3.42608C148.625 2.75477 150.439 2.40625 152.531 2.40625V0.40625C150.217 0.40625 148.125 0.792107 146.276 1.58954L147.068 3.42608ZM152.531 2.40625C155.03 2.40625 157.041 2.84089 158.61 3.65362L159.53 1.87763C157.6 0.877859 155.251 0.40625 152.531 0.40625V2.40625ZM158.62 3.65847C160.233 4.47206 161.466 5.58515 162.347 6.99799L164.044 5.93951C162.956 4.1961 161.439 2.84044 159.521 1.87278L158.62 3.65847ZM162.351 7.004C163.268 8.45125 163.863 10.1104 164.127 11.9976L166.108 11.7212C165.808 9.57709 165.123 7.6425 164.04 5.9335L162.351 7.004ZM165.117 10.8594H160.594V12.8594H165.117V10.8594ZM161.58 11.697C161.358 10.3452 160.91 9.09967 160.232 7.96988L158.518 8.99887C159.058 9.90033 159.423 10.9048 159.607 12.0217L161.58 11.697ZM160.238 7.97968C159.546 6.79602 158.557 5.86002 157.302 5.1704L156.339 6.92335C157.302 7.45248 158.016 8.14148 158.512 8.98907L160.238 7.97968ZM157.311 5.17563C156.006 4.44046 154.392 4.10938 152.531 4.10938V6.10938C154.171 6.10938 155.416 6.40329 156.329 6.91812L157.311 5.17563ZM152.531 4.10938C150.832 4.10938 149.305 4.42092 147.982 5.08214L148.877 6.87099C149.867 6.37595 151.075 6.10938 152.531 6.10938V4.10938ZM147.982 5.08214C146.674 5.73632 145.593 6.67668 144.749 7.88987L146.391 9.032C147.047 8.08894 147.873 7.37305 148.877 6.87099L147.982 5.08214ZM144.749 7.88987C143.917 9.08687 143.31 10.5098 142.912 12.1371L144.854 12.6129C145.206 11.1777 145.724 9.99126 146.391 9.032L144.749 7.88987ZM142.909 12.1465C142.529 13.767 142.344 15.5722 142.344 17.5547H144.344C144.344 15.6934 144.518 14.0455 144.856 12.6035L142.909 12.1465ZM142.344 17.5547V20.25H144.344V17.5547H142.344ZM142.344 20.25C142.344 22.2937 142.579 24.1488 143.064 25.8046L144.983 25.2423C144.562 23.8043 144.344 22.1438 144.344 20.25H142.344ZM143.066 25.8134C143.565 27.4603 144.282 28.8963 145.229 30.1022L146.802 28.8666C146.031 27.885 145.419 26.6804 144.98 25.2334L143.066 25.8134ZM145.234 30.1077C146.183 31.299 147.326 32.2181 148.658 32.849L149.514 31.0416C148.471 30.5476 147.567 29.826 146.798 28.8611L145.234 30.1077ZM148.662 32.8512C150.01 33.4813 151.485 33.7891 153.07 33.7891V31.7891C151.75 31.7891 150.568 31.5343 149.509 31.0394L148.662 32.8512ZM153.07 33.7891C154.724 33.7891 156.124 33.6537 157.241 33.3571L156.728 31.4241C155.844 31.6588 154.635 31.7891 153.07 31.7891V33.7891ZM157.255 33.3533C158.308 33.0572 159.2 32.6938 159.883 32.2383L158.773 30.5742C158.332 30.8687 157.661 31.1616 156.714 31.428L157.255 33.3533ZM159.899 32.2276C160.499 31.8107 161.002 31.389 161.374 30.9583L159.86 29.6511C159.639 29.9079 159.282 30.2205 158.758 30.5849L159.899 32.2276ZM161.617 30.3047V22.6641H159.617V30.3047H161.617ZM160.617 21.6641H152.719V23.6641H160.617V21.6641ZM153.719 22.6641V19.0078H151.719V22.6641H153.719ZM152.719 20.0078H165.117V18.0078H152.719V20.0078ZM186.305 16.0078L185.418 16.4697L185.424 16.4809L185.43 16.4919L186.305 16.0078ZM178.688 14.2266L178.275 13.3156L178.268 13.3186L178.688 14.2266ZM176.766 15.7031L175.973 15.0934L175.968 15.0999L175.963 15.1064L176.766 15.7031ZM176.086 17.6719V18.6719H177.086V17.6719H176.086ZM171.75 17.6719H170.75V18.6719H171.75V17.6719ZM174.469 12.5625L175.103 13.3352L175.105 13.334L174.469 12.5625ZM177.656 10.8281L177.98 11.7744L177.987 11.772L177.656 10.8281ZM186.703 11.1094L186.297 12.0232L186.301 12.0248L186.703 11.1094ZM190.031 13.9453L189.185 14.4781L189.189 14.4842L189.193 14.4903L190.031 13.9453ZM191.461 33.1641L190.472 33.31L190.473 33.3179L190.474 33.3258L191.461 33.1641ZM192.141 35.625H193.141V35.4183L193.059 35.2286L192.141 35.625ZM192.141 36V37H193.141V36H192.141ZM187.617 36L186.701 36.4008L186.963 37H187.617V36ZM187.102 34.0078L186.112 34.1544L186.113 34.1571L187.102 34.0078ZM187.664 20.625L188.664 20.6096L188.649 19.625H187.664V20.625ZM187.711 23.6719V24.6719H188.726L188.711 23.6565L187.711 23.6719ZM180.023 23.9766L180.213 24.9583L180.221 24.9569L180.229 24.9553L180.023 23.9766ZM176.086 26.3203L176.946 26.8314L176.951 26.8214L176.086 26.3203ZM177.727 32.1094L177.249 32.988L177.26 32.9941L177.272 33L177.727 32.1094ZM186.352 29.7656L185.551 29.1656L185.544 29.1756L186.352 29.7656ZM187.336 27.3984L188.084 26.7346L186.485 24.9334L186.338 27.3373L187.336 27.3984ZM189.188 29.4844L190.174 29.6488L190.252 29.1777L189.935 28.8205L189.188 29.4844ZM186.352 33.9609L187.021 34.7035L187.022 34.7028L186.352 33.9609ZM183.492 35.7656L183.886 36.6848L183.892 36.6821L183.492 35.7656ZM175.266 35.4609L174.801 36.3466L174.806 36.3489L175.266 35.4609ZM172.266 32.7656L171.414 33.2904L171.419 33.2972L171.423 33.304L172.266 32.7656ZM172.008 25.3594L172.897 25.8173L172.9 25.8119L172.008 25.3594ZM174.305 22.7578L174.871 23.5819L174.88 23.5758L174.305 22.7578ZM187.914 31.6641V18.6094H185.914V31.6641H187.914ZM187.914 18.6094C187.914 17.4725 187.682 16.4323 187.18 15.5238L185.43 16.4919C185.74 17.0521 185.914 17.7463 185.914 18.6094H187.914ZM187.192 15.5459C186.699 14.6004 185.949 13.8775 184.978 13.3825L184.069 15.1643C184.692 15.4819 185.129 15.9153 185.418 16.4697L187.192 15.5459ZM184.978 13.3825C184.003 12.8858 182.853 12.6641 181.57 12.6641V14.6641C182.631 14.6641 183.45 14.8485 184.069 15.1643L184.978 13.3825ZM181.57 12.6641C180.363 12.6641 179.256 12.8712 178.275 13.3156L179.1 15.1375C179.775 14.8319 180.59 14.6641 181.57 14.6641V12.6641ZM178.268 13.3186C177.333 13.7502 176.555 14.3364 175.973 15.0934L177.558 16.3128C177.913 15.8511 178.417 15.4529 179.107 15.1345L178.268 13.3186ZM175.963 15.1064C175.393 15.8737 175.086 16.7362 175.086 17.6719H177.086C177.086 17.2013 177.232 16.7513 177.568 16.2998L175.963 15.1064ZM176.086 16.6719H171.75V18.6719H176.086V16.6719ZM172.75 17.6719C172.75 16.9452 172.936 16.2055 173.338 15.4423L171.568 14.5108C171.032 15.5289 170.75 16.586 170.75 17.6719H172.75ZM173.338 15.4423C173.737 14.6836 174.319 13.9799 175.103 13.3352L173.834 11.7898C172.869 12.5826 172.106 13.4883 171.568 14.5108L173.338 15.4423ZM175.105 13.334C175.891 12.6856 176.845 12.1623 177.98 11.7744L177.333 9.88186C175.999 10.3377 174.827 10.9707 173.833 11.791L175.105 13.334ZM177.987 11.772C179.115 11.3769 180.392 11.1719 181.828 11.1719V9.17188C180.202 9.17188 178.697 9.4043 177.326 9.88427L177.987 11.772ZM181.828 11.1719C183.559 11.1719 185.041 11.4651 186.297 12.0232L187.109 10.1956C185.552 9.50363 183.785 9.17188 181.828 9.17188V11.1719ZM186.301 12.0248C187.547 12.5728 188.499 13.3883 189.185 14.4781L190.877 13.4125C189.97 11.9711 188.703 10.896 187.106 10.1939L186.301 12.0248ZM189.193 14.4903C189.875 15.5397 190.25 16.9075 190.25 18.6562H192.25C192.25 16.6237 191.813 14.851 190.87 13.4003L189.193 14.4903ZM190.25 18.6562V30.4688H192.25V18.6562H190.25ZM190.25 30.4688C190.25 31.3676 190.325 32.3152 190.472 33.31L192.45 33.0181C192.316 32.1067 192.25 31.2574 192.25 30.4688H190.25ZM190.474 33.3258C190.64 34.3377 190.885 35.2408 191.223 36.0214L193.059 35.2286C192.802 34.6342 192.594 33.8966 192.448 33.0023L190.474 33.3258ZM191.141 35.625V36H193.141V35.625H191.141ZM192.141 35H187.617V37H192.141V35ZM188.533 35.5992C188.363 35.2102 188.208 34.6409 188.09 33.8586L186.113 34.1571C186.245 35.0309 186.434 35.7898 186.701 36.4008L188.533 35.5992ZM188.091 33.8613C187.972 33.0574 187.914 32.3257 187.914 31.6641H185.914C185.914 32.4399 185.981 33.2708 186.112 34.1544L188.091 33.8613ZM186.664 20.6404L186.711 23.6873L188.711 23.6565L188.664 20.6096L186.664 20.6404ZM187.711 22.6719H183.328V24.6719H187.711V22.6719ZM183.328 22.6719C182.041 22.6719 180.869 22.7776 179.818 22.9978L180.229 24.9553C181.116 24.7693 182.147 24.6719 183.328 24.6719V22.6719ZM179.833 22.9948C178.783 23.1982 177.854 23.5203 177.074 23.9845L178.097 25.703C178.63 25.3859 179.327 25.13 180.213 24.9583L179.833 22.9948ZM177.074 23.9845C176.289 24.4523 175.659 25.0617 175.221 25.8193L176.951 26.8214C177.2 26.3914 177.571 26.0165 178.097 25.703L177.074 23.9845ZM175.226 25.8092C174.777 26.5655 174.57 27.4277 174.57 28.3594H176.57C176.57 27.7286 176.708 27.2314 176.945 26.8314L175.226 25.8092ZM174.57 28.3594C174.57 29.3129 174.787 30.2063 175.232 31.0194L176.986 30.0587C176.713 29.5593 176.57 28.9996 176.57 28.3594H174.57ZM175.232 31.0194C175.692 31.8596 176.378 32.5146 177.249 32.988L178.204 31.2308C177.638 30.9229 177.245 30.531 176.986 30.0587L175.232 31.0194ZM177.272 33C178.182 33.4646 179.245 33.6719 180.422 33.6719V31.6719C179.473 31.6719 178.74 31.5042 178.181 31.2188L177.272 33ZM180.422 33.6719C181.895 33.6719 183.238 33.3587 184.422 32.7029L183.453 30.9533C182.606 31.4225 181.605 31.6719 180.422 31.6719V33.6719ZM184.422 32.7029C185.545 32.0808 186.467 31.3021 187.159 30.3556L185.544 29.1756C185.048 29.8541 184.361 30.4504 183.453 30.9533L184.422 32.7029ZM187.152 30.3656C187.841 29.4465 188.272 28.4743 188.334 27.4595L186.338 27.3373C186.306 27.8539 186.081 28.4598 185.552 29.1656L187.152 30.3656ZM186.588 28.0623L188.44 30.1482L189.935 28.8205L188.084 26.7346L186.588 28.0623ZM188.201 29.32C188.119 29.811 187.885 30.4161 187.442 31.1446L189.151 32.1835C189.677 31.3183 190.037 30.4702 190.174 29.6488L188.201 29.32ZM187.442 31.1446C187.016 31.8459 186.434 32.5386 185.681 33.2191L187.022 34.7028C187.894 33.9146 188.609 33.0759 189.151 32.1835L187.442 31.1446ZM185.682 33.2184C184.974 33.8564 184.115 34.4024 183.092 34.8492L183.892 36.6821C185.088 36.1601 186.135 35.5029 187.021 34.7035L185.682 33.2184ZM183.098 34.8465C182.147 35.2542 181.05 35.4688 179.789 35.4688V37.4688C181.279 37.4688 182.65 37.2145 183.886 36.6848L183.098 34.8465ZM179.789 35.4688C178.202 35.4688 176.857 35.1593 175.726 34.573L174.806 36.3489C176.268 37.1064 177.938 37.4688 179.789 37.4688V35.4688ZM175.73 34.5753C174.59 33.9773 173.726 33.1934 173.108 32.2272L171.423 33.304C172.243 34.5879 173.379 35.6008 174.801 36.3466L175.73 34.5753ZM173.117 32.2409C172.516 31.266 172.211 30.1758 172.211 28.9453H170.211C170.211 30.5273 170.609 31.984 171.414 33.2904L173.117 32.2409ZM172.211 28.9453C172.211 27.7179 172.45 26.6845 172.897 25.8173L171.119 24.9014C170.503 26.0968 170.211 27.454 170.211 28.9453H172.211ZM172.9 25.8119C173.353 24.9192 174.004 24.178 174.871 23.5819L173.738 21.9338C172.605 22.7127 171.726 23.7058 171.116 24.9068L172.9 25.8119ZM174.88 23.5758C175.764 22.9541 176.851 22.4678 178.162 22.1329L177.666 20.1952C176.164 20.5791 174.845 21.1552 173.73 21.9398L174.88 23.5758ZM178.162 22.1329C179.473 21.7978 180.958 21.625 182.625 21.625V19.625C180.823 19.625 179.168 19.8116 177.666 20.1952L178.162 22.1329ZM182.625 21.625H187.664V19.625H182.625V21.625ZM202.383 15.6797H203.383V15.6564L203.382 15.6332L202.383 15.6797ZM202.383 36V37H203.383V36H202.383ZM198.023 36H197.023V37H198.023V36ZM198.023 10.6406V9.64062H197.023V10.6406H198.023ZM202.148 10.6406L203.147 10.5942L203.103 9.64062H202.148V10.6406ZM201.492 22.3594L201.457 23.3588L202.492 23.3949V22.3594H201.492ZM199.477 22.2891L198.477 22.2801L198.468 23.2545L199.442 23.2885L199.477 22.2891ZM200.156 17.4844L201.115 17.7699L201.115 17.7671L200.156 17.4844ZM205.312 11.0859L205.733 11.9933L205.742 11.989L205.312 11.0859ZM213.047 10.6875L212.722 11.6333L212.735 11.6377L213.047 10.6875ZM217.969 36V37H218.969V36H217.969ZM213.633 36H212.633V37H213.633V36ZM212.953 16.125L212.077 16.6063L212.08 16.6128L212.084 16.6193L212.953 16.125ZM211.078 14.3906L210.659 15.2986L210.666 15.3019L210.674 15.3052L211.078 14.3906ZM201.82 19.125L200.845 18.9034L200.843 18.9144L201.82 19.125ZM217.922 19.9688L218.215 20.9249L218.922 20.7082V19.9688H217.922ZM215.016 20.8594L214.016 20.8481L214 22.2164L215.309 21.8155L215.016 20.8594ZM215.695 16.8516L214.752 16.5181L214.749 16.5284L215.695 16.8516ZM217.641 13.4297L216.882 12.7779L216.876 12.7848L217.641 13.4297ZM220.805 11.0625L221.224 11.9702L221.234 11.9658L220.805 11.0625ZM228.703 10.7109L228.378 11.6568L228.383 11.6582L228.703 10.7109ZM231.375 12.375L230.653 13.0669L230.66 13.0746L230.668 13.0821L231.375 12.375ZM233.602 36V37H234.602V36H233.602ZM229.242 36H228.242V37H229.242V36ZM228.562 15.9844L227.686 16.4656L227.692 16.4759L227.697 16.4861L228.562 15.9844ZM226.688 14.3203L226.307 15.245L226.318 15.2495L226.329 15.2537L226.688 14.3203ZM219.445 15.6797L220.193 16.3441L220.202 16.3338L219.445 15.6797ZM218.297 17.625L217.357 17.2849L217.353 17.2938L217.35 17.3027L218.297 17.625ZM201.383 15.6797V36H203.383V15.6797H201.383ZM202.383 35H198.023V37H202.383V35ZM199.023 36V10.6406H197.023V36H199.023ZM198.023 11.6406H202.148V9.64062H198.023V11.6406ZM201.15 10.6871L201.384 15.7261L203.382 15.6332L203.147 10.5942L201.15 10.6871ZM201.527 21.36L199.511 21.2897L199.442 23.2885L201.457 23.3588L201.527 21.36ZM200.477 22.2981C200.491 20.6452 200.707 19.1379 201.115 17.7699L199.198 17.1989C198.73 18.7683 198.493 20.4641 198.477 22.2801L200.477 22.2981ZM201.115 17.7671C201.521 16.3907 202.115 15.2184 202.888 14.235L201.315 12.9994C200.369 14.2035 199.666 15.6093 199.197 17.2017L201.115 17.7671ZM202.888 14.235C203.648 13.2672 204.593 12.5217 205.733 11.9932L204.892 10.1786C203.47 10.8376 202.274 11.7797 201.315 12.9994L202.888 14.235ZM205.742 11.989C206.866 11.4544 208.199 11.1719 209.766 11.1719V9.17188C207.957 9.17188 206.321 9.49871 204.883 10.1829L205.742 11.989ZM209.766 11.1719C210.856 11.1719 211.838 11.3295 212.722 11.6332L213.372 9.74181C212.255 9.35797 211.05 9.17188 209.766 9.17188V11.1719ZM212.735 11.6377C213.593 11.9192 214.327 12.3635 214.949 12.9725L216.348 11.5431C215.501 10.7146 214.501 10.112 213.359 9.73734L212.735 11.6377ZM214.949 12.9725C215.559 13.57 216.055 14.3565 216.419 15.3631L218.3 14.6838C217.851 13.4404 217.206 12.3831 216.348 11.5431L214.949 12.9725ZM216.419 15.3631C216.775 16.3497 216.969 17.5875 216.969 19.1016H218.969C218.969 17.4282 218.756 15.9472 218.3 14.6838L216.419 15.3631ZM216.969 19.1016V36H218.969V19.1016H216.969ZM217.969 35H213.633V37H217.969V35ZM214.633 36V19.3125H212.633V36H214.633ZM214.633 19.3125C214.633 17.8839 214.391 16.631 213.822 15.6307L212.084 16.6193C212.421 17.2128 212.633 18.0848 212.633 19.3125H214.633ZM213.83 15.6437C213.289 14.6594 212.501 13.9264 211.483 13.4761L210.674 15.3052C211.281 15.5736 211.742 15.9969 212.077 16.6063L213.83 15.6437ZM211.497 13.4827C210.527 13.0351 209.426 12.8281 208.219 12.8281V14.8281C209.199 14.8281 210.004 14.9962 210.659 15.2986L211.497 13.4827ZM208.219 12.8281C206.825 12.8281 205.583 13.074 204.541 13.6232L205.474 15.3924C206.151 15.0354 207.05 14.8281 208.219 14.8281V12.8281ZM204.541 13.6232C203.534 14.1543 202.717 14.8953 202.106 15.8396L203.785 16.9261C204.205 16.2766 204.763 15.7676 205.474 15.3924L204.541 13.6232ZM202.106 15.8396C201.52 16.7455 201.103 17.7708 200.845 18.9034L202.795 19.3466C203.007 18.4167 203.34 17.6139 203.785 16.9261L202.106 15.8396ZM200.843 18.9144C200.608 20.0056 200.492 21.1548 200.492 22.3594H202.492C202.492 21.2827 202.595 20.2756 202.798 19.3356L200.843 18.9144ZM217.629 19.0126L214.723 19.9033L215.309 21.8155L218.215 20.9249L217.629 19.0126ZM216.016 20.8706C216.03 19.5832 216.239 18.3528 216.642 17.1747L214.749 16.5284C214.276 17.9129 214.032 19.3543 214.016 20.8481L216.016 20.8706ZM216.638 17.185C217.053 16.013 217.642 14.9788 218.405 14.0746L216.876 12.7848C215.952 13.8806 215.244 15.1276 214.753 16.5181L216.638 17.185ZM218.399 14.0815C219.161 13.1948 220.098 12.4909 221.224 11.9701L220.385 10.1549C219.011 10.7903 217.839 11.6645 216.882 12.7779L218.399 14.0815ZM221.234 11.9658C222.329 11.4453 223.609 11.1719 225.094 11.1719V9.17188C223.36 9.17188 221.78 9.49221 220.376 10.1592L221.234 11.9658ZM225.094 11.1719C226.367 11.1719 227.457 11.3404 228.378 11.6568L229.028 9.76512C227.856 9.36275 226.539 9.17188 225.094 9.17188V11.1719ZM228.383 11.6582C229.305 11.9702 230.054 12.4422 230.653 13.0669L232.097 11.6831C231.258 10.8078 230.226 10.1704 229.024 9.76366L228.383 11.6582ZM230.668 13.0821C231.273 13.6872 231.753 14.4879 232.088 15.5194L233.99 14.9024C233.575 13.6215 232.946 12.5316 232.082 11.6679L230.668 13.0821ZM232.088 15.5194C232.422 16.5506 232.602 17.8163 232.602 19.3359H234.602C234.602 17.6681 234.406 16.1838 233.99 14.9024L232.088 15.5194ZM232.602 19.3359V36H234.602V19.3359H232.602ZM233.602 35H229.242V37H233.602V35ZM230.242 36V19.2891H228.242V36H230.242ZM230.242 19.2891C230.242 17.7829 230.006 16.4799 229.428 15.4827L227.697 16.4861C228.025 17.0513 228.242 17.9515 228.242 19.2891H230.242ZM229.439 15.5031C228.893 14.5091 228.09 13.7883 227.046 13.387L226.329 15.2537C226.91 15.4773 227.357 15.8659 227.686 16.4656L229.439 15.5031ZM227.068 13.3956C226.121 13.0057 225.032 12.8281 223.828 12.8281V14.8281C224.843 14.8281 225.66 14.9786 226.307 15.245L227.068 13.3956ZM223.828 12.8281C222.76 12.8281 221.773 13.0122 220.889 13.4073L221.705 15.2333C222.289 14.9722 222.99 14.8281 223.828 14.8281V12.8281ZM220.889 13.4073C220.028 13.792 219.29 14.3309 218.689 15.0255L220.202 16.3338C220.601 15.8723 221.097 15.5049 221.705 15.2333L220.889 13.4073ZM218.698 15.0153C218.11 15.6762 217.664 16.4357 217.357 17.2849L219.237 17.9651C219.461 17.3455 219.78 16.8081 220.193 16.3441L218.698 15.0153ZM217.35 17.3027C217.063 18.1477 216.922 19.0384 216.922 19.9688H218.922C218.922 19.2428 219.031 18.5711 219.244 17.9473L217.35 17.3027ZM245.883 35.5781L245.489 36.4973L245.501 36.5024L245.883 35.5781ZM242.203 33.0234L241.47 33.7039L241.476 33.7094L242.203 33.0234ZM239.953 17.7188L240.888 18.0729L240.889 18.0699L239.953 17.7188ZM254.812 11.1094L254.383 12.0122L254.387 12.0142L254.812 11.1094ZM258.07 13.7344L257.27 14.3344L257.274 14.3397L258.07 13.7344ZM259.945 17.6719L258.979 17.9308L258.98 17.9333L259.945 17.6719ZM260.555 24.5391V25.5391H261.555V24.5391H260.555ZM241.617 24.5391H240.617V25.5391H241.617V24.5391ZM241.617 21V20H240.617V21H241.617ZM256.219 21V22H257.219V21H256.219ZM256.219 20.6719H257.219V20.6441L257.217 20.6164L256.219 20.6719ZM255.516 17.3906L254.577 17.7357L254.582 17.7478L255.516 17.3906ZM247.406 14.3672L247.847 15.265L247.853 15.2617L247.86 15.2582L247.406 14.3672ZM243.891 27.6094L242.935 27.9044L242.938 27.9129L242.941 27.9213L243.891 27.6094ZM245.367 30.375L244.588 31.0016L244.595 31.0107L245.367 30.375ZM247.734 32.25L247.293 33.1475L247.299 33.1503L247.734 32.25ZM257.602 29.4844L258.224 28.7015L257.424 28.0662L256.806 28.8787L257.602 29.4844ZM260.227 31.5703L261.061 32.1214L261.566 31.3572L260.849 30.7874L260.227 31.5703ZM255.023 35.7656L254.668 34.8308L254.664 34.8323L255.023 35.7656ZM250.688 35.4688C249.035 35.4688 247.566 35.1913 246.265 34.6539L245.501 36.5024C247.075 37.1525 248.809 37.4688 250.688 37.4688V35.4688ZM246.277 34.659C244.977 34.102 243.865 33.3285 242.931 32.3374L241.476 33.7094C242.604 34.9059 243.945 35.8355 245.489 36.4973L246.277 34.659ZM242.936 32.343C242.017 31.3536 241.303 30.1738 240.799 28.7903L238.92 29.4753C239.509 31.0918 240.358 32.5057 241.47 33.7039L242.936 32.343ZM240.799 28.7903C240.296 27.412 240.039 25.8888 240.039 24.2109H238.039C238.039 26.0956 238.329 27.8536 238.92 29.4753L240.799 28.7903ZM240.039 24.2109V23.2266H238.039V24.2109H240.039ZM240.039 23.2266C240.039 21.2616 240.329 19.5491 240.888 18.0729L239.018 17.3646C238.358 19.1072 238.039 21.0665 238.039 23.2266H240.039ZM240.889 18.0699C241.459 16.5514 242.222 15.2927 243.17 14.275L241.705 12.9125C240.559 14.1448 239.666 15.6361 239.017 17.3676L240.889 18.0699ZM243.17 14.275C244.129 13.2443 245.205 12.4759 246.399 11.956L245.601 10.1222C244.139 10.7584 242.84 11.6932 241.705 12.9125L243.17 14.275ZM246.399 11.956C247.604 11.4316 248.843 11.1719 250.125 11.1719V9.17188C248.563 9.17188 247.053 9.49028 245.601 10.1222L246.399 11.956ZM250.125 11.1719C251.825 11.1719 253.233 11.465 254.383 12.0122L255.242 10.2065C253.767 9.50378 252.05 9.17188 250.125 9.17188V11.1719ZM254.387 12.0142C255.574 12.5728 256.529 13.3458 257.27 14.3344L258.87 13.1344C257.924 11.8729 256.707 10.8959 255.238 10.2046L254.387 12.0142ZM257.274 14.3397C258.03 15.3335 258.603 16.5249 258.979 17.9308L260.911 17.413C260.476 15.7876 259.798 14.354 258.866 13.129L257.274 14.3397ZM258.98 17.9333C259.36 19.3367 259.555 20.8882 259.555 22.5938H261.555C261.555 20.7368 261.343 19.007 260.911 17.4105L258.98 17.9333ZM259.555 22.5938V24.5391H261.555V22.5938H259.555ZM260.555 23.5391H241.617V25.5391H260.555V23.5391ZM242.617 24.5391V21H240.617V24.5391H242.617ZM241.617 22H256.219V20H241.617V22ZM257.219 21V20.6719H255.219V21H257.219ZM257.217 20.6164C257.149 19.3871 256.893 18.1917 256.45 17.0335L254.582 17.7478C254.951 18.7146 255.164 19.7066 255.22 20.7273L257.217 20.6164ZM256.454 17.0456C256.003 15.817 255.271 14.7896 254.265 13.9848L253.016 15.5465C253.729 16.1167 254.247 16.8392 254.577 17.7357L256.454 17.0456ZM254.265 13.9848C253.175 13.1129 251.757 12.7344 250.125 12.7344V14.7344C251.461 14.7344 252.387 15.0434 253.016 15.5465L254.265 13.9848ZM250.125 12.7344C248.992 12.7344 247.929 12.9784 246.952 13.4761L247.86 15.2582C248.539 14.9122 249.289 14.7344 250.125 14.7344V12.7344ZM246.966 13.4694C245.979 13.9533 245.146 14.6742 244.466 15.6053L246.081 16.7853C246.588 16.0915 247.177 15.5935 247.847 15.265L246.966 13.4694ZM244.466 15.6053C243.789 16.5323 243.281 17.6386 242.928 18.9022L244.854 19.4415C245.156 18.3614 245.571 17.4833 246.081 16.7853L244.466 15.6053ZM242.928 18.9022C242.57 20.1811 242.398 21.6265 242.398 23.2266H244.398C244.398 21.7641 244.555 20.5064 244.854 19.4415L242.928 18.9022ZM242.398 23.2266V24.2109H244.398V23.2266H242.398ZM242.398 24.2109C242.398 25.5059 242.575 26.7389 242.935 27.9044L244.846 27.3143C244.55 26.3549 244.398 25.3222 244.398 24.2109H242.398ZM242.941 27.9213C243.319 29.0736 243.866 30.1039 244.588 31.0016L246.147 29.7484C245.587 29.0524 245.15 28.2389 244.841 27.2974L242.941 27.9213ZM244.595 31.0107C245.341 31.9168 246.243 32.6313 247.293 33.1474L248.175 31.3526C247.382 30.9625 246.705 30.427 246.139 29.7393L244.595 31.0107ZM247.299 33.1503C248.39 33.6777 249.605 33.9297 250.922 33.9297V31.9297C249.864 31.9297 248.953 31.7285 248.17 31.3497L247.299 33.1503ZM250.922 33.9297C252.589 33.9297 254.07 33.589 255.32 32.8541L254.305 31.1303C253.43 31.6454 252.318 31.9297 250.922 31.9297V33.9297ZM255.32 32.8541C256.501 32.1589 257.527 31.2333 258.397 30.0901L256.806 28.8787C256.082 29.8292 255.249 30.5755 254.305 31.1303L255.32 32.8541ZM256.979 30.2673L259.604 32.3532L260.849 30.7874L258.224 28.7015L256.979 30.2673ZM259.392 31.0193C258.899 31.7657 258.264 32.4901 257.476 33.1901L258.805 34.6849C259.705 33.8849 260.46 33.0312 261.061 32.1214L259.392 31.0193ZM257.476 33.1901C256.737 33.8469 255.808 34.398 254.668 34.8308L255.378 36.7005C256.708 36.1958 257.856 35.5281 258.805 34.6849L257.476 33.1901ZM254.664 34.8323C253.587 35.2465 252.269 35.4688 250.688 35.4688V37.4688C252.449 37.4688 254.022 37.2222 255.382 36.699L254.664 34.8323ZM279.961 27.5391L279.061 27.976L279.069 27.9916L279.077 28.007L279.961 27.5391ZM278.297 26.0625L277.817 26.9398L277.827 26.9451L277.837 26.9503L278.297 26.0625ZM274.547 24.8906L274.34 25.8691L274.347 25.8705L274.354 25.8719L274.547 24.8906ZM270.727 23.8359L270.387 24.7765L270.391 24.778L270.727 23.8359ZM267.844 22.3594L267.249 23.1633L267.257 23.1688L267.844 22.3594ZM266.062 14.7422L265.171 14.2887L265.165 14.3013L266.062 14.7422ZM267.961 12.375L267.322 11.6056L267.315 11.6116L267.961 12.375ZM283.312 14.1328L282.469 14.6697L282.472 14.6747L283.312 14.1328ZM284.461 18.0938V19.0938H285.461V18.0938H284.461ZM280.125 18.0938H279.125V19.0938H280.125V18.0938ZM279.492 16.0547L278.636 16.5721L278.644 16.5839L278.651 16.5954L279.492 16.0547ZM277.688 14.3906L277.199 15.2632L277.206 15.2672L277.688 14.3906ZM271.875 14.2969L272.315 15.1951L272.322 15.1913L271.875 14.2969ZM270.258 15.6797L269.405 15.1582L269.399 15.167L269.394 15.1758L270.258 15.6797ZM270 18.7266L269.077 19.1112L269.087 19.1349L269.098 19.158L270 18.7266ZM270.891 19.7344L270.295 20.5379L270.305 20.5452L270.315 20.5522L270.891 19.7344ZM275.602 21.375L275.822 20.3995L275.82 20.3991L275.602 21.375ZM284.016 31.9922L283.124 31.5389L283.118 31.5511L284.016 31.9922ZM282.023 34.3828L282.63 35.1776L282.632 35.176L282.023 34.3828ZM278.93 35.9297L279.219 36.8869L279.227 36.8844L278.93 35.9297ZM264.539 28.1719V27.1719H263.539V28.1719H264.539ZM268.898 28.1719L269.897 28.1193L269.847 27.1719H268.898V28.1719ZM269.93 31.0078L269.182 31.6722L269.19 31.6805L269.93 31.0078ZM272.227 32.4844L271.915 33.4347L271.923 33.4371L271.93 33.4394L272.227 32.4844ZM277.898 32.4375L277.539 31.5041L277.533 31.5065L277.898 32.4375ZM281.383 29.2734C281.383 28.492 281.205 27.7524 280.845 27.0712L279.077 28.007C279.279 28.3882 279.383 28.8048 279.383 29.2734H281.383ZM280.86 27.1022C280.461 26.2799 279.691 25.6592 278.757 25.1747L277.837 26.9503C278.59 27.3408 278.93 27.7045 279.061 27.976L280.86 27.1022ZM278.777 25.1852C277.814 24.6583 276.445 24.244 274.739 23.9093L274.354 25.8719C275.993 26.1935 277.124 26.5604 277.817 26.9398L278.777 25.1852ZM274.753 23.9122C273.383 23.6229 272.154 23.2827 271.062 22.8939L270.391 24.778C271.581 25.2017 272.898 25.5646 274.34 25.8691L274.753 23.9122ZM271.066 22.8954C270.011 22.5144 269.138 22.0626 268.431 21.55L267.257 23.1688C268.144 23.8124 269.192 24.3449 270.387 24.7765L271.066 22.8954ZM268.439 21.5555C267.764 21.0564 267.265 20.4854 266.919 19.8452L265.159 20.7955C265.657 21.7177 266.361 22.5061 267.249 23.1632L268.439 21.5555ZM266.919 19.8452C266.589 19.234 266.406 18.4888 266.406 17.5781H264.406C264.406 18.7612 264.645 19.8441 265.159 20.7955L266.919 19.8452ZM266.406 17.5781C266.406 16.7298 266.59 15.9354 266.96 15.1831L265.165 14.3013C264.66 15.3302 264.406 16.4265 264.406 17.5781H266.406ZM266.954 15.1956C267.343 14.4312 267.889 13.7456 268.607 13.1384L267.315 11.6116C266.408 12.3794 265.689 13.2719 265.171 14.2887L266.954 15.1956ZM268.6 13.1444C269.322 12.5451 270.202 12.0618 271.258 11.7052L270.617 9.81042C269.36 10.2351 268.257 10.8299 267.322 11.6056L268.6 13.1444ZM271.258 11.7052C272.295 11.3546 273.474 11.1719 274.805 11.1719V9.17188C273.292 9.17188 271.892 9.37975 270.617 9.81042L271.258 11.7052ZM274.805 11.1719C276.721 11.1719 278.294 11.511 279.561 12.1444L280.455 10.3556C278.847 9.55153 276.951 9.17188 274.805 9.17188V11.1719ZM279.561 12.1444C280.857 12.7927 281.812 13.6382 282.469 14.6697L284.156 13.5959C283.281 12.2212 282.034 11.1448 280.455 10.3556L279.561 12.1444ZM282.472 14.6747C283.13 15.6959 283.461 16.827 283.461 18.0938H285.461C285.461 16.4542 285.026 14.9448 284.153 13.5909L282.472 14.6747ZM284.461 17.0938H280.125V19.0938H284.461V17.0938ZM281.125 18.0938C281.125 17.1782 280.847 16.3132 280.333 15.5139L278.651 16.5954C278.981 17.1087 279.125 17.603 279.125 18.0938H281.125ZM280.348 15.5373C279.837 14.6924 279.095 14.0227 278.169 13.514L277.206 15.2672C277.874 15.6335 278.335 16.0732 278.636 16.5721L280.348 15.5373ZM278.176 13.5181C277.21 12.9771 276.071 12.7344 274.805 12.7344V14.7344C275.82 14.7344 276.602 14.9291 277.199 15.2631L278.176 13.5181ZM274.805 12.7344C273.509 12.7344 272.364 12.9345 271.428 13.4024L272.322 15.1913C272.886 14.9092 273.694 14.7344 274.805 14.7344V12.7344ZM271.435 13.3987C270.571 13.8216 269.869 14.3983 269.405 15.1582L271.111 16.2011C271.334 15.8361 271.71 15.4909 272.315 15.1951L271.435 13.3987ZM269.394 15.1758C268.981 15.8846 268.766 16.6513 268.766 17.4609H270.766C270.766 17.0206 270.879 16.5998 271.122 16.1836L269.394 15.1758ZM268.766 17.4609C268.766 18.0416 268.863 18.597 269.077 19.1112L270.923 18.3419C270.825 18.1061 270.766 17.8178 270.766 17.4609H268.766ZM269.098 19.158C269.359 19.7039 269.783 20.1581 270.295 20.5379L271.486 18.9308C271.155 18.6857 270.985 18.4679 270.902 18.2951L269.098 19.158ZM270.315 20.5522C270.844 20.9242 271.534 21.242 272.344 21.5229L273 19.6334C272.278 19.383 271.781 19.1383 271.466 18.9166L270.315 20.5522ZM272.344 21.5229C273.159 21.8055 274.175 22.0806 275.383 22.3509L275.82 20.3991C274.653 20.1381 273.716 19.882 273 19.6334L272.344 21.5229ZM275.382 22.3505C277.413 22.8087 279.044 23.3498 280.296 23.9611L281.173 22.1639C279.737 21.4627 277.946 20.8788 275.822 20.3995L275.382 22.3505ZM280.296 23.9611C281.529 24.5633 282.377 25.2679 282.911 26.0437L284.558 24.9095C283.78 23.779 282.628 22.8742 281.173 22.1639L280.296 23.9611ZM282.911 26.0437C283.433 26.8024 283.719 27.7522 283.719 28.9453H285.719C285.719 27.4197 285.348 26.057 284.558 24.9095L282.911 26.0437ZM283.719 28.9453C283.719 29.9089 283.516 30.7676 283.124 31.5389L284.907 32.4454C285.452 31.3731 285.719 30.2005 285.719 28.9453H283.719ZM283.118 31.5511C282.738 32.3249 282.177 33.0043 281.414 33.5897L282.632 35.176C283.62 34.4175 284.387 33.5032 284.913 32.4333L283.118 31.5511ZM281.417 33.588C280.664 34.1626 279.742 34.6291 278.632 34.975L279.227 36.8844C280.524 36.4802 281.664 35.9155 282.63 35.1776L281.417 33.588ZM278.64 34.9726C277.563 35.2986 276.327 35.4688 274.922 35.4688V37.4688C276.486 37.4688 277.922 37.2796 279.219 36.8868L278.64 34.9726ZM274.922 35.4688C272.803 35.4688 271.079 35.0906 269.708 34.3845L268.792 36.1624C270.515 37.05 272.572 37.4688 274.922 37.4688V35.4688ZM269.708 34.3845C268.294 33.6559 267.268 32.738 266.581 31.6469L264.888 32.7125C265.795 34.1526 267.113 35.2972 268.792 36.1624L269.708 34.3845ZM266.581 31.6469C265.878 30.5302 265.539 29.3774 265.539 28.1719H263.539C263.539 29.7788 263.997 31.2979 264.888 32.7125L266.581 31.6469ZM264.539 29.1719H268.898V27.1719H264.539V29.1719ZM267.9 28.2244C267.971 29.5775 268.37 30.7589 269.182 31.6722L270.677 30.3434C270.239 29.8505 269.951 29.1413 269.897 28.1193L267.9 28.2244ZM269.19 31.6805C269.934 32.4996 270.849 33.0854 271.915 33.4347L272.538 31.5341C271.792 31.2896 271.175 30.8911 270.67 30.3351L269.19 31.6805ZM271.93 33.4394C272.926 33.7485 273.924 33.9062 274.922 33.9062V31.9062C274.138 31.9062 273.34 31.7827 272.523 31.5293L271.93 33.4394ZM274.922 33.9062C276.189 33.9062 277.315 33.7405 278.264 33.3685L277.533 31.5065C276.888 31.7595 276.029 31.9062 274.922 31.9062V33.9062ZM278.257 33.3708C279.197 33.0095 279.982 32.4846 280.542 31.7592L278.958 30.5376C278.674 30.906 278.225 31.2405 277.539 31.5042L278.257 33.3708ZM280.542 31.7592C281.101 31.034 281.383 30.1933 281.383 29.2734H279.383C279.383 29.7598 279.242 30.1691 278.958 30.5376L280.542 31.7592Z" fill="black" mask="url(#path-1-outside-1_2_62)"/>
</g>
<defs>
<filter id="filter0_d_2_62" x="0.898438" y="0" width="287.82" height="53.75" filterUnits="userSpaceOnUse" color-interpolation-filters="sRGB">
<feFlood flood-opacity="0" result="BackgroundImageFix"/>
<feColorMatrix in="SourceAlpha" type="matrix" values="0 0 0 0 0 0 0 0 0 0 0 0 0 0 0 0 0 0 127 0" result="hardAlpha"/>
<feOffset dy="4"/>
<feGaussianBlur stdDeviation="2"/>
<feComposite in2="hardAlpha" operator="out"/>
<feColorMatrix type="matrix" values="0 0 0 0 0 0 0 0 0 0 0 0 0 0 0 0 0 0 0.25 0"/>
<feBlend mode="normal" in2="BackgroundImageFix" result="effect1_dropShadow_2_62"/>
<feBlend mode="normal" in="SourceGraphic" in2="effect1_dropShadow_2_62" result="shape"/>
</filter>
</defs>
</svg>
