<svg width="160" height="17" viewBox="0 0 160 17" fill="none" xmlns="http://www.w3.org/2000/svg">
<path d="M6.42383 9.02832C4.65495 8.51986 3.36589 7.89681 2.55664 7.15918C1.75456 6.41439 1.35352 5.49772 1.35352 4.40918C1.35352 3.17741 1.84408 2.16048 2.8252 1.3584C3.81348 0.549154 5.09538 0.144531 6.6709 0.144531C7.74512 0.144531 8.70117 0.352214 9.53906 0.767578C10.3841 1.18294 11.0358 1.75586 11.4941 2.48633C11.9596 3.2168 12.1924 4.0153 12.1924 4.88184H10.1191C10.1191 3.93652 9.81836 3.19531 9.2168 2.6582C8.61523 2.11393 7.7666 1.8418 6.6709 1.8418C5.65397 1.8418 4.85905 2.06738 4.28613 2.51855C3.72038 2.96257 3.4375 3.58203 3.4375 4.37695C3.4375 5.01432 3.70605 5.55501 4.24316 5.99902C4.78743 6.43587 5.70768 6.83691 7.00391 7.20215C8.30729 7.56738 9.32422 7.97201 10.0547 8.41602C10.7923 8.85286 11.3366 9.36491 11.6875 9.95215C12.0456 10.5394 12.2246 11.2305 12.2246 12.0254C12.2246 13.293 11.7305 14.3099 10.7422 15.0762C9.75391 15.8353 8.43262 16.2148 6.77832 16.2148C5.7041 16.2148 4.7015 16.0107 3.77051 15.6025C2.83952 15.1872 2.11979 14.6214 1.61133 13.9053C1.11003 13.1891 0.859375 12.3763 0.859375 11.4668H2.93262C2.93262 12.4121 3.27995 13.1605 3.97461 13.7119C4.67643 14.2562 5.611 14.5283 6.77832 14.5283C7.86686 14.5283 8.70117 14.3063 9.28125 13.8623C9.86133 13.4183 10.1514 12.8132 10.1514 12.0469C10.1514 11.2806 9.88281 10.6898 9.3457 10.2744C8.80859 9.85189 7.83464 9.43652 6.42383 9.02832ZM17.2627 1.5625V4.37695H19.4326V5.91309H17.2627V13.1211C17.2627 13.5866 17.3594 13.9375 17.5527 14.1738C17.7461 14.403 18.0755 14.5176 18.541 14.5176C18.7702 14.5176 19.0853 14.4746 19.4863 14.3887V16C18.9635 16.1432 18.4551 16.2148 17.9609 16.2148C17.0729 16.2148 16.4033 15.9463 15.9521 15.4092C15.501 14.8721 15.2754 14.1094 15.2754 13.1211V5.91309H13.1592V4.37695H15.2754V1.5625H17.2627ZM28.9395 16C28.8249 15.7708 28.7318 15.3626 28.6602 14.7754C27.7363 15.735 26.6335 16.2148 25.3516 16.2148C24.2057 16.2148 23.264 15.8926 22.5264 15.248C21.7959 14.5964 21.4307 13.7728 21.4307 12.7773C21.4307 11.5671 21.889 10.6289 22.8057 9.96289C23.7295 9.28971 25.0257 8.95312 26.6943 8.95312H28.6279V8.04004C28.6279 7.34538 28.4202 6.79395 28.0049 6.38574C27.5895 5.97038 26.9772 5.7627 26.168 5.7627C25.459 5.7627 24.8646 5.94173 24.3848 6.2998C23.9049 6.65788 23.665 7.09115 23.665 7.59961H21.667C21.667 7.01953 21.8711 6.46094 22.2793 5.92383C22.6947 5.37956 23.2533 4.94987 23.9551 4.63477C24.6641 4.31966 25.4411 4.16211 26.2861 4.16211C27.6253 4.16211 28.6745 4.4987 29.4336 5.17188C30.1927 5.83789 30.5866 6.75814 30.6152 7.93262V13.2822C30.6152 14.3493 30.7513 15.1979 31.0234 15.8281V16H28.9395ZM25.6416 14.4854C26.2646 14.4854 26.8555 14.3242 27.4141 14.002C27.9727 13.6797 28.3773 13.2607 28.6279 12.7451V10.3604H27.0703C24.6354 10.3604 23.418 11.0729 23.418 12.498C23.418 13.1211 23.6257 13.6081 24.041 13.959C24.4564 14.3099 24.9899 14.4854 25.6416 14.4854ZM39.3486 6.16016C39.0479 6.11003 38.722 6.08496 38.3711 6.08496C37.0677 6.08496 36.1833 6.63997 35.7178 7.75V16H33.7305V4.37695H35.6641L35.6963 5.71973C36.348 4.68132 37.2718 4.16211 38.4678 4.16211C38.8545 4.16211 39.1481 4.21224 39.3486 4.3125V6.16016ZM44.4189 1.5625V4.37695H46.5889V5.91309H44.4189V13.1211C44.4189 13.5866 44.5156 13.9375 44.709 14.1738C44.9023 14.403 45.2318 14.5176 45.6973 14.5176C45.9264 14.5176 46.2415 14.4746 46.6426 14.3887V16C46.1198 16.1432 45.6113 16.2148 45.1172 16.2148C44.2292 16.2148 43.5596 15.9463 43.1084 15.4092C42.6572 14.8721 42.4316 14.1094 42.4316 13.1211V5.91309H40.3154V4.37695H42.4316V1.5625H44.4189ZM66.709 16H64.6357L56.7617 3.94727V16H54.6885V0.359375H56.7617L64.6572 12.4658V0.359375H66.709V16ZM74.8838 16.2148C73.3083 16.2148 72.0264 15.6992 71.0381 14.668C70.0498 13.6296 69.5557 12.2438 69.5557 10.5107V10.1455C69.5557 8.99251 69.7741 7.96484 70.2109 7.0625C70.6549 6.15299 71.2708 5.44401 72.0586 4.93555C72.8535 4.41992 73.7129 4.16211 74.6367 4.16211C76.1478 4.16211 77.3223 4.65983 78.1602 5.65527C78.998 6.65072 79.417 8.07585 79.417 9.93066V10.7578H71.543C71.5716 11.9036 71.9046 12.8311 72.542 13.54C73.1865 14.2419 74.0029 14.5928 74.9912 14.5928C75.693 14.5928 76.2874 14.4495 76.7744 14.1631C77.2614 13.8766 77.6875 13.4971 78.0527 13.0244L79.2666 13.9697C78.2926 15.4665 76.8317 16.2148 74.8838 16.2148ZM74.6367 5.79492C73.8346 5.79492 73.1615 6.08854 72.6172 6.67578C72.0729 7.25586 71.7363 8.07227 71.6074 9.125H77.4297V8.97461C77.3724 7.96484 77.1003 7.18424 76.6133 6.63281C76.1263 6.07422 75.4674 5.79492 74.6367 5.79492ZM92.0176 13.2607L94.252 4.37695H96.2393L92.8555 16H91.2441L88.4189 7.19141L85.6689 16H84.0576L80.6846 4.37695H82.6611L84.9492 13.0781L87.6562 4.37695H89.2568L92.0176 13.2607ZM115.586 13.9482C115.056 14.7074 114.315 15.2767 113.362 15.6562C112.417 16.0286 111.314 16.2148 110.054 16.2148C108.779 16.2148 107.647 15.9176 106.659 15.3232C105.671 14.7217 104.905 13.8695 104.36 12.7666C103.823 11.6637 103.548 10.3854 103.533 8.93164V7.56738C103.533 5.21126 104.081 3.38509 105.177 2.08887C106.28 0.792643 107.826 0.144531 109.817 0.144531C111.45 0.144531 112.764 0.563477 113.76 1.40137C114.755 2.2321 115.364 3.41374 115.586 4.94629H113.523C113.137 2.87663 111.905 1.8418 109.828 1.8418C108.446 1.8418 107.397 2.32878 106.681 3.30273C105.972 4.26953 105.614 5.67318 105.606 7.51367V8.79199C105.606 10.5465 106.007 11.943 106.81 12.9814C107.612 14.0127 108.697 14.5283 110.064 14.5283C110.838 14.5283 111.515 14.4424 112.095 14.2705C112.675 14.0986 113.155 13.8086 113.534 13.4004V9.8877H109.914V8.21191H115.586V13.9482ZM125.898 16C125.784 15.7708 125.691 15.3626 125.619 14.7754C124.695 15.735 123.592 16.2148 122.311 16.2148C121.165 16.2148 120.223 15.8926 119.485 15.248C118.755 14.5964 118.39 13.7728 118.39 12.7773C118.39 11.5671 118.848 10.6289 119.765 9.96289C120.688 9.28971 121.985 8.95312 123.653 8.95312H125.587V8.04004C125.587 7.34538 125.379 6.79395 124.964 6.38574C124.549 5.97038 123.936 5.7627 123.127 5.7627C122.418 5.7627 121.824 5.94173 121.344 6.2998C120.864 6.65788 120.624 7.09115 120.624 7.59961H118.626C118.626 7.01953 118.83 6.46094 119.238 5.92383C119.654 5.37956 120.212 4.94987 120.914 4.63477C121.623 4.31966 122.4 4.16211 123.245 4.16211C124.584 4.16211 125.633 4.4987 126.393 5.17188C127.152 5.83789 127.546 6.75814 127.574 7.93262V13.2822C127.574 14.3493 127.71 15.1979 127.982 15.8281V16H125.898ZM122.601 14.4854C123.224 14.4854 123.814 14.3242 124.373 14.002C124.932 13.6797 125.336 13.2607 125.587 12.7451V10.3604H124.029C121.594 10.3604 120.377 11.0729 120.377 12.498C120.377 13.1211 120.585 13.6081 121 13.959C121.415 14.3099 121.949 14.4854 122.601 14.4854ZM132.559 4.37695L132.612 5.66602C133.465 4.66341 134.614 4.16211 136.061 4.16211C137.686 4.16211 138.793 4.78516 139.38 6.03125C139.767 5.47266 140.268 5.02148 140.884 4.67773C141.507 4.33398 142.241 4.16211 143.086 4.16211C145.635 4.16211 146.932 5.51204 146.975 8.21191V16H144.987V8.33008C144.987 7.49935 144.798 6.87988 144.418 6.47168C144.038 6.05632 143.401 5.84863 142.506 5.84863C141.768 5.84863 141.156 6.07064 140.669 6.51465C140.182 6.9515 139.899 7.54232 139.82 8.28711V16H137.822V8.38379C137.822 6.69368 136.995 5.84863 135.341 5.84863C134.037 5.84863 133.146 6.40365 132.666 7.51367V16H130.679V4.37695H132.559ZM154.806 16.2148C153.23 16.2148 151.948 15.6992 150.96 14.668C149.972 13.6296 149.478 12.2438 149.478 10.5107V10.1455C149.478 8.99251 149.696 7.96484 150.133 7.0625C150.577 6.15299 151.193 5.44401 151.98 4.93555C152.775 4.41992 153.635 4.16211 154.559 4.16211C156.07 4.16211 157.244 4.65983 158.082 5.65527C158.92 6.65072 159.339 8.07585 159.339 9.93066V10.7578H151.465C151.493 11.9036 151.826 12.8311 152.464 13.54C153.108 14.2419 153.925 14.5928 154.913 14.5928C155.615 14.5928 156.209 14.4495 156.696 14.1631C157.183 13.8766 157.609 13.4971 157.975 13.0244L159.188 13.9697C158.215 15.4665 156.754 16.2148 154.806 16.2148ZM154.559 5.79492C153.757 5.79492 153.083 6.08854 152.539 6.67578C151.995 7.25586 151.658 8.07227 151.529 9.125H157.352V8.97461C157.294 7.96484 157.022 7.18424 156.535 6.63281C156.048 6.07422 155.389 5.79492 154.559 5.79492Z" fill="white"/>
</svg>
